<?xml version="1.0" encoding="utf-8"?>
<!-- Generator: Adobe Illustrator 24.0.0, SVG Export Plug-In . SVG Version: 6.00 Build 0)  -->
<svg version="1.1" id="Capa_1" xmlns="http://www.w3.org/2000/svg" xmlns:xlink="http://www.w3.org/1999/xlink" x="0px" y="0px"
	 viewBox="0 0 49.69 71.94" style="enable-background:new 0 0 49.69 71.94;" xml:space="preserve">
<style type="text/css">
	.st0{fill:#FFFFFF;}
	.st1{fill:#8AB07D;}
</style>
<g>
	<path class="st0" d="M48.69,25.26c0,0.44,0,0.91-0.06,1.35c-0.13,2.67-0.69,5.18-1.66,7.53c0,0.03,0,0.06-0.03,0.06
		c-0.16,0.41-0.38,0.85-0.56,1.29c-0.06,0.13-0.13,0.25-0.19,0.38c-0.16,0.35-0.35,0.69-0.53,1.04c-1.79,3.36-4.61,7.47-9.03,12.23
		c-10.19,10.98-11.64,18.7-11.76,21.58c-0.03,0.09-0.03,0.19,0,0.25c0-0.06,0-0.16-0.03-0.25c-0.13-2.89-1.57-10.6-11.76-21.58
		c-4.27-4.58-7.03-8.56-8.85-11.86c0-0.03-0.03-0.06-0.03-0.09c-0.75-1.38-1.32-2.6-1.76-3.7c-0.16-0.38-0.28-0.75-0.41-1.13
		c-0.56-1.82-0.91-3.73-1-5.74c-0.06-0.44-0.06-0.91-0.06-1.35c0-13.17,10.7-23.87,23.87-23.87S48.69,12.09,48.69,25.26z"/>
	<path class="st1" d="M45.21,25.65c0,0.38,0,0.78-0.05,1.15c-0.11,2.28-0.59,4.42-1.42,6.43c0,0.03,0,0.05-0.03,0.05
		c-0.13,0.35-0.32,0.72-0.48,1.1c-0.05,0.11-0.11,0.21-0.16,0.32c-0.13,0.29-0.29,0.59-0.46,0.88c-1.53,2.87-3.94,6.38-7.72,10.45
		c-8.71,9.38-9.94,15.97-10.05,18.43c-0.03,0.08-0.03,0.16,0,0.21c0-0.05,0-0.13-0.03-0.21c-0.11-2.46-1.34-9.06-10.05-18.43
		c-3.64-3.91-6-7.31-7.56-10.13c0-0.03-0.03-0.05-0.03-0.08c-0.64-1.18-1.13-2.22-1.5-3.16c-0.13-0.32-0.24-0.64-0.35-0.96
		c-0.48-1.55-0.78-3.19-0.86-4.9c-0.05-0.38-0.05-0.78-0.05-1.15c0-11.25,9.14-20.39,20.39-20.39S45.21,14.4,45.21,25.65z"/>
</g>
</svg>
