<?xml version="1.0" encoding="UTF-8" standalone="no"?>
<!-- Generator: Adobe Illustrator 24.0.0, SVG Export Plug-In . SVG Version: 6.00 Build 0)  -->

<svg
   xmlns:dc="http://purl.org/dc/elements/1.1/"
   xmlns:cc="http://creativecommons.org/ns#"
   xmlns:rdf="http://www.w3.org/1999/02/22-rdf-syntax-ns#"
   xmlns:svg="http://www.w3.org/2000/svg"
   xmlns="http://www.w3.org/2000/svg"
   xmlns:sodipodi="http://sodipodi.sourceforge.net/DTD/sodipodi-0.dtd"
   xmlns:inkscape="http://www.inkscape.org/namespaces/inkscape"
   version="1.1"
   id="Capa_1"
   x="0px"
   y="0px"
   viewBox="0 0 281.61 400"
   style="enable-background:new 0 0 281.61 400;"
   xml:space="preserve"
   sodipodi:docname="rio grande.svg"
   inkscape:version="0.92.4 (5da689c313, 2019-01-14)"><metadata
   id="metadata13"><rdf:RDF><cc:Work
       rdf:about=""><dc:format>image/svg+xml</dc:format><dc:type
         rdf:resource="http://purl.org/dc/dcmitype/StillImage" /></cc:Work></rdf:RDF></metadata><defs
   id="defs11" /><sodipodi:namedview
   pagecolor="#ffffff"
   bordercolor="#666666"
   borderopacity="1"
   objecttolerance="10"
   gridtolerance="10"
   guidetolerance="10"
   inkscape:pageopacity="0"
   inkscape:pageshadow="2"
   inkscape:window-width="1366"
   inkscape:window-height="717"
   id="namedview9"
   showgrid="false"
   inkscape:zoom="0.834386"
   inkscape:cx="1.5301646"
   inkscape:cy="223.01552"
   inkscape:window-x="0"
   inkscape:window-y="28"
   inkscape:window-maximized="1"
   inkscape:current-layer="Capa_1" />
<style
   type="text/css"
   id="style2">
	.st0{fill:#914855;}
	.st1{fill:#FFFFFF;}
</style>
<path
   class="st0"
   d="m 10.65,384.21 c 2.43,2.32 5.35,2.31 7.7,2.29 4.29,-0.04 5.15,-0.04 8.02,0.03 h 245.56 l -0.01,-1.69 c 0.62,-6.91 -14.05,-8.49 -19.64,-11.65 -8.64,-4.88 -6.78,-11.37 -14.15,-18.31 -5.64,-5.31 -44.82,-36.69 -28.81,-45.29 -0.2,-9.01 -20.95,-23.48 -30.23,-30.23 5.06,8.02 7.48,13.17 5.06,15.61 -3.97,4.01 -12.96,3.15 -15.89,6.52 -4.84,5.58 -1.53,17.22 -6.12,23.83 0.72,-11.9 -4.72,-19.85 4.9,-29.13 2.43,-2.34 8.87,-2.69 9.5,-5.69 0.85,-4.05 -5.03,-10.94 -7.58,-13.67 -8.74,-9.38 -19.29,-6.76 -25.59,-17.86 -5.63,-9.93 -13.64,-18.63 -17.1,-29.53 -3.57,-11.22 -5.61,-22.28 -9.6,-33.44 -2.84,-7.92 -3.01,-10.04 -8.73,-15.84 -4.42,-4.48 -7.54,-9.63 -12.23,-14.33 -10.96,-11 -23.86,-10.91 -37.14,-16.12 -19.1,-7.51 -29.14,-13.15 -26.48,-36.35 0.97,-8.47 5.55,-13.66 11.5,-19.75 4.75,-4.86 16.32,-7.12 23.6,1.43 8.88,10.43 13.16,24.9 21.64,35.86 0.53,0.94 2.97,-0.33 2.5,-2.02 C 88.78,119.7 81.68,104.86 77.83,96.96 73.72,87.78 68.2,78.56 63.54,70.49 58.26,61.34 49,55.69 42.39,47.31 32.18,34.36 22.22,25.35 13.22,14.57 c -2.25,-2.69 -3.09,0.4 -3.09,0.4 L 8.77,378.52 c 0,0 0.24,4.12 1.88,5.69 z"
   id="path4"
   inkscape:connector-curvature="0"
   style="fill:#914855"
   sodipodi:nodetypes="ccccccccccccccccccccccccccccccccc" />
<path
   class="st1"
   d="M155.6,287.86c0.27-0.09,0.53-0.19,0.8-0.29c1.68-0.66,3.37-1.57,5.32-1.92c1.42-0.26,2.9-0.02,4.29-0.34  c2.16,2.02,0.37,5.54-2.09,6.38c-2.72,0.93-6.57-1.05-8.55-2.65C155.96,288.95,154.17,288.23,155.6,287.86z"
   id="path6" />
</svg>