<?xml version="1.0" encoding="utf-8"?>
<!-- Generator: Adobe Illustrator 24.0.0, SVG Export Plug-In . SVG Version: 6.00 Build 0)  -->
<svg version="1.1" id="Capa_1" xmlns="http://www.w3.org/2000/svg" xmlns:xlink="http://www.w3.org/1999/xlink" x="0px" y="0px"
	 viewBox="0 0 452.4 400" style="enable-background:new 0 0 452.4 400;" xml:space="preserve">
<style type="text/css">
	.st0{fill:#BCAFB2;}
	.st1{fill:#513037;}
	.st2{fill:#904755;}
	.st3{fill:#B85E6F;}
	.st4{fill:none;stroke:#513037;stroke-linecap:round;stroke-linejoin:round;stroke-miterlimit:10;}
	.st5{fill:#E76F51;}
	.st6{fill:#E7C268;}
	.st7{opacity:0.8;}
	.st8{fill:none;stroke:#919191;stroke-linecap:round;stroke-linejoin:round;stroke-miterlimit:10;}
	.st9{fill:none;stroke:#513037;stroke-width:3;stroke-linecap:round;stroke-linejoin:round;stroke-miterlimit:10;}
</style>
<path class="st0" d="M448.7,383.6c0,0-2.5,8.9-14.9,9.9H6.9L7.4,17.1l9.4-9.7c0,0,44.3,0,59.1,0.7c9.8,0.5,19.6,1.7,29.3,2.5
	c26.2,2.2,52.3,4.5,78.5,6.7c12.6,1.1,28.5,5.1,30.2,17.6c0.9,6.5-2.7,13-1.4,19.4c1.9,9.6,13.3,13.6,23,15.1
	c21.6,3.2,43.7,2.3,65.5,1.5c13.8-0.5,28.8-0.7,40.2,7.1c15,10.2,18.6,33.8,7.2,47.9c-3.9,4.9-9.2,8.7-12.8,13.8
	c-7.9,11.2-5.5,28.3,5.2,36.9c11.6,9.4,26.8,9.6,41.4,16.6c12.8,6.2,20.2,15,21,29.2c1.3,21.7-11.8,33.8-8.1,48.2
	c2.9,11.1,16,16,25.9,21.9c9.8,6,19.9,14.6,20.2,26.1c0.3,14-14.2,25.9-11.4,39.6C432,369.8,449.3,363,448.7,383.6z"/>
<path class="st1" d="M204.7,277.2l-8.3,8.3l-2.5,2.5c-0.5,0.3-1,0.6-1.5,0.8c-2,0.8-4.4,0.4-6.6,0.4l-7.4,7.1l-3.1,3c0,0,0,0,0,0v0
	c-2.7,1.8-6.2,2.5-9.5,2.2c-5.3-0.5-10.1-3.2-14.6-6.1c-9-5.9-17.3-12.8-26.9-17.6c-9.6-4.8-21-7.3-31.1-3.5
	c-10,3.7-13.6,16-21,23.8c-4.1,4.4-8.6,8.9-14.4,10.7c-5.3,1.7-11.1,0.9-16.7,1.5c-14,1.5-24.5,13.8-34.2,24v-317l9.8-9.8
	c0,0,7.9,6.8,7.6,9.9l10.9,0.1c5.1,4.7,8.7,10.4,12.9,16c5.3,7,9,15,13.5,22.4c7.9,13,18.6,24.3,31.1,33c5.4,3.8,11.2,7.1,16.3,11.4
	c10,8.6,17.9,19.8,22.3,32.2c9.4,26.3,20,42.9,31.9,66c2.5,4.9,5.2,10.4,3.8,15.8c-0.6,2.5-1.5,7.8-1.9,10.3
	c-0.6,3.9,4.9,13,6.9,16.5c7,12.7,18.2,20.8,25.3,33.4c0.4,0.7,0.7,1.5,0.9,2.4L204.7,277.2z"/>
<path class="st1" d="M178.4,296.3c-0.8,1.2-1.9,2.2-3.1,3L178.4,296.3z"/>
<path class="st1" d="M196.4,285.5c-0.7,1-1.5,1.8-2.5,2.5L196.4,285.5z"/>
<path class="st1" d="M427.6,383.7l-9.8,9.8H7c7.1-6.9,10.8-10.3,12.8-20.1c3.4-17.1,23.9-31.4,40.3-36.2c24.6-7.3,47.6-4.1,73.2-4.5
	c11-0.2,22-0.8,33-1.9c9-0.9,18.1-2.2,26.5-5.7c15.8-6.6,27.8-21.1,32.3-37.6c4.5-16.5,1.7-34.7-6.7-49.6c-5.4-9.6-9-15-19.8-17.3
	c-7.8-1-12.7,5.2-15.5,6.5c-0.7-1.7-0.2-3.2,1-4.6c0,0,0,0,0.1,0c0.1-0.1,0.4-0.5,0.9-0.9c2.4-2.4,8.7-8.7,8.7-8.7l10.3-4.6
	l10.9,1.6l1.6,0.2l2.6-8.4l9.8-9.8l-4,12.9l10.4,28.5l4,15.3c5.5,6.6,11.3,12.9,16.8,18.7c38.6,41.4,86,75.1,135.2,103.1
	c6,3.4,12,7.2,17.2,11.8l4.1-0.9L427.6,383.7z"/>
<path class="st1" d="M184.9,221.6c-0.4,0.4-0.8,0.8-0.9,0.9C184.3,222.2,184.6,221.9,184.9,221.6z"/>
<path class="st1" d="M218.9,201.7l-2.6,8.4l-1.6-0.2C215.8,207.9,216.9,205.4,218.9,201.7z"/>
<path class="st2" d="M16.8,324V7.4l27.8,0C49.7,12.1,53.8,18,58,23.5c5.3,7,9,15,13.5,22.4c7.9,13,18.6,24.3,31.1,33
	c5.4,3.8,11.2,7.1,16.3,11.4c10,8.6,17.9,19.8,22.3,32.2c9.4,26.3,20,42.9,31.9,66c2.5,4.9,5.2,10.4,3.8,15.8
	c-0.6,2.5-1.5,7.8-1.9,10.3c-0.6,3.9,4.9,13,6.9,16.5c7.1,12.7,18.2,20.8,25.3,33.4c2.8,5,0.3,12.2-4.9,14.5
	c-3.5,1.5-8.2-0.9-10.9,1.6c-1.2,1.1-1.6,2.9-2.2,4.4c-2.2,4.9-8.1,7.2-13.4,6.7s-10.1-3.2-14.6-6.1c-9-5.9-17.3-12.8-26.9-17.6
	c-9.6-4.8-21-7.2-31.1-3.6c-10,3.7-13.7,16-21,23.8c-4.2,4.4-8.6,8.9-14.4,10.7c-5.3,1.7-11.1,0.9-16.7,1.5
	C37,301.9,26.5,313.7,16.8,324z"/>
<path class="st2" d="M15.8,383.7h411.7c-5.8-10.3-16.3-17.3-26.6-23.2c-49.2-28-96.6-61.7-135.2-103.1c-18-19.3-40.9-43.9-37.1-65.6
	c-4.5,8.4-4.4,11-10.1,13.7c-4.4,2.2-11.5,0-16.1,1.8s-11.8,5.4-9.9,9.9c2.8-1.3,7.7-7.5,15.5-6.5c10.8,2.2,14.5,7.7,19.8,17.3
	c8.4,14.9,11.2,33.1,6.7,49.6c-4.5,16.5-16.5,31-32.3,37.6c-8.4,3.5-17.5,4.8-26.5,5.7c-11,1.1-22,1.7-33,1.9
	c-25.7,0.3-48.6-2.8-73.2,4.5c-16.4,4.8-39.4,17.7-42.7,34.9C25.2,372,22.9,376.8,15.8,383.7z"/>
<g>
	<path class="st3" d="M60.2,36.9l-11,27.8L20.3,99.6v42.9h59.8l2.3-6.7l10.3,9l19.9,1l6,4.9l17.2-19.4l23.8,47.6l-3.7,4.5
		l-12.9-11.4L127,190.1l-37.1-32l-23.3,25.3l-3.5-2.9l-5.1,5.5l16.3,14.7l-15.3,11.1H16.8v14.6l5.1,3.7l6.9-6.9l4.1,4.1l-4.7,4.7
		l5.4,5.4l-10.9,10.9l4.9,4.9l-10.9,12.5v49l16.6-6.3c0,0,5.5-6,20-8.7c4.7-4.4,9.1-8.5,13.8-12.9c2.1-1.9,4.2-4,5.1-6.6
		c1-3,0.5-7,3.1-8.9c1.3-1,3.1-1.1,4.7-1.5c3.1-0.8,5.6-3.1,8.2-4.9c2.6-1.9,5.8-3.5,8.9-2.8c2.1,0.4,3.9,1.8,6,2.1
		c1.6,0.2,3.2-0.3,4.7-0.7c13.3-3.2,27.1,1.7,40.8,3.1c3,0.3,6.2,0.4,9.1-0.6c2.9-1,5.5-3.3,6.1-6.3c0.4-1.9,2.8-2.6,4.7-2.5
		c1.9,0.1,3.8,0.9,5.6,1.7c-0.3,1.7,1,3.1,1.7,4.7c0.6,1.5,0.7,3.1,0.7,4.7c0,4.2,0.1,8.4,0.1,12.5c1.4,0.6,3.3-0.5,4.3,0.6
		c0.3,0.3,0.4,0.7,0.5,1.1c0.7,2.2,1.5,4.5,2.2,6.7c0,0,2.9,0.9,6.6-7.4c0,0-0.3-3.6,9.9-2.3c0,0,18.3-4-2.9-28.2
		c0,0-16.2-17.4-20.7-29.7c0,0-4.4-3.8,0.1-17.3c0,0-6.7-14.6-25.4-46l-15.8-30.5L109,93c0,0-32.2-18.1-41.5-46
		C67.5,47,63.7,40.6,60.2,36.9z"/>
	<path class="st3" d="M208.2,316.4l2.4,8l-11.8,10.3l5.6,20.6l1.9,13.5l29.6,15.3h15.4l-4.7-14.4l2.5-6.6h5.5l-1.3-10.7l20.8,10.7
		l5.8-14.4l5.1,1.6l1.5-3.8l-16.7-8l2.6-6.3l-7.3-2.9l2.2-4.9l6.1,2.7l2.9-4.5l21.5,10.6l19-25.1l-25-23.9l-52.9-18.7
		c0,0,1.7,12.4-3.7,20.4l10.3,5.9l-3,22.7l-3.6,27.5l-18.2,7l-3.5-8.6l10-5l-6.1-15.4l4.5-3.1l-0.6-4.9l-7.1-2.4L208.2,316.4z"/>
</g>
<path class="st0" d="M40.3,202.7c-0.3-0.2-0.6-0.3-0.8-0.6c-0.3-0.3-0.4-0.7-0.5-1.1c-0.3-1.1-0.5-2.2-0.8-3.3c0-0.1-0.1-0.3,0-0.4
	c0.1-0.2,0.3-0.2,0.5-0.2c1.4-0.1,2.7-0.3,4.1-0.1c0.7,0.1,1.4,0.3,2.2,0.2c1-0.1,1.9-0.6,2.8-1c1.2-0.7,2.5-1.4,3.7-2.1
	c0.8-0.4,1.6-0.9,2.4-1s1.9,0.1,2.4,0.8c0.5,0.7,0.5,1.5,0.5,2.3c0,1.1-0.1,2.2-0.5,3.2c-0.6,1.3-1.9,2.3-2.1,3.7
	c-0.2,1.6,1,3.1,0,4.6c-0.9,1.4-2.7,1.6-4.2,1.2C46.6,207.9,43.5,204.4,40.3,202.7z"/>
<g>
	<g>
		<line class="st4" x1="204.5" y1="355.3" x2="208.2" y2="384.1"/>
		<line class="st4" x1="196.2" y1="324.8" x2="218" y2="309.6"/>
		<line class="st4" x1="242.7" y1="314.5" x2="218" y2="309.6"/>
		<line class="st4" x1="232.5" y1="284.3" x2="245.7" y2="291.8"/>
		<line class="st4" x1="204.5" y1="355.3" x2="239.1" y2="342"/>
		<line class="st4" x1="245.7" y1="291.8" x2="239.1" y2="342"/>
		<line class="st4" x1="236.8" y1="264.7" x2="293.9" y2="284.9"/>
		<line class="st4" x1="380.4" y1="384.5" x2="285.5" y2="314.2"/>
		<line class="st4" x1="293.9" y1="284.9" x2="285.5" y2="314.2"/>
		<line class="st4" x1="352" y1="363.4" x2="332.3" y2="384.1"/>
		<line class="st4" x1="206.4" y1="368.8" x2="237.5" y2="384.9"/>
		<line class="st4" x1="237.6" y1="342.1" x2="251.4" y2="384.1"/>
		<line class="st4" x1="241.3" y1="324.8" x2="342.6" y2="373.2"/>
		<line class="st4" x1="240.1" y1="334.1" x2="242.4" y2="346.8"/>
		<line class="st4" x1="315.8" y1="384.4" x2="241.9" y2="346.6"/>
		<path class="st4" d="M196.2,324.8L164,347.4c-5.5,1.5-11,3.8-16.3,5.7c-12.3,4.6-26.5,2.2-38.7,7C99,364,90.5,374,87.4,384.2"/>
	</g>
	<g>
		<line class="st4" x1="22" y1="99.6" x2="195.5" y2="249.8"/>
		<line class="st4" x1="159.5" y1="178.8" x2="92.7" y2="260.1"/>
		<line class="st4" x1="51.7" y1="226.1" x2="92.7" y2="260.1"/>
		<line class="st4" x1="135.7" y1="131.2" x2="16.8" y2="265.5"/>
		<line class="st4" x1="64.1" y1="212.1" x2="16.8" y2="211.4"/>
		<line class="st4" x1="97.4" y1="254.3" x2="166.7" y2="258.2"/>
		<line class="st4" x1="184.4" y1="240.5" x2="182" y2="273"/>
		<line class="st4" x1="182" y1="273" x2="204.5" y2="355.3"/>
		<line class="st4" x1="76" y1="62.8" x2="64.6" y2="136.3"/>
		<path class="st4" d="M31.4,7.8c7.2,7,14.2,14.7,21.3,21.6c4.9,4.7,9.8,9.5,13.4,15.3c2.8,4.5,4.8,9.5,7.4,14.1
			C81.6,73.3,95.3,83.6,109,93"/>
		<line class="st4" x1="109" y1="93" x2="135.7" y2="131.2"/>
		<path class="st4" d="M135.7,131.2l23.8,47.6c3.4,5,6.3,11.9,8.7,17.5c2.3,5.4,4.1,11,4.6,16.8c0.1,1.7,0.2,3.4,0.6,5
			c1,3.4,2.5,6.2,5.1,8.6"/>
		<line class="st4" x1="16.8" y1="42.7" x2="50.4" y2="67.1"/>
		<line class="st4" x1="22" y1="99.6" x2="50.4" y2="67.1"/>
		<line class="st4" x1="71.4" y1="142.1" x2="21.7" y2="142.8"/>
		<line class="st4" x1="22" y1="99.6" x2="21.7" y2="142.8"/>
		<line class="st4" x1="84.9" y1="153.8" x2="100.4" y2="135.7"/>
		<path class="st4" d="M100.4,135.7l27.9,22.9c1.1,0,1.8-0.4,2.9-0.8c1.2-0.4,2.2-1.1,3.3-1.6c1.1-0.5,2.4-0.8,3.6-0.4
			c2.1,0.8,3.1,3.7,5.4,4c0.3,4,0.1,8.1-0.4,12.1"/>
		<line class="st4" x1="127" y1="190.1" x2="151.3" y2="162.4"/>
		<line class="st4" x1="45.3" y1="233.4" x2="82.2" y2="264.9"/>
		<line class="st4" x1="91.7" y1="259.3" x2="82.2" y2="264.9"/>
		<line class="st4" x1="166.7" y1="258.2" x2="170.2" y2="256.3"/>
		<line class="st4" x1="182.1" y1="272" x2="177.5" y2="268.4"/>
		<line class="st4" x1="170.2" y1="256.3" x2="178.2" y2="260"/>
		<line class="st4" x1="177.5" y1="268.4" x2="178.2" y2="260"/>
	</g>
</g>
<g>
	<g>
		<g>
			<path class="st3" d="M95.8,342.7c-0.9-1.8-2-3.2-3.3-4.2c-0.6-0.5-1.3-0.8-2-1s-1.5-0.3-2.3-0.3s-1.6,0.1-2.3,0.3
				c-0.7,0.2-1.4,0.5-2,1c-1.3,0.9-2.4,2.4-3.3,4.2c-0.3-2,0.2-4.1,1.6-5.8c1.4-1.8,3.8-2.6,6-2.6c2.1,0,4.6,0.8,6,2.6
				C95.6,338.6,96.2,340.8,95.8,342.7z"/>
		</g>
		<g>
			<path class="st3" d="M100.9,342.7c-0.7-0.6-1.2-1-1.7-1.1c-0.4-0.1-0.6,0-0.9-0.1c-0.3,0-0.5-0.1-0.9,0.1s-1,0.5-1.7,1.1
				c-0.5-0.8-0.6-1.7-0.2-2.6c0.2-0.5,0.6-0.9,1.1-1.2c0.5-0.3,1.1-0.4,1.6-0.4s1.1,0.1,1.6,0.4s0.9,0.7,1.1,1.2
				C101.5,341,101.5,341.9,100.9,342.7z"/>
		</g>
	</g>
	<g>
		<g>
			<path class="st3" d="M169.7,365c-0.9-1.8-2-3.2-3.3-4.2c-0.6-0.5-1.3-0.8-2-1s-1.5-0.3-2.3-0.3s-1.6,0.1-2.3,0.3
				c-0.7,0.2-1.4,0.5-2,1c-1.3,0.9-2.4,2.4-3.3,4.2c-0.3-2,0.2-4.1,1.6-5.8c1.4-1.8,3.8-2.6,6-2.6c2.1,0,4.6,0.8,6,2.6
				C169.5,360.9,170,363.1,169.7,365z"/>
		</g>
		<g>
			<path class="st3" d="M174.7,365c-0.7-0.6-1.2-1-1.7-1.1c-0.4-0.1-0.6,0-0.9-0.1c-0.3,0-0.5-0.1-0.9,0.1s-1,0.5-1.7,1.1
				c-0.5-0.8-0.6-1.7-0.2-2.6c0.2-0.5,0.6-0.9,1.1-1.2c0.5-0.3,1.1-0.4,1.6-0.4s1.1,0.1,1.6,0.4s0.9,0.7,1.1,1.2
				C175.3,363.3,175.3,364.3,174.7,365z"/>
		</g>
	</g>
	<g>
		<g>
			<path class="st3" d="M61.2,275.3c-0.9-1.8-2-3.2-3.3-4.2c-0.6-0.5-1.3-0.8-2-1s-1.5-0.3-2.3-0.3s-1.6,0.1-2.3,0.3
				c-0.7,0.2-1.4,0.5-2,1c-1.3,0.9-2.4,2.4-3.3,4.2c-0.3-2,0.2-4.1,1.6-5.8c1.4-1.8,3.8-2.6,6-2.6c2.1,0,4.6,0.8,6,2.6
				C61,271.2,61.5,273.4,61.2,275.3z"/>
		</g>
		<g>
			<path class="st3" d="M66.3,275.3c-0.7-0.6-1.2-1-1.7-1.1c-0.4-0.1-0.6,0-0.9-0.1c-0.3,0-0.5-0.1-0.9,0.1s-1,0.5-1.7,1.1
				c-0.5-0.8-0.6-1.7-0.2-2.6c0.2-0.5,0.6-0.9,1.1-1.2c0.5-0.3,1.1-0.4,1.6-0.4s1.1,0.1,1.6,0.4s0.9,0.7,1.1,1.2
				C66.9,273.6,66.8,274.6,66.3,275.3z"/>
		</g>
	</g>
	<g>
		<g>
			<path class="st3" d="M254,266.6c-0.2-1.6,0.3-3.2,1.4-4.6c1.1-1.4,3-2,4.6-2c1.7,0,3.5,0.7,4.6,2s1.6,3,1.4,4.6
				c-0.7-1.4-1.4-2.7-2.5-3.5c-0.3-0.2-0.5-0.3-0.8-0.5c-0.3-0.1-0.6-0.3-0.8-0.3c-0.6-0.2-1.2-0.3-1.9-0.3c-0.7,0-1.3,0.1-1.9,0.3
				c-0.3,0.1-0.6,0.2-0.8,0.3c-0.3,0.2-0.6,0.3-0.8,0.5C255.5,263.9,254.6,265.2,254,266.6z"/>
		</g>
		<g>
			<path class="st3" d="M249.9,266.6c-0.3-0.6-0.3-1.3,0-2c0.2-0.3,0.5-0.7,0.8-0.8s0.8-0.3,1.2-0.3c0.4,0,0.8,0.1,1.2,0.3
				c0.4,0.2,0.7,0.5,0.8,0.8c0.3,0.7,0.3,1.4,0,2c-0.5-0.5-0.8-0.8-1.2-1c-0.3-0.2-0.5-0.1-0.8-0.2c-0.3,0-0.5,0-0.8,0.2
				C250.8,265.8,250.4,266.1,249.9,266.6z"/>
		</g>
	</g>
	<g>
		<g>
			<path class="st3" d="M347.8,344.6c-0.9-1.8-2-3.2-3.3-4.2c-0.6-0.5-1.3-0.8-2-1c-0.7-0.2-1.5-0.3-2.3-0.3c-0.8,0-1.6,0.1-2.3,0.3
				c-0.7,0.2-1.4,0.5-2,1c-1.3,0.9-2.4,2.4-3.3,4.2c-0.3-2,0.2-4.1,1.6-5.8c1.4-1.8,3.8-2.6,6-2.6c2.1,0,4.6,0.8,6,2.6
				C347.6,340.4,348.1,342.6,347.8,344.6z"/>
		</g>
		<g>
			<path class="st3" d="M352.8,344.6c-0.7-0.6-1.2-1-1.7-1.1c-0.4-0.1-0.6,0-0.9-0.1c-0.3,0-0.5-0.1-0.9,0.1c-0.4,0.2-1,0.5-1.7,1.1
				c-0.5-0.8-0.6-1.7-0.2-2.6c0.2-0.5,0.6-0.9,1.1-1.2c0.5-0.3,1.1-0.4,1.6-0.4s1.1,0.1,1.6,0.4c0.5,0.3,0.9,0.7,1.1,1.2
				C353.4,342.9,353.4,343.8,352.8,344.6z"/>
		</g>
	</g>
	<g>
		<g>
			<path class="st3" d="M358.9,381.2c-0.9-1.8-2-3.2-3.3-4.2c-0.6-0.5-1.3-0.8-2-1c-0.7-0.2-1.5-0.3-2.3-0.3c-0.8,0-1.6,0.1-2.3,0.3
				c-0.7,0.2-1.4,0.5-2,1c-1.3,0.9-2.4,2.4-3.3,4.2c-0.3-2,0.2-4.1,1.6-5.8c1.4-1.8,3.8-2.6,6-2.6c2.1,0,4.6,0.8,6,2.6
				C358.7,377.1,359.3,379.2,358.9,381.2z"/>
		</g>
		<g>
			<path class="st3" d="M364,381.2c-0.7-0.6-1.2-1-1.7-1.1c-0.4-0.1-0.6,0-0.9-0.1c-0.3,0-0.5-0.1-0.9,0.1s-1,0.5-1.7,1.1
				c-0.5-0.8-0.6-1.7-0.2-2.6c0.2-0.5,0.6-0.9,1.1-1.2c0.5-0.3,1.1-0.4,1.6-0.4s1.1,0.1,1.6,0.4s0.9,0.7,1.1,1.2
				C364.6,379.5,364.5,380.4,364,381.2z"/>
		</g>
	</g>
	<g>
		<g>
			<path class="st3" d="M38.4,160.4c-0.9-1.8-2-3.2-3.3-4.2c-0.6-0.5-1.3-0.8-2-1s-1.5-0.3-2.3-0.3s-1.6,0.1-2.3,0.3s-1.4,0.5-2,1
				c-1.3,0.9-2.4,2.4-3.3,4.2c-0.3-2,0.2-4.1,1.6-5.8c1.4-1.8,3.8-2.6,6-2.6c2.1,0,4.6,0.8,6,2.6C38.2,156.2,38.7,158.4,38.4,160.4z
				"/>
		</g>
		<g>
			<path class="st3" d="M43.5,160.4c-0.7-0.6-1.2-1-1.7-1.1c-0.4-0.1-0.6,0-0.9-0.1c-0.3,0-0.5-0.1-0.9,0.1c-0.4,0.2-1,0.5-1.7,1.1
				c-0.5-0.8-0.6-1.7-0.2-2.6c0.2-0.5,0.6-0.9,1.1-1.2s1.1-0.4,1.6-0.4s1.1,0.1,1.6,0.4c0.5,0.3,0.9,0.7,1.1,1.2
				C44.1,158.7,44,159.6,43.5,160.4z"/>
		</g>
	</g>
	<g>
		<g>
			<path class="st3" d="M35.2,70.5c-0.9-1.8-2-3.2-3.3-4.2c-0.6-0.5-1.3-0.8-2-1S28.4,65,27.6,65s-1.6,0.1-2.3,0.3
				c-0.7,0.2-1.4,0.5-2,1c-1.3,0.9-2.4,2.4-3.3,4.2c-0.3-2,0.2-4.1,1.6-5.8c1.4-1.8,3.8-2.6,6-2.6c2.1,0,4.6,0.8,6,2.6
				C35,66.4,35.5,68.6,35.2,70.5z"/>
		</g>
		<g>
			<path class="st3" d="M40.2,70.5c-0.7-0.6-1.2-1-1.7-1.1c-0.4-0.1-0.6,0-0.9-0.1c-0.3,0-0.5-0.1-0.9,0.1s-1,0.5-1.7,1.1
				c-0.5-0.8-0.6-1.7-0.2-2.6c0.2-0.5,0.6-0.9,1.1-1.2c0.5-0.3,1.1-0.4,1.6-0.4s1.1,0.1,1.6,0.4s0.9,0.7,1.1,1.2
				C40.8,68.8,40.8,69.8,40.2,70.5z"/>
		</g>
	</g>
	<g>
		<g>
			<path class="st3" d="M58.2,377c-0.3-2.4,0.4-4.9,2.2-7c1.7-2.1,4.6-3.1,7.1-3.1c2.6,0,5.4,1,7.1,3s2.4,4.6,2.2,7
				c-1-2.2-2.2-4.1-3.8-5.3c-0.4-0.3-0.8-0.5-1.2-0.8c-0.5-0.2-0.9-0.4-1.3-0.5c-0.9-0.3-1.9-0.4-2.9-0.4s-2,0.1-2.9,0.4
				c-0.5,0.1-0.9,0.3-1.3,0.5c-0.4,0.3-0.9,0.5-1.2,0.8C60.4,373,59.1,374.9,58.2,377z"/>
		</g>
		<g>
			<path class="st3" d="M51.9,377c-0.5-0.9-0.5-2,0-3c0.3-0.5,0.7-1,1.3-1.3c0.6-0.3,1.2-0.4,1.8-0.5c0.6,0,1.2,0.1,1.8,0.5
				c0.6,0.3,1,0.8,1.3,1.3c0.5,1,0.5,2.1,0,3c-0.7-0.7-1.3-1.3-1.8-1.5c-0.5-0.3-0.8-0.2-1.3-0.3c-0.5,0-0.8,0-1.3,0.3
				C53.2,375.8,52.7,376.3,51.9,377z"/>
		</g>
	</g>
	<circle class="st5" cx="95.6" cy="348.1" r="1.3"/>
	<circle class="st5" cx="36.6" cy="354.2" r="1.3"/>
	<circle class="st5" cx="42.3" cy="377" r="1.3"/>
	<circle class="st5" cx="119.2" cy="346.8" r="1.3"/>
	<circle class="st5" cx="144.6" cy="346.8" r="1.3"/>
	<circle class="st5" cx="163.6" cy="373.4" r="1.3"/>
	<circle class="st5" cx="178.5" cy="350" r="1.3"/>
	<circle class="st5" cx="36.3" cy="367.1" r="1.3"/>
	<circle class="st5" cx="30.1" cy="26.5" r="1.3"/>
	<circle class="st5" cx="28.8" cy="80" r="1.3"/>
	<circle class="st5" cx="49" cy="47" r="1.3"/>
	<circle class="st5" cx="111.8" cy="89.3" r="1.3"/>
	<circle class="st5" cx="46.2" cy="12.7" r="1.3"/>
	<circle class="st5" cx="157.5" cy="272.6" r="1.3"/>
	<circle class="st5" cx="59.9" cy="195" r="1.3"/>
	<circle class="st5" cx="326" cy="379.7" r="1.3"/>
	<circle class="st5" cx="231.5" cy="333.1" r="1.3"/>
	<circle class="st5" cx="255.4" cy="373.4" r="1.3"/>
	<circle class="st5" cx="74.8" cy="288.1" r="1.3"/>
	<circle class="st5" cx="64.1" cy="170.9" r="1.3"/>
	<circle class="st5" cx="158.8" cy="331.8" r="1.3"/>
	<circle class="st5" cx="235.6" cy="322" r="1.3"/>
	<circle class="st5" cx="332.7" cy="358.1" r="1.3"/>
	<circle class="st5" cx="310.7" cy="350.3" r="1.3"/>
	<circle class="st5" cx="280.2" cy="332.5" r="1.3"/>
	<circle class="st5" cx="298.8" cy="362.5" r="1.3"/>
	<circle class="st5" cx="288.4" cy="376" r="1.3"/>
	<circle class="st5" cx="204.2" cy="323.6" r="1.3"/>
	<circle class="st5" cx="74.8" cy="358.8" r="1.3"/>
	<circle class="st5" cx="111.8" cy="366.9" r="1.3"/>
	<circle class="st5" cx="64.1" cy="294.8" r="1.3"/>
	<ellipse transform="matrix(0.9152 -0.403 0.403 0.9152 -70.5084 112.6015)" class="st5" cx="232.3" cy="223.8" rx="1.3" ry="1.3"/>
	<ellipse transform="matrix(0.9152 -0.403 0.403 0.9152 -74.1919 116.5102)" class="st5" cx="239.8" cy="234.6" rx="1.3" ry="1.3"/>
	<circle class="st5" cx="124.8" cy="371.4" r="1.3"/>
	<circle class="st5" cx="18.4" cy="317.3" r="1.3"/>
	<circle class="st5" cx="343.2" cy="349.4" r="1.3"/>
	<circle class="st5" cx="20.8" cy="239.2" r="1.3"/>
	<circle class="st5" cx="19.5" cy="252.4" r="1.3"/>
	<circle class="st5" cx="193.6" cy="360.4" r="1.3"/>
	<circle class="st5" cx="214.4" cy="378.2" r="1.3"/>
	<circle class="st5" cx="366.4" cy="349" r="1.3"/>
	<circle class="st5" cx="21.9" cy="206" r="1.3"/>
	<circle class="st5" cx="375" cy="372.5" r="1.3"/>
	<circle class="st5" cx="51.8" cy="153.5" r="1.3"/>
	<circle class="st5" cx="70.1" cy="152.5" r="1.3"/>
	<circle class="st5" cx="127.6" cy="179.4" r="1.3"/>
	<circle class="st5" cx="140.5" cy="150.7" r="1.3"/>
	<circle class="st5" cx="72.6" cy="164.7" r="1.3"/>
	<circle class="st5" cx="118.6" cy="161.2" r="1.3"/>
	<circle class="st5" cx="34.7" cy="195" r="1.3"/>
	<circle class="st5" cx="102.4" cy="161.3" r="1.3"/>
	<circle class="st5" cx="101.1" cy="151.2" r="1.3"/>
	<circle class="st5" cx="171.8" cy="268.9" r="1.3"/>
	<circle class="st5" cx="32.2" cy="162.6" r="1.3"/>
	<circle class="st5" cx="404" cy="372.5" r="1.3"/>
	<circle class="st1" cx="110.8" cy="345.6" r="0.6"/>
	<circle class="st1" cx="129.5" cy="381.2" r="0.6"/>
	<circle class="st1" cx="166.8" cy="340.2" r="0.6"/>
	<circle class="st1" cx="43.8" cy="356.3" r="0.6"/>
	<circle class="st1" cx="44.4" cy="349.4" r="0.6"/>
	<circle class="st1" cx="100.8" cy="373.5" r="0.6"/>
	<circle class="st1" cx="80.9" cy="370.8" r="0.6"/>
	<circle class="st1" cx="78.9" cy="353.6" r="0.6"/>
	<circle class="st1" cx="173.4" cy="331.8" r="0.6"/>
	<circle class="st1" cx="162.3" cy="337.7" r="0.6"/>
	<circle class="st1" cx="187.7" cy="349.9" r="0.6"/>
	<circle class="st1" cx="172.8" cy="373.4" r="0.6"/>
	<circle class="st1" cx="145" cy="329.8" r="0.6"/>
	<circle class="st1" cx="183.2" cy="359.7" r="0.6"/>
	<circle class="st1" cx="193" cy="337.1" r="0.6"/>
	<circle class="st1" cx="194.2" cy="346.1" r="0.6"/>
	<circle class="st1" cx="218.8" cy="378.9" r="0.6"/>
	<circle class="st1" cx="228.8" cy="322.3" r="0.6"/>
	<circle class="st1" cx="205.8" cy="318.6" r="0.6"/>
	<circle class="st1" cx="201" cy="327.1" r="0.6"/>
	<circle class="st1" cx="17.7" cy="255.4" r="0.6"/>
	<circle class="st1" cx="315.2" cy="384.4" r="0.6"/>
	<circle class="st1" cx="37.9" cy="48.4" r="0.6"/>
	<circle class="st1" cx="119.8" cy="98.1" r="0.6"/>
	<circle class="st1" cx="143.5" cy="137" r="0.6"/>
	<circle class="st1" cx="101.1" cy="81.8" r="0.6"/>
	<circle class="st1" cx="24.7" cy="43.3" r="0.6"/>
	<circle class="st1" cx="32.3" cy="74" r="0.6"/>
	<circle class="st1" cx="38.5" cy="41.4" r="0.6"/>
	<circle class="st1" cx="54" cy="23.9" r="0.6"/>
	<circle class="st1" cx="24.7" cy="10.8" r="0.6"/>
	<circle class="st5" cx="134.4" cy="120.6" r="1.3"/>
	<circle class="st5" cx="157.8" cy="165.4" r="1.3"/>
	<circle class="st1" cx="129" cy="104.9" r="0.6"/>
	<circle class="st1" cx="82" cy="66.3" r="0.6"/>
	<circle class="st1" cx="236.8" cy="329.7" r="0.6"/>
	<circle class="st1" cx="230" cy="340.6" r="0.6"/>
	<circle class="st1" cx="53" cy="172.2" r="0.6"/>
	<circle class="st1" cx="53.6" cy="165.3" r="0.6"/>
	<circle class="st1" cx="255.4" cy="254.9" r="0.6"/>
	<circle class="st1" cx="260.4" cy="268.9" r="0.6"/>
	<circle class="st1" cx="90.4" cy="269" r="0.6"/>
	<circle class="st1" cx="22.7" cy="315.1" r="0.6"/>
	<circle class="st1" cx="76.4" cy="279.9" r="0.6"/>
	<circle class="st1" cx="70.1" cy="291.4" r="0.6"/>
	<circle class="st1" cx="224.7" cy="219.1" r="0.6"/>
	<circle class="st1" cx="101.4" cy="329.8" r="0.6"/>
	<circle class="st1" cx="148.5" cy="146.5" r="0.6"/>
	<circle class="st1" cx="172.1" cy="263.7" r="0.6"/>
	<circle class="st1" cx="89.8" cy="359.2" r="0.6"/>
	<circle class="st1" cx="108.5" cy="378.1" r="0.6"/>
	<circle class="st1" cx="82.1" cy="284" r="0.6"/>
	<circle class="st1" cx="147.9" cy="271.1" r="0.6"/>
	<circle class="st1" cx="115.3" cy="372.8" r="0.6"/>
	<circle class="st1" cx="164.7" cy="176.3" r="0.6"/>
	<circle class="st1" cx="351.1" cy="347.7" r="0.6"/>
	<circle class="st1" cx="365.1" cy="368.1" r="0.6"/>
	<circle class="st1" cx="377.2" cy="353.6" r="0.6"/>
	<circle class="st1" cx="25.4" cy="237.9" r="0.6"/>
	<circle class="st1" cx="31.3" cy="204.7" r="0.6"/>
	<circle class="st1" cx="314.1" cy="341.7" r="0.6"/>
	<circle class="st1" cx="322.9" cy="349.4" r="0.6"/>
	<circle class="st1" cx="294.2" cy="379.1" r="0.6"/>
	<circle class="st1" cx="287.5" cy="361.7" r="0.6"/>
	<circle class="st1" cx="328.8" cy="373" r="0.6"/>
	<circle class="st1" cx="319.2" cy="355.8" r="0.6"/>
	<circle class="st1" cx="340" cy="364.2" r="0.6"/>
	<circle class="st1" cx="288.4" cy="337.3" r="0.6"/>
	<circle class="st1" cx="261.5" cy="360.4" r="0.6"/>
	<circle class="st1" cx="278.2" cy="379.7" r="0.6"/>
	<circle class="st1" cx="307.5" cy="362.9" r="0.6"/>
	<circle class="st1" cx="319" cy="378.3" r="0.6"/>
	<circle class="st1" cx="20.3" cy="145.3" r="0.6"/>
	<circle class="st1" cx="138.1" cy="166.7" r="0.6"/>
	<circle class="st1" cx="24.8" cy="191.5" r="0.6"/>
	<circle class="st1" cx="39.9" cy="150.6" r="0.6"/>
	<circle class="st1" cx="152.3" cy="173.3" r="0.6"/>
	<circle class="st1" cx="145.7" cy="159" r="0.6"/>
	<circle class="st1" cx="119.2" cy="174.7" r="0.6"/>
	<circle class="st1" cx="134.7" cy="145.8" r="0.6"/>
	<circle class="st1" cx="61.5" cy="145.9" r="0.6"/>
	<circle class="st1" cx="41.5" cy="171.1" r="0.6"/>
	<circle class="st1" cx="36" cy="188.2" r="0.6"/>
	<circle class="st1" cx="108.9" cy="164.7" r="0.6"/>
	<circle class="st1" cx="110.2" cy="179" r="0.6"/>
	<circle class="st1" cx="342.6" cy="330.9" r="0.6"/>
	<circle class="st1" cx="319.8" cy="316.9" r="0.6"/>
	<circle class="st1" cx="82.8" cy="144.7" r="0.6"/>
	<circle class="st1" cx="332.1" cy="321.3" r="0.6"/>
	<circle class="st1" cx="371.9" cy="359.8" r="0.6"/>
	<circle class="st1" cx="351.7" cy="369.7" r="0.6"/>
	<circle class="st1" cx="384.4" cy="374.5" r="0.6"/>
	<circle class="st1" cx="395.4" cy="377.3" r="0.6"/>
	<circle class="st1" cx="160.1" cy="278.6" r="0.6"/>
	<circle class="st1" cx="63.5" cy="200.9" r="0.6"/>
	<circle class="st1" cx="66.9" cy="159.6" r="0.6"/>
	<circle class="st1" cx="174.7" cy="287.8" r="0.6"/>
	<circle class="st1" cx="164.7" cy="268.6" r="0.6"/>
	<g>
		<g>
			<path class="st6" d="M314.3,365.3c0.4,1.8,0.6,3.7,0.8,5.5c0.1,1.8,0.2,3.7,0,5.5c-0.4-1.8-0.6-3.7-0.8-5.5
				C314.2,369,314.2,367.2,314.3,365.3z"/>
		</g>
		<g>
			<path class="st6" d="M310.7,366.1c1,1.6,1.8,3.3,2.6,5c0.7,1.7,1.4,3.4,1.9,5.3c-1-1.6-1.8-3.3-2.6-5
				C311.8,369.6,311.2,367.9,310.7,366.1z"/>
		</g>
		<g>
			<path class="st6" d="M316.9,368.1c0,1.4-0.3,2.8-0.6,4.2s-0.7,2.7-1.3,4.1c0-1.4,0.3-2.8,0.6-4.2
				C316,370.7,316.4,369.4,316.9,368.1z"/>
		</g>
		<g>
			<path class="st6" d="M319.8,367.5c-0.4,1.4-0.9,2.8-1.6,4.1c-0.6,1.3-1.3,2.6-2.2,3.8c0.4-1.4,0.9-2.8,1.6-4.1
				C318.2,369.9,318.9,368.6,319.8,367.5z"/>
		</g>
		<g>
			<path class="st6" d="M308.6,367.7c1.3,1.3,2.5,2.7,3.5,4.1c1.1,1.5,2.1,2.9,2.9,4.6c-1.3-1.3-2.5-2.7-3.5-4.1
				C310.5,370.8,309.5,369.3,308.6,367.7z"/>
		</g>
		<g>
			<path class="st6" d="M308.3,370.8c1.3,0.7,2.5,1.6,3.6,2.5s2.2,1.9,3.1,3.1c-1.3-0.7-2.5-1.6-3.6-2.5
				C310.4,372.9,309.3,372,308.3,370.8z"/>
		</g>
		<g>
			<path class="st6" d="M321.3,370.8c-0.8,1.1-1.8,2.1-2.8,3s-2.1,1.8-3.3,2.5c0.8-1.1,1.8-2.1,2.8-3S320.1,371.5,321.3,370.8z"/>
		</g>
		<g>
			<path class="st6" d="M316,364.3c0.1,2,0.1,4-0.1,6c-0.2,2-0.4,4-0.8,6c-0.1-2-0.1-4,0.1-6C315.4,368.3,315.6,366.3,316,364.3z"/>
		</g>
		<g>
			<path class="st6" d="M307.4,374.1c1.4,0.1,2.7,0.4,3.9,0.8c1.3,0.4,2.5,0.8,3.7,1.5c-1.4-0.1-2.7-0.4-3.9-0.8
				C309.9,375.2,308.6,374.7,307.4,374.1z"/>
		</g>
		<g>
			<path class="st6" d="M322.9,372.6c-1.2,0.9-2.4,1.6-3.7,2.2c-1.3,0.6-2.6,1.2-4.1,1.5c1.2-0.9,2.4-1.6,3.7-2.2
				C320.1,373.5,321.5,372.9,322.9,372.6z"/>
		</g>
	</g>
	<g>
		<g>
			<path class="st6" d="M136.4,333.3c0.4,1.8,0.6,3.7,0.8,5.5c0.1,1.8,0.2,3.7,0,5.5c-0.4-1.8-0.6-3.7-0.8-5.5
				C136.3,337.1,136.2,335.2,136.4,333.3z"/>
		</g>
		<g>
			<path class="st6" d="M132.7,334.1c1,1.6,1.8,3.3,2.6,5c0.7,1.7,1.4,3.4,1.9,5.3c-1-1.6-1.8-3.3-2.6-5S133.2,336,132.7,334.1z"/>
		</g>
		<g>
			<path class="st6" d="M139,336.1c0,1.4-0.3,2.8-0.6,4.2c-0.3,1.4-0.7,2.7-1.3,4.1c0-1.4,0.3-2.8,0.6-4.2S138.4,337.4,139,336.1z"
				/>
		</g>
		<g>
			<path class="st6" d="M141.8,335.5c-0.4,1.4-0.9,2.8-1.6,4.1c-0.6,1.3-1.3,2.6-2.2,3.8c0.4-1.4,0.9-2.8,1.6-4.1
				C140.2,338,140.9,336.7,141.8,335.5z"/>
		</g>
		<g>
			<path class="st6" d="M130.6,335.7c1.3,1.3,2.5,2.7,3.5,4.1c1.1,1.5,2.1,2.9,2.9,4.6c-1.3-1.3-2.5-2.7-3.5-4.1
				C132.5,338.8,131.5,337.3,130.6,335.7z"/>
		</g>
		<g>
			<path class="st6" d="M130.4,338.9c1.3,0.7,2.5,1.6,3.6,2.5s2.2,1.9,3.1,3.1c-1.3-0.7-2.5-1.6-3.6-2.5
				C132.4,341,131.3,340,130.4,338.9z"/>
		</g>
		<g>
			<path class="st6" d="M143.3,338.9c-0.8,1.1-1.8,2.1-2.8,3s-2.1,1.8-3.3,2.5c0.8-1.1,1.8-2.1,2.8-3
				C141,340.4,142.1,339.6,143.3,338.9z"/>
		</g>
		<g>
			<path class="st6" d="M138,332.4c0.1,2,0.1,4-0.1,6c-0.2,2-0.4,4-0.8,6c-0.1-2-0.1-4,0.1-6C137.4,336.4,137.6,334.4,138,332.4z"/>
		</g>
		<g>
			<path class="st6" d="M129.5,342.1c1.4,0.1,2.7,0.4,3.9,0.8c1.3,0.4,2.5,0.8,3.7,1.5c-1.4-0.1-2.7-0.4-3.9-0.8
				C131.9,343.2,130.6,342.8,129.5,342.1z"/>
		</g>
		<g>
			<path class="st6" d="M144.9,340.6c-1.2,0.9-2.4,1.6-3.7,2.2s-2.6,1.2-4.1,1.5c1.2-0.9,2.4-1.6,3.7-2.2
				C142.2,341.6,143.5,341,144.9,340.6z"/>
		</g>
	</g>
	<g>
		<g>
			<path class="st6" d="M67.3,335c0.4,1.8,0.6,3.7,0.8,5.5c0.1,1.8,0.2,3.7,0,5.5c-0.4-1.8-0.6-3.7-0.8-5.5
				C67.2,338.7,67.2,336.8,67.3,335z"/>
		</g>
		<g>
			<path class="st6" d="M63.7,335.7c1,1.6,1.8,3.3,2.6,5c0.7,1.7,1.4,3.4,1.9,5.3c-1-1.6-1.8-3.3-2.6-5
				C64.8,339.3,64.2,337.6,63.7,335.7z"/>
		</g>
		<g>
			<path class="st6" d="M70,337.7c0,1.4-0.3,2.8-0.6,4.2c-0.3,1.4-0.7,2.7-1.3,4.1c0-1.4,0.3-2.8,0.6-4.2
				C69,340.4,69.4,339,70,337.7z"/>
		</g>
		<g>
			<path class="st6" d="M72.8,337.1c-0.4,1.4-0.9,2.8-1.6,4.1c-0.6,1.3-1.3,2.6-2.2,3.8c0.4-1.4,0.9-2.8,1.6-4.1
				C71.2,339.6,71.9,338.3,72.8,337.1z"/>
		</g>
		<g>
			<path class="st6" d="M61.6,337.3c1.3,1.3,2.5,2.7,3.5,4.1c1.1,1.5,2.1,2.9,2.9,4.6c-1.3-1.3-2.5-2.7-3.5-4.1
				C63.5,340.4,62.5,338.9,61.6,337.3z"/>
		</g>
		<g>
			<path class="st6" d="M61.3,340.5c1.3,0.7,2.5,1.6,3.6,2.5c1.1,0.9,2.2,1.9,3.1,3.1c-1.3-0.7-2.5-1.6-3.6-2.5
				C63.4,342.6,62.3,341.6,61.3,340.5z"/>
		</g>
		<g>
			<path class="st6" d="M74.3,340.5c-0.8,1.1-1.8,2.1-2.8,3s-2.1,1.8-3.3,2.5c0.8-1.1,1.8-2.1,2.8-3C72,342,73.1,341.2,74.3,340.5z"
				/>
		</g>
		<g>
			<path class="st6" d="M69,334c0.1,2,0.1,4-0.1,6s-0.4,4-0.8,6c-0.1-2-0.1-4,0.1-6C68.4,338,68.6,336,69,334z"/>
		</g>
		<g>
			<path class="st6" d="M60.4,343.7c1.4,0.1,2.7,0.4,3.9,0.8c1.3,0.4,2.5,0.8,3.7,1.5c-1.4-0.1-2.7-0.4-3.9-0.8
				C62.9,344.8,61.6,344.4,60.4,343.7z"/>
		</g>
		<g>
			<path class="st6" d="M75.9,342.3c-1.2,0.9-2.4,1.6-3.7,2.2c-1.3,0.6-2.6,1.2-4.1,1.5c1.2-0.9,2.4-1.6,3.7-2.2
				C73.1,343.2,74.5,342.6,75.9,342.3z"/>
		</g>
	</g>
	<g>
		<g>
			<path class="st6" d="M46.8,179.9c0.4,1.3,0.5,2.7,0.7,4.1c0.1,1.4,0.1,2.7-0.1,4.1c-0.4-1.3-0.5-2.7-0.7-4.1
				C46.6,182.6,46.6,181.3,46.8,179.9z"/>
		</g>
		<g>
			<path class="st6" d="M44.1,180.5c0.8,1.1,1.4,2.4,2,3.6c0.5,1.3,1,2.6,1.3,3.9c-0.8-1.1-1.4-2.4-2-3.6
				C44.8,183.2,44.3,181.9,44.1,180.5z"/>
		</g>
		<g>
			<path class="st6" d="M48.7,181.9c0.1,1.1-0.1,2.1-0.3,3.1s-0.5,2-1.1,3c-0.1-1.1,0.1-2.1,0.3-3.1
				C47.9,183.9,48.2,182.9,48.7,181.9z"/>
		</g>
		<g>
			<path class="st6" d="M50.8,181.5c-0.2,1.1-0.6,2.1-1.1,3.1s-1,1.9-1.7,2.8c0.2-1.1,0.6-2.1,1.1-3.1
				C49.6,183.3,50.1,182.3,50.8,181.5z"/>
		</g>
		<g>
			<path class="st6" d="M42.5,181.6c1,0.9,1.9,1.9,2.7,3s1.5,2.2,2.1,3.4c-1-0.9-1.9-1.9-2.7-3C43.8,184,43.1,182.9,42.5,181.6z"/>
		</g>
		<g>
			<path class="st6" d="M42.3,184c1,0.5,1.9,1.1,2.7,1.8s1.6,1.4,2.3,2.3c-1-0.5-1.9-1.1-2.7-1.8C43.8,185.6,43,184.9,42.3,184z"/>
		</g>
		<g>
			<path class="st6" d="M51.9,184c-0.6,0.9-1.3,1.6-2,2.3c-0.8,0.7-1.6,1.3-2.5,1.8c0.6-0.9,1.3-1.6,2-2.3
				C50.1,185.1,50.9,184.4,51.9,184z"/>
		</g>
		<g>
			<path class="st6" d="M48,179.2c0.2,1.5,0.1,3,0,4.5s-0.3,3-0.7,4.4c-0.2-1.5-0.1-3,0-4.5C47.4,182.1,47.6,180.6,48,179.2z"/>
		</g>
		<g>
			<path class="st6" d="M41.7,186.4c1,0,2,0.2,2.9,0.5s1.9,0.6,2.7,1.2c-1,0-2-0.2-2.9-0.5C43.4,187.3,42.5,187,41.7,186.4z"/>
		</g>
		<g>
			<path class="st6" d="M53.1,185.3c-0.8,0.7-1.8,1.3-2.7,1.7c-1,0.5-2,0.9-3,1c0.8-0.7,1.8-1.3,2.7-1.7
				C51,185.9,52,185.5,53.1,185.3z"/>
		</g>
	</g>
	<g>
		<g>
			<path class="st6" d="M243.9,242.6c0.4,1.3,0.5,2.7,0.7,4.1c0.1,1.4,0.1,2.7-0.1,4.1c-0.4-1.3-0.5-2.7-0.7-4.1
				C243.8,245.3,243.7,243.9,243.9,242.6z"/>
		</g>
		<g>
			<path class="st6" d="M241.2,243.1c0.8,1.1,1.4,2.4,2,3.6c0.5,1.3,1,2.6,1.3,3.9c-0.8-1.1-1.4-2.4-2-3.6
				C242,245.8,241.5,244.5,241.2,243.1z"/>
		</g>
		<g>
			<path class="st6" d="M245.9,244.6c0.1,1.1-0.1,2.1-0.3,3.1s-0.5,2-1.1,3c-0.1-1.1,0.1-2.1,0.3-3.1S245.3,245.6,245.9,244.6z"/>
		</g>
		<g>
			<path class="st6" d="M248,244.2c-0.2,1.1-0.6,2.1-1.1,3.1s-1,1.9-1.7,2.8c0.2-1.1,0.6-2.1,1.1-3.1C246.7,246,247.2,245,248,244.2
				z"/>
		</g>
		<g>
			<path class="st6" d="M239.7,244.3c1,0.9,1.9,1.9,2.7,3s1.5,2.2,2.1,3.4c-1-0.9-1.9-1.9-2.7-3C241,246.7,240.3,245.6,239.7,244.3z
				"/>
		</g>
		<g>
			<path class="st6" d="M239.5,246.6c1,0.5,1.9,1.1,2.7,1.8c0.8,0.7,1.6,1.4,2.3,2.3c-1-0.5-1.9-1.1-2.7-1.8
				C240.9,248.3,240.1,247.6,239.5,246.6z"/>
		</g>
		<g>
			<path class="st6" d="M249.1,246.6c-0.6,0.9-1.3,1.6-2,2.3c-0.8,0.7-1.6,1.3-2.5,1.8c0.6-0.9,1.3-1.6,2-2.3
				S248.1,247.1,249.1,246.6z"/>
		</g>
		<g>
			<path class="st6" d="M245.2,241.9c0.2,1.5,0.1,3,0,4.5c-0.1,1.5-0.3,3-0.7,4.4c-0.2-1.5-0.1-3,0-4.5
				C244.6,244.8,244.8,243.3,245.2,241.9z"/>
		</g>
		<g>
			<path class="st6" d="M238.8,249.1c1,0,2,0.2,2.9,0.5c0.9,0.3,1.9,0.6,2.7,1.2c-1,0-2-0.2-2.9-0.5
				C240.6,250,239.7,249.6,238.8,249.1z"/>
		</g>
		<g>
			<path class="st6" d="M250.2,248c-0.8,0.7-1.8,1.3-2.7,1.7c-1,0.5-2,0.9-3,1c0.8-0.7,1.8-1.3,2.7-1.7
				C248.2,248.6,249.2,248.2,250.2,248z"/>
		</g>
	</g>
	<g>
		<g>
			<path class="st6" d="M40.2,26.9c0.4,1.3,0.5,2.7,0.7,4.1c0.1,1.4,0.1,2.7-0.1,4.1c-0.4-1.3-0.5-2.7-0.7-4.1
				C40.1,29.7,40,28.3,40.2,26.9z"/>
		</g>
		<g>
			<path class="st6" d="M37.5,27.5c0.8,1.1,1.4,2.4,2,3.6c0.5,1.3,1,2.6,1.3,3.9c-0.8-1.1-1.4-2.4-2-3.6
				C38.3,30.2,37.8,28.9,37.5,27.5z"/>
		</g>
		<g>
			<path class="st6" d="M42.2,29c0.1,1.1-0.1,2.1-0.3,3.1c-0.2,1-0.5,2-1.1,3C40.7,34,40.9,33,41.1,32C41.4,30.9,41.6,29.9,42.2,29z
				"/>
		</g>
		<g>
			<path class="st6" d="M44.3,28.5c-0.2,1.1-0.6,2.1-1.1,3.1c-0.5,1-1,1.9-1.7,2.8c0.2-1.1,0.6-2.1,1.1-3.1
				C43,30.3,43.5,29.4,44.3,28.5z"/>
		</g>
		<g>
			<path class="st6" d="M36,28.7c1,0.9,1.9,1.9,2.7,3c0.8,1.1,1.5,2.2,2.1,3.4c-1-0.9-1.9-1.9-2.7-3C37.3,31,36.6,29.9,36,28.7z"/>
		</g>
		<g>
			<path class="st6" d="M35.8,31c1,0.5,1.9,1.1,2.7,1.8s1.6,1.4,2.3,2.3c-1-0.5-1.9-1.1-2.7-1.8C37.2,32.7,36.4,31.9,35.8,31z"/>
		</g>
		<g>
			<path class="st6" d="M45.4,31c-0.6,0.9-1.3,1.6-2,2.3c-0.8,0.7-1.6,1.3-2.5,1.8c0.6-0.9,1.3-1.6,2-2.3S44.4,31.5,45.4,31z"/>
		</g>
		<g>
			<path class="st6" d="M41.5,26.2c0.2,1.5,0.1,3,0,4.5c-0.1,1.5-0.3,3-0.7,4.4c-0.2-1.5-0.1-3,0-4.5C40.9,29.2,41.1,27.7,41.5,26.2
				z"/>
		</g>
		<g>
			<path class="st6" d="M35.1,33.4c1,0,2,0.2,2.9,0.5s1.9,0.6,2.7,1.2c-1,0-2-0.2-2.9-0.5S36,34,35.1,33.4z"/>
		</g>
		<g>
			<path class="st6" d="M46.6,32.3c-0.8,0.7-1.8,1.3-2.7,1.7c-1,0.5-2,0.9-3,1c0.8-0.7,1.8-1.3,2.7-1.7S45.5,32.5,46.6,32.3z"/>
		</g>
	</g>
	<g>
		<g>
			<path class="st6" d="M222.8,205.4c0.4,1.3,0.5,2.7,0.7,4.1c0.1,1.4,0.1,2.7-0.1,4.1c-0.4-1.3-0.5-2.7-0.7-4.1
				C222.6,208.1,222.6,206.8,222.8,205.4z"/>
		</g>
		<g>
			<path class="st6" d="M220.1,206c0.8,1.1,1.4,2.4,2,3.6c0.5,1.3,1,2.6,1.3,3.9c-0.8-1.1-1.4-2.4-2-3.6
				C220.8,208.6,220.3,207.4,220.1,206z"/>
		</g>
		<g>
			<path class="st6" d="M224.7,207.4c0.1,1.1-0.1,2.1-0.3,3.1s-0.5,2-1.1,3c-0.1-1.1,0.1-2.1,0.3-3.1
				C223.9,209.4,224.2,208.4,224.7,207.4z"/>
		</g>
		<g>
			<path class="st6" d="M226.8,207c-0.2,1.1-0.6,2.1-1.1,3.1s-1,1.9-1.7,2.8c0.2-1.1,0.6-2.1,1.1-3.1
				C225.6,208.8,226.1,207.8,226.8,207z"/>
		</g>
		<g>
			<path class="st6" d="M218.5,207.1c1,0.9,1.9,1.9,2.7,3s1.5,2.2,2.1,3.4c-1-0.9-1.9-1.9-2.7-3
				C219.8,209.5,219.1,208.4,218.5,207.1z"/>
		</g>
		<g>
			<path class="st6" d="M218.3,209.5c1,0.5,1.9,1.1,2.7,1.8c0.8,0.7,1.6,1.4,2.3,2.3c-1-0.5-1.9-1.1-2.7-1.8S219,210.4,218.3,209.5z
				"/>
		</g>
		<g>
			<path class="st6" d="M227.9,209.5c-0.6,0.9-1.3,1.6-2,2.3c-0.8,0.7-1.6,1.3-2.5,1.8c0.6-0.9,1.3-1.6,2-2.3
				S226.9,209.9,227.9,209.5z"/>
		</g>
		<g>
			<path class="st6" d="M224,204.7c0.2,1.5,0.1,3,0,4.5s-0.3,3-0.7,4.4c-0.2-1.5-0.1-3,0-4.5S223.6,206.1,224,204.7z"/>
		</g>
		<g>
			<path class="st6" d="M217.7,211.9c1,0,2,0.2,2.9,0.5s1.9,0.6,2.7,1.2c-1,0-2-0.2-2.9-0.5C219.4,212.8,218.5,212.4,217.7,211.9z"
				/>
		</g>
		<g>
			<path class="st6" d="M229.1,210.8c-0.8,0.7-1.8,1.3-2.7,1.7c-1,0.5-2,0.9-3,1c0.8-0.7,1.8-1.3,2.7-1.7
				C227,211.4,228,211,229.1,210.8z"/>
		</g>
	</g>
	<g>
		<g>
			<path class="st6" d="M234.2,295.8c0.4,1.3,0.5,2.7,0.7,4.1c0.1,1.4,0.1,2.7-0.1,4.1c-0.4-1.3-0.5-2.7-0.7-4.1
				C234,298.6,234,297.2,234.2,295.8z"/>
		</g>
		<g>
			<path class="st6" d="M231.5,296.4c0.8,1.1,1.4,2.4,2,3.6c0.5,1.3,1,2.6,1.3,3.9c-0.8-1.1-1.4-2.4-2-3.6
				C232.2,299.1,231.8,297.8,231.5,296.4z"/>
		</g>
		<g>
			<path class="st6" d="M236.1,297.8c0.1,1.1-0.1,2.1-0.3,3.1s-0.5,2-1.1,3c-0.1-1.1,0.1-2.1,0.3-3.1
				C235.3,299.8,235.6,298.8,236.1,297.8z"/>
		</g>
		<g>
			<path class="st6" d="M238.2,297.4c-0.2,1.1-0.6,2.1-1.1,3.1s-1,1.9-1.7,2.8c0.2-1.1,0.6-2.1,1.1-3.1
				C237,299.2,237.5,298.3,238.2,297.4z"/>
		</g>
		<g>
			<path class="st6" d="M230,297.6c1,0.9,1.9,1.9,2.7,3s1.5,2.2,2.1,3.4c-1-0.9-1.9-1.9-2.7-3S230.5,298.8,230,297.6z"/>
		</g>
		<g>
			<path class="st6" d="M229.8,299.9c1,0.5,1.9,1.1,2.7,1.8c0.8,0.7,1.6,1.4,2.3,2.3c-1-0.5-1.9-1.1-2.7-1.8
				C231.2,301.5,230.4,300.8,229.8,299.9z"/>
		</g>
		<g>
			<path class="st6" d="M239.3,299.9c-0.6,0.9-1.3,1.6-2,2.3c-0.8,0.7-1.6,1.3-2.5,1.8c0.6-0.9,1.3-1.6,2-2.3
				C237.6,301,238.4,300.3,239.3,299.9z"/>
		</g>
		<g>
			<path class="st6" d="M235.4,295.1c0.2,1.5,0.1,3,0,4.5s-0.3,3-0.7,4.4c-0.2-1.5-0.1-3,0-4.5C234.8,298,235,296.6,235.4,295.1z"/>
		</g>
		<g>
			<path class="st6" d="M229.1,302.3c1,0,2,0.2,2.9,0.5s1.9,0.6,2.7,1.2c-1,0-2-0.2-2.9-0.5C230.9,303.2,229.9,302.9,229.1,302.3z"
				/>
		</g>
		<g>
			<path class="st6" d="M240.5,301.2c-0.8,0.7-1.8,1.3-2.7,1.7c-1,0.5-2,0.9-3,1c0.8-0.7,1.8-1.3,2.7-1.7
				C238.4,301.8,239.4,301.4,240.5,301.2z"/>
		</g>
	</g>
	<g>
		<g>
			<path class="st6" d="M27.8,171.1c0.2,1.9,0.1,3.8,0,5.7c-0.1,1.9-0.3,3.8-0.8,5.6c-0.2-1.9-0.1-3.8,0-5.7
				C27.2,174.8,27.4,172.9,27.8,171.1z"/>
		</g>
		<g>
			<path class="st6" d="M31.5,171.9c-0.5,1.9-1.2,3.7-1.9,5.4c-0.8,1.8-1.6,3.5-2.6,5.1c0.5-1.9,1.2-3.7,1.9-5.4
				C29.7,175.2,30.5,173.5,31.5,171.9z"/>
		</g>
		<g>
			<path class="st6" d="M25.1,173.9c0.6,1.4,1,2.8,1.3,4.2c0.3,1.4,0.6,2.9,0.6,4.3c-0.6-1.4-1-2.8-1.3-4.2
				C25.4,176.8,25.1,175.4,25.1,173.9z"/>
		</g>
		<g>
			<path class="st6" d="M22.2,173.3c0.9,1.2,1.6,2.5,2.3,3.9c0.6,1.4,1.2,2.7,1.6,4.2c-0.9-1.2-1.6-2.5-2.3-3.9
				C23.1,176.1,22.6,174.8,22.2,173.3z"/>
		</g>
		<g>
			<path class="st6" d="M33.7,173.5c-0.9,1.7-1.9,3.2-3,4.7s-2.3,2.9-3.6,4.2c0.9-1.7,1.9-3.2,3-4.7S32.3,174.8,33.7,173.5z"/>
		</g>
		<g>
			<path class="st6" d="M33.9,176.7c-1,1.2-2.1,2.2-3.2,3.1c-1.2,0.9-2.4,1.8-3.7,2.5c1-1.2,2.1-2.2,3.2-3.1
				C31.4,178.3,32.6,177.4,33.9,176.7z"/>
		</g>
		<g>
			<path class="st6" d="M20.7,176.7c1.3,0.7,2.4,1.6,3.4,2.6c1.1,1,2.1,1.9,2.9,3.1c-1.3-0.7-2.4-1.6-3.4-2.6
				C22.5,178.9,21.5,177.9,20.7,176.7z"/>
		</g>
		<g>
			<path class="st6" d="M26.1,170.1c0.5,2,0.7,4.1,0.8,6.1c0.1,2.1,0.2,4.1,0.1,6.2c-0.5-2-0.7-4.1-0.8-6.1
				C26,174.2,25.9,172.2,26.1,170.1z"/>
		</g>
		<g>
			<path class="st6" d="M34.9,180.1c-1.2,0.7-2.5,1.1-3.8,1.5c-1.3,0.4-2.6,0.7-4,0.8c1.2-0.7,2.5-1.1,3.8-1.5
				C32.2,180.5,33.5,180.2,34.9,180.1z"/>
		</g>
		<g>
			<path class="st6" d="M19,178.5c1.5,0.4,2.8,1,4.2,1.6c1.3,0.7,2.6,1.4,3.8,2.3c-1.5-0.4-2.8-1-4.2-1.6
				C21.5,180.2,20.2,179.5,19,178.5z"/>
		</g>
	</g>
	<g class="st7">
		<g>
			<path class="st6" d="M388,359.7c0.2,1.7,0.1,3.4,0,5.1s-0.3,3.4-0.7,5.1c-0.2-1.7-0.1-3.4,0-5.1S387.6,361.4,388,359.7z"/>
		</g>
		<g>
			<path class="st6" d="M391.4,360.4c-0.4,1.7-1,3.3-1.7,4.9c-0.7,1.6-1.4,3.1-2.4,4.6c0.4-1.7,1-3.3,1.7-4.9
				S390.4,361.9,391.4,360.4z"/>
		</g>
		<g>
			<path class="st6" d="M385.6,362.2c0.6,1.2,0.9,2.5,1.2,3.8c0.3,1.3,0.5,2.6,0.5,3.9c-0.6-1.2-0.9-2.5-1.2-3.8
				C385.8,364.9,385.5,363.6,385.6,362.2z"/>
		</g>
		<g>
			<path class="st6" d="M382.9,361.7c0.9,1.1,1.5,2.3,2.1,3.5s1.1,2.5,1.4,3.8c-0.9-1.1-1.5-2.3-2.1-3.5
				C383.7,364.3,383.2,363,382.9,361.7z"/>
		</g>
		<g>
			<path class="st6" d="M393.3,361.9c-0.8,1.5-1.7,2.9-2.7,4.2c-1,1.3-2.1,2.6-3.3,3.8c0.8-1.5,1.7-2.9,2.7-4.2
				C391,364.3,392.1,363,393.3,361.9z"/>
		</g>
		<g>
			<path class="st6" d="M393.5,364.8c-0.9,1.1-1.9,2-2.9,2.9c-1.1,0.8-2.1,1.6-3.4,2.3c0.9-1.1,1.9-2,2.9-2.9
				C391.2,366.2,392.3,365.4,393.5,364.8z"/>
		</g>
		<g>
			<path class="st6" d="M381.5,364.8c1.2,0.6,2.2,1.4,3.1,2.3c1,0.9,1.9,1.8,2.6,2.8c-1.2-0.6-2.2-1.4-3.1-2.3
				C383.2,366.8,382.3,365.9,381.5,364.8z"/>
		</g>
		<g>
			<path class="st6" d="M386.4,358.8c0.4,1.8,0.6,3.7,0.8,5.5c0.1,1.9,0.2,3.7,0.1,5.6c-0.4-1.8-0.6-3.7-0.8-5.5
				C386.3,362.5,386.3,360.7,386.4,358.8z"/>
		</g>
		<g>
			<path class="st6" d="M394.4,367.8c-1.1,0.6-2.3,1-3.4,1.4c-1.2,0.3-2.4,0.6-3.7,0.7c1.1-0.6,2.3-1,3.4-1.4
				C391.9,368.2,393.1,367.9,394.4,367.8z"/>
		</g>
		<g>
			<path class="st6" d="M380,366.4c1.3,0.3,2.6,0.8,3.8,1.4c1.2,0.6,2.4,1.2,3.5,2.1c-1.3-0.3-2.6-0.8-3.8-1.4
				C382.3,367.9,381.1,367.3,380,366.4z"/>
		</g>
	</g>
	<g class="st7">
		<g>
			<path class="st6" d="M57.6,354.1c0.2,1.7,0.1,3.4,0,5.1s-0.3,3.4-0.7,5.1c-0.2-1.7-0.1-3.4,0-5.1C57,357.4,57.2,355.7,57.6,354.1
				z"/>
		</g>
		<g>
			<path class="st6" d="M61,354.8c-0.4,1.7-1,3.3-1.7,4.9s-1.4,3.1-2.4,4.6c0.4-1.7,1-3.3,1.7-4.9C59.3,357.8,60,356.3,61,354.8z"/>
		</g>
		<g>
			<path class="st6" d="M55.2,356.6c0.6,1.2,0.9,2.5,1.2,3.8s0.5,2.6,0.5,3.9c-0.6-1.2-0.9-2.5-1.2-3.8
				C55.4,359.3,55.2,358,55.2,356.6z"/>
		</g>
		<g>
			<path class="st6" d="M52.5,356.1c0.9,1.1,1.5,2.3,2.1,3.5s1.1,2.5,1.4,3.8c-0.9-1.1-1.5-2.3-2.1-3.5
				C53.4,358.7,52.8,357.4,52.5,356.1z"/>
		</g>
		<g>
			<path class="st6" d="M62.9,356.3c-0.8,1.5-1.7,2.9-2.7,4.2c-1,1.3-2.1,2.6-3.3,3.8c0.8-1.5,1.7-2.9,2.7-4.2
				C60.6,358.7,61.7,357.4,62.9,356.3z"/>
		</g>
		<g>
			<path class="st6" d="M63.2,359.2c-0.9,1.1-1.9,2-2.9,2.9c-1.1,0.8-2.1,1.6-3.4,2.3c0.9-1.1,1.9-2,2.9-2.9
				C60.8,360.6,61.9,359.8,63.2,359.2z"/>
		</g>
		<g>
			<path class="st6" d="M51.2,359.2c1.2,0.6,2.2,1.4,3.1,2.3c1,0.9,1.9,1.8,2.6,2.8c-1.2-0.6-2.2-1.4-3.1-2.3
				C52.8,361.2,51.9,360.3,51.2,359.2z"/>
		</g>
		<g>
			<path class="st6" d="M56,353.2c0.4,1.8,0.6,3.7,0.8,5.5c0.1,1.9,0.2,3.7,0.1,5.6c-0.4-1.8-0.6-3.7-0.8-5.5
				C56,356.9,55.9,355,56,353.2z"/>
		</g>
		<g>
			<path class="st6" d="M64,362.2c-1.1,0.6-2.3,1-3.4,1.4c-1.2,0.3-2.4,0.6-3.7,0.7c1.1-0.6,2.3-1,3.4-1.4
				C61.5,362.6,62.7,362.3,64,362.2z"/>
		</g>
		<g>
			<path class="st6" d="M49.7,360.8c1.3,0.3,2.6,0.8,3.8,1.4s2.4,1.2,3.5,2.1c-1.3-0.3-2.6-0.8-3.8-1.4
				C51.9,362.3,50.7,361.7,49.7,360.8z"/>
		</g>
	</g>
	<g class="st7">
		<g>
			<path class="st6" d="M269.5,367.9c0.2,1.7,0.1,3.4,0,5.1s-0.3,3.4-0.7,5.1c-0.2-1.7-0.1-3.4,0-5.1S269.1,369.6,269.5,367.9z"/>
		</g>
		<g>
			<path class="st6" d="M272.9,368.7c-0.4,1.7-1,3.3-1.7,4.9c-0.7,1.6-1.4,3.1-2.4,4.6c0.4-1.7,1-3.3,1.7-4.9
				S271.9,370.1,272.9,368.7z"/>
		</g>
		<g>
			<path class="st6" d="M267.1,370.5c0.6,1.2,0.9,2.5,1.2,3.8c0.3,1.3,0.5,2.6,0.5,3.9c-0.6-1.2-0.9-2.5-1.2-3.8
				C267.3,373.1,267.1,371.8,267.1,370.5z"/>
		</g>
		<g>
			<path class="st6" d="M264.4,369.9c0.9,1.1,1.5,2.3,2.1,3.5s1.1,2.5,1.4,3.8c-0.9-1.1-1.5-2.3-2.1-3.5
				C265.2,372.5,264.7,371.3,264.4,369.9z"/>
		</g>
		<g>
			<path class="st6" d="M274.8,370.1c-0.8,1.5-1.7,2.9-2.7,4.2c-1,1.3-2.1,2.6-3.3,3.8c0.8-1.5,1.7-2.9,2.7-4.2
				C272.5,372.6,273.6,371.3,274.8,370.1z"/>
		</g>
		<g>
			<path class="st6" d="M275,373.1c-0.9,1.1-1.9,2-2.9,2.9c-1.1,0.8-2.1,1.6-3.4,2.3c0.9-1.1,1.9-2,2.9-2.9
				C272.7,374.5,273.8,373.7,275,373.1z"/>
		</g>
		<g>
			<path class="st6" d="M263,373.1c1.2,0.6,2.2,1.4,3.1,2.3c1,0.9,1.9,1.8,2.6,2.8c-1.2-0.6-2.2-1.4-3.1-2.3
				C264.7,375,263.8,374.1,263,373.1z"/>
		</g>
		<g>
			<path class="st6" d="M267.9,367.1c0.4,1.8,0.6,3.7,0.8,5.5c0.1,1.9,0.2,3.7,0.1,5.6c-0.4-1.8-0.6-3.7-0.8-5.5
				C267.8,370.8,267.8,368.9,267.9,367.1z"/>
		</g>
		<g>
			<path class="st6" d="M275.9,376.1c-1.1,0.6-2.3,1-3.4,1.4c-1.2,0.3-2.4,0.6-3.7,0.7c1.1-0.6,2.3-1,3.4-1.4
				C273.4,376.4,274.6,376.1,275.9,376.1z"/>
		</g>
		<g>
			<path class="st6" d="M261.5,374.7c1.3,0.3,2.6,0.8,3.8,1.4c1.2,0.6,2.4,1.2,3.5,2.1c-1.3-0.3-2.6-0.8-3.8-1.4
				C263.8,376.2,262.6,375.5,261.5,374.7z"/>
		</g>
	</g>
	<g class="st7">
		<g>
			<path class="st6" d="M83.3,273c0.2,1.3,0.2,2.6,0.1,3.8c-0.1,1.3-0.3,2.5-0.6,3.8c-0.2-1.3-0.2-2.6-0.1-3.8
				C82.8,275.5,82.9,274.3,83.3,273z"/>
		</g>
		<g>
			<path class="st6" d="M85.8,273.6c-0.2,1.3-0.7,2.5-1.2,3.7s-1.1,2.3-1.9,3.4c0.2-1.3,0.7-2.5,1.2-3.7
				C84.5,275.8,85,274.6,85.8,273.6z"/>
		</g>
		<g>
			<path class="st6" d="M81.5,274.9c0.5,0.9,0.8,1.8,1,2.8c0.2,0.9,0.3,1.9,0.3,2.9c-0.5-0.9-0.8-1.8-1-2.8
				C81.6,276.9,81.4,275.9,81.5,274.9z"/>
		</g>
		<g>
			<path class="st6" d="M79.6,274.5c0.7,0.8,1.2,1.6,1.6,2.5s0.8,1.8,1,2.9c-0.7-0.8-1.2-1.6-1.6-2.5
				C80.1,276.5,79.7,275.5,79.6,274.5z"/>
		</g>
		<g>
			<path class="st6" d="M87.2,274.7c-0.5,1.2-1.2,2.2-1.9,3.2c-0.8,1-1.5,1.9-2.5,2.8c0.5-1.2,1.2-2.2,1.9-3.2
				C85.5,276.4,86.3,275.5,87.2,274.7z"/>
		</g>
		<g>
			<path class="st6" d="M87.4,276.8c-0.6,0.9-1.3,1.5-2.1,2.2c-0.8,0.6-1.6,1.2-2.6,1.6c0.6-0.9,1.3-1.5,2.1-2.2
				C85.7,277.8,86.5,277.2,87.4,276.8z"/>
		</g>
		<g>
			<path class="st6" d="M78.5,276.8c0.9,0.4,1.7,1,2.4,1.6c0.7,0.6,1.4,1.3,1.9,2.2c-0.9-0.4-1.7-1-2.4-1.6S79.1,277.7,78.5,276.8z"
				/>
		</g>
		<g>
			<path class="st6" d="M82.2,272.4c0.4,1.3,0.6,2.7,0.7,4.1s0.1,2.7-0.1,4.1c-0.4-1.3-0.6-2.7-0.7-4.1S82,273.8,82.2,272.4z"/>
		</g>
		<g>
			<path class="st6" d="M88.1,279.1c-0.8,0.5-1.7,0.9-2.5,1.1c-0.9,0.2-1.8,0.4-2.7,0.4c0.8-0.5,1.6-0.9,2.5-1.1
				C86.2,279.2,87.1,279,88.1,279.1z"/>
		</g>
		<g>
			<path class="st6" d="M77.4,278c1,0.2,1.9,0.5,2.8,0.9s1.7,0.9,2.5,1.6c-1-0.2-1.9-0.5-2.8-0.9C79.1,279.2,78.2,278.7,77.4,278z"
				/>
		</g>
	</g>
	<g class="st7">
		<g>
			<path class="st6" d="M114.3,323.6c0.2,1.3,0.2,2.6,0.1,3.8c-0.1,1.3-0.3,2.5-0.6,3.8c-0.2-1.3-0.2-2.6-0.1-3.8
				C113.8,326.1,114,324.9,114.3,323.6z"/>
		</g>
		<g>
			<path class="st6" d="M116.8,324.2c-0.2,1.3-0.7,2.5-1.2,3.7s-1.1,2.3-1.9,3.4c0.2-1.3,0.7-2.5,1.2-3.7
				C115.5,326.4,116.1,325.2,116.8,324.2z"/>
		</g>
		<g>
			<path class="st6" d="M112.6,325.5c0.5,0.9,0.8,1.8,1,2.8c0.2,0.9,0.3,1.9,0.3,2.9c-0.5-0.9-0.8-1.8-1-2.8
				C112.6,327.5,112.5,326.5,112.6,325.5z"/>
		</g>
		<g>
			<path class="st6" d="M110.6,325.1c0.7,0.8,1.2,1.6,1.6,2.5s0.8,1.8,1,2.9c-0.7-0.8-1.2-1.6-1.6-2.5
				C111.1,327.1,110.8,326.2,110.6,325.1z"/>
		</g>
		<g>
			<path class="st6" d="M118.3,325.3c-0.5,1.2-1.2,2.2-1.9,3.2c-0.8,1-1.5,1.9-2.5,2.8c0.5-1.2,1.2-2.2,1.9-3.2
				C116.5,327,117.3,326.1,118.3,325.3z"/>
		</g>
		<g>
			<path class="st6" d="M118.5,327.4c-0.6,0.9-1.3,1.5-2.1,2.2c-0.8,0.6-1.6,1.2-2.6,1.6c0.6-0.9,1.3-1.5,2.1-2.2
				C116.7,328.4,117.5,327.8,118.5,327.4z"/>
		</g>
		<g>
			<path class="st6" d="M109.6,327.4c0.9,0.4,1.7,1,2.4,1.6c0.7,0.6,1.4,1.3,1.9,2.2c-0.9-0.4-1.7-1-2.4-1.6
				C110.7,329,110.1,328.3,109.6,327.4z"/>
		</g>
		<g>
			<path class="st6" d="M113.2,323c0.4,1.3,0.6,2.7,0.7,4.1s0.1,2.7-0.1,4.1c-0.4-1.3-0.6-2.7-0.7-4.1
				C113,325.8,113,324.4,113.2,323z"/>
		</g>
		<g>
			<path class="st6" d="M119.1,329.7c-0.8,0.5-1.7,0.9-2.5,1.1c-0.9,0.2-1.8,0.4-2.7,0.4c0.8-0.5,1.6-0.9,2.5-1.1
				C117.2,329.8,118.1,329.6,119.1,329.7z"/>
		</g>
		<g>
			<path class="st6" d="M108.5,328.6c1,0.2,1.9,0.5,2.8,0.9s1.7,0.9,2.5,1.6c-1-0.2-1.9-0.5-2.8-0.9
				C110.1,329.8,109.2,329.3,108.5,328.6z"/>
		</g>
	</g>
	<g class="st7">
		<g>
			<path class="st6" d="M125.5,165.8c0.2,1.3,0.2,2.6,0.1,3.8c-0.1,1.3-0.3,2.5-0.6,3.8c-0.2-1.3-0.2-2.6-0.1-3.8
				C124.9,168.3,125.1,167,125.5,165.8z"/>
		</g>
		<g>
			<path class="st6" d="M128,166.3c-0.2,1.3-0.7,2.5-1.2,3.7s-1.1,2.3-1.9,3.4c0.2-1.3,0.7-2.5,1.2-3.7S127.2,167.4,128,166.3z"/>
		</g>
		<g>
			<path class="st6" d="M123.7,167.7c0.5,0.9,0.8,1.8,1,2.8c0.2,0.9,0.3,1.9,0.3,2.9c-0.5-0.9-0.8-1.8-1-2.8
				C123.7,169.6,123.6,168.7,123.7,167.7z"/>
		</g>
		<g>
			<path class="st6" d="M121.7,167.2c0.7,0.8,1.2,1.6,1.6,2.5c0.4,0.9,0.8,1.8,1,2.9c-0.7-0.8-1.2-1.6-1.6-2.5
				C122.3,169.2,121.9,168.3,121.7,167.2z"/>
		</g>
		<g>
			<path class="st6" d="M129.4,167.4c-0.5,1.2-1.2,2.2-1.9,3.2c-0.8,1-1.5,1.9-2.5,2.8c0.5-1.2,1.2-2.2,1.9-3.2
				C127.6,169.1,128.4,168.2,129.4,167.4z"/>
		</g>
		<g>
			<path class="st6" d="M129.6,169.5c-0.6,0.9-1.3,1.5-2.1,2.2c-0.8,0.6-1.6,1.2-2.6,1.6c0.6-0.9,1.3-1.5,2.1-2.2
				C127.8,170.5,128.6,169.9,129.6,169.5z"/>
		</g>
		<g>
			<path class="st6" d="M120.7,169.5c0.9,0.4,1.7,1,2.4,1.6c0.7,0.6,1.4,1.3,1.9,2.2c-0.9-0.4-1.7-1-2.4-1.6
				C121.9,171.1,121.2,170.4,120.7,169.5z"/>
		</g>
		<g>
			<path class="st6" d="M124.3,165.1c0.4,1.3,0.6,2.7,0.7,4.1c0.1,1.4,0.1,2.7-0.1,4.1c-0.4-1.3-0.6-2.7-0.7-4.1
				C124.2,167.9,124.1,166.5,124.3,165.1z"/>
		</g>
		<g>
			<path class="st6" d="M130.2,171.8c-0.8,0.5-1.7,0.9-2.5,1.1c-0.9,0.2-1.8,0.4-2.7,0.4c0.8-0.5,1.6-0.9,2.5-1.1
				C128.4,172,129.2,171.8,130.2,171.8z"/>
		</g>
		<g>
			<path class="st6" d="M119.6,170.8c1,0.2,1.9,0.5,2.8,0.9c0.9,0.4,1.7,0.9,2.5,1.6c-1-0.2-1.9-0.5-2.8-0.9
				C121.2,171.9,120.4,171.5,119.6,170.8z"/>
		</g>
	</g>
	<g class="st7">
		<g>
			<path class="st6" d="M300,339.7c0.2,1.3,0.2,2.6,0.1,3.8c-0.1,1.3-0.3,2.5-0.6,3.8c-0.2-1.3-0.2-2.6-0.1-3.8
				C299.5,342.2,299.7,341,300,339.7z"/>
		</g>
		<g>
			<path class="st6" d="M302.6,340.3c-0.2,1.3-0.7,2.5-1.2,3.7s-1.1,2.3-1.9,3.4c0.2-1.3,0.7-2.5,1.2-3.7
				C301.2,342.5,301.8,341.3,302.6,340.3z"/>
		</g>
		<g>
			<path class="st6" d="M298.3,341.6c0.5,0.9,0.8,1.8,1,2.8c0.2,0.9,0.3,1.9,0.3,2.9c-0.5-0.9-0.8-1.8-1-2.8
				C298.3,343.6,298.2,342.6,298.3,341.6z"/>
		</g>
		<g>
			<path class="st6" d="M296.3,341.2c0.7,0.8,1.2,1.6,1.6,2.5s0.8,1.8,1,2.9c-0.7-0.8-1.2-1.6-1.6-2.5
				C296.8,343.2,296.5,342.2,296.3,341.2z"/>
		</g>
		<g>
			<path class="st6" d="M304,341.3c-0.5,1.2-1.2,2.2-1.9,3.2c-0.8,1-1.5,1.9-2.5,2.8c0.5-1.2,1.2-2.2,1.9-3.2
				C302.2,343.1,303,342.2,304,341.3z"/>
		</g>
		<g>
			<path class="st6" d="M304.2,343.5c-0.6,0.9-1.3,1.5-2.1,2.2c-0.8,0.6-1.6,1.2-2.6,1.6c0.6-0.9,1.3-1.5,2.1-2.2
				C302.4,344.5,303.2,343.9,304.2,343.5z"/>
		</g>
		<g>
			<path class="st6" d="M295.3,343.5c0.9,0.4,1.7,1,2.4,1.6c0.7,0.6,1.4,1.3,1.9,2.2c-0.9-0.4-1.7-1-2.4-1.6
				C296.5,345,295.8,344.4,295.3,343.5z"/>
		</g>
		<g>
			<path class="st6" d="M298.9,339.1c0.4,1.3,0.6,2.7,0.7,4.1c0.1,1.4,0.1,2.7-0.1,4.1c-0.4-1.3-0.6-2.7-0.7-4.1
				C298.7,341.8,298.7,340.5,298.9,339.1z"/>
		</g>
		<g>
			<path class="st6" d="M304.8,345.7c-0.8,0.5-1.7,0.9-2.5,1.1c-0.9,0.2-1.8,0.4-2.7,0.4c0.8-0.5,1.6-0.9,2.5-1.1
				C302.9,345.9,303.8,345.7,304.8,345.7z"/>
		</g>
		<g>
			<path class="st6" d="M294.2,344.7c1,0.2,1.9,0.5,2.8,0.9s1.7,0.9,2.5,1.6c-1-0.2-1.9-0.5-2.8-0.9
				C295.8,345.9,294.9,345.4,294.2,344.7z"/>
		</g>
	</g>
	<g class="st7">
		<g>
			<path class="st6" d="M358.7,353.3c0.2,1.3,0.2,2.6,0.1,3.8c-0.1,1.3-0.3,2.5-0.6,3.8c-0.2-1.3-0.2-2.6-0.1-3.8
				C358.2,355.8,358.4,354.6,358.7,353.3z"/>
		</g>
		<g>
			<path class="st6" d="M361.3,353.9c-0.2,1.3-0.7,2.5-1.2,3.7c-0.5,1.2-1.1,2.3-1.9,3.4c0.2-1.3,0.7-2.5,1.2-3.7
				C359.9,356.1,360.5,354.9,361.3,353.9z"/>
		</g>
		<g>
			<path class="st6" d="M357,355.2c0.5,0.9,0.8,1.8,1,2.8c0.2,0.9,0.3,1.9,0.3,2.9c-0.5-0.9-0.8-1.8-1-2.8
				C357,357.2,356.9,356.3,357,355.2z"/>
		</g>
		<g>
			<path class="st6" d="M355,354.8c0.7,0.8,1.2,1.6,1.6,2.5c0.4,0.9,0.8,1.8,1,2.9c-0.7-0.8-1.2-1.6-1.6-2.5
				C355.5,356.8,355.2,355.9,355,354.8z"/>
		</g>
		<g>
			<path class="st6" d="M362.7,355c-0.5,1.2-1.2,2.2-1.9,3.2c-0.8,1-1.5,1.9-2.5,2.8c0.5-1.2,1.2-2.2,1.9-3.2
				C360.9,356.7,361.7,355.8,362.7,355z"/>
		</g>
		<g>
			<path class="st6" d="M362.9,357.1c-0.6,0.9-1.3,1.5-2.1,2.2c-0.8,0.6-1.6,1.2-2.6,1.6c0.6-0.9,1.3-1.5,2.1-2.2
				C361.1,358.1,361.9,357.5,362.9,357.1z"/>
		</g>
		<g>
			<path class="st6" d="M354,357.1c0.9,0.4,1.7,1,2.4,1.6c0.7,0.6,1.4,1.3,1.9,2.2c-0.9-0.4-1.7-1-2.4-1.6S354.5,358,354,357.1z"/>
		</g>
		<g>
			<path class="st6" d="M357.6,352.7c0.4,1.3,0.6,2.7,0.7,4.1c0.1,1.4,0.1,2.7-0.1,4.1c-0.4-1.3-0.6-2.7-0.7-4.1
				C357.4,355.5,357.4,354.1,357.6,352.7z"/>
		</g>
		<g>
			<path class="st6" d="M363.5,359.4c-0.8,0.5-1.7,0.9-2.5,1.1c-0.9,0.2-1.8,0.4-2.7,0.4c0.8-0.5,1.6-0.9,2.5-1.1
				C361.6,359.5,362.5,359.3,363.5,359.4z"/>
		</g>
		<g>
			<path class="st6" d="M352.9,358.4c1,0.2,1.9,0.5,2.8,0.9c0.9,0.4,1.7,0.9,2.5,1.6c-1-0.2-1.9-0.5-2.8-0.9
				C354.5,359.5,353.6,359,352.9,358.4z"/>
		</g>
	</g>
	<g class="st7">
		<g>
			<path class="st6" d="M169.5,275.1c0.2,1.3,0.2,2.6,0.1,3.8c-0.1,1.3-0.3,2.5-0.6,3.8c-0.2-1.3-0.2-2.6-0.1-3.8
				C169,277.6,169.1,276.3,169.5,275.1z"/>
		</g>
		<g>
			<path class="st6" d="M172,275.6c-0.2,1.3-0.7,2.5-1.2,3.7s-1.1,2.3-1.9,3.4c0.2-1.3,0.7-2.5,1.2-3.7
				C170.7,277.8,171.2,276.7,172,275.6z"/>
		</g>
		<g>
			<path class="st6" d="M167.7,277c0.5,0.9,0.8,1.8,1,2.8c0.2,0.9,0.3,1.9,0.3,2.9c-0.5-0.9-0.8-1.8-1-2.8
				C167.8,279,167.6,278,167.7,277z"/>
		</g>
		<g>
			<path class="st6" d="M165.7,276.6c0.7,0.8,1.2,1.6,1.6,2.5c0.4,0.9,0.8,1.8,1,2.9c-0.7-0.8-1.2-1.6-1.6-2.5
				C166.3,278.6,165.9,277.6,165.7,276.6z"/>
		</g>
		<g>
			<path class="st6" d="M173.4,276.7c-0.5,1.2-1.2,2.2-1.9,3.2c-0.8,1-1.5,1.9-2.5,2.8c0.5-1.2,1.2-2.2,1.9-3.2
				S172.4,277.5,173.4,276.7z"/>
		</g>
		<g>
			<path class="st6" d="M173.6,278.9c-0.6,0.9-1.3,1.5-2.1,2.2c-0.8,0.6-1.6,1.2-2.6,1.6c0.6-0.9,1.3-1.5,2.1-2.2
				C171.8,279.9,172.6,279.3,173.6,278.9z"/>
		</g>
		<g>
			<path class="st6" d="M164.7,278.9c0.9,0.4,1.7,1,2.4,1.6s1.4,1.3,1.9,2.2c-0.9-0.4-1.7-1-2.4-1.6
				C165.9,280.4,165.2,279.7,164.7,278.9z"/>
		</g>
		<g>
			<path class="st6" d="M168.3,274.5c0.4,1.3,0.6,2.7,0.7,4.1c0.1,1.4,0.1,2.7-0.1,4.1c-0.4-1.3-0.6-2.7-0.7-4.1
				C168.2,277.2,168.1,275.8,168.3,274.5z"/>
		</g>
		<g>
			<path class="st6" d="M174.2,281.1c-0.8,0.5-1.7,0.9-2.5,1.1c-0.9,0.2-1.8,0.4-2.7,0.4c0.8-0.5,1.6-0.9,2.5-1.1
				C172.4,281.3,173.3,281.1,174.2,281.1z"/>
		</g>
		<g>
			<path class="st6" d="M163.6,280.1c1,0.2,1.9,0.5,2.8,0.9s1.7,0.9,2.5,1.6c-1-0.2-1.9-0.5-2.8-0.9S164.4,280.8,163.6,280.1z"/>
		</g>
	</g>
	<g class="st7">
		<g>
			<path class="st6" d="M189.5,368.5c0.2,1.3,0.2,2.6,0.1,3.8c-0.1,1.3-0.3,2.5-0.6,3.8c-0.2-1.3-0.2-2.6-0.1-3.8
				C188.9,371,189.1,369.7,189.5,368.5z"/>
		</g>
		<g>
			<path class="st6" d="M192,369c-0.2,1.3-0.7,2.5-1.2,3.7s-1.1,2.3-1.9,3.4c0.2-1.3,0.7-2.5,1.2-3.7
				C190.6,371.2,191.2,370.1,192,369z"/>
		</g>
		<g>
			<path class="st6" d="M187.7,370.4c0.5,0.9,0.8,1.8,1,2.8c0.2,0.9,0.3,1.9,0.3,2.9c-0.5-0.9-0.8-1.8-1-2.8
				C187.8,372.4,187.6,371.4,187.7,370.4z"/>
		</g>
		<g>
			<path class="st6" d="M185.7,370c0.7,0.8,1.2,1.6,1.6,2.5c0.4,0.9,0.8,1.8,1,2.9c-0.7-0.8-1.2-1.6-1.6-2.5S185.9,371,185.7,370z"
				/>
		</g>
		<g>
			<path class="st6" d="M193.4,370.1c-0.5,1.2-1.2,2.2-1.9,3.2c-0.8,1-1.5,1.9-2.5,2.8c0.5-1.2,1.2-2.2,1.9-3.2
				S192.4,370.9,193.4,370.1z"/>
		</g>
		<g>
			<path class="st6" d="M193.6,372.3c-0.6,0.9-1.3,1.5-2.1,2.2c-0.8,0.6-1.6,1.2-2.6,1.6c0.6-0.9,1.3-1.5,2.1-2.2
				C191.8,373.3,192.6,372.7,193.6,372.3z"/>
		</g>
		<g>
			<path class="st6" d="M184.7,372.3c0.9,0.4,1.7,1,2.4,1.6s1.4,1.3,1.9,2.2c-0.9-0.4-1.7-1-2.4-1.6
				C185.9,373.8,185.2,373.1,184.7,372.3z"/>
		</g>
		<g>
			<path class="st6" d="M188.3,367.9c0.4,1.3,0.6,2.7,0.7,4.1c0.1,1.4,0.1,2.7-0.1,4.1c-0.4-1.3-0.6-2.7-0.7-4.1
				C188.2,370.6,188.1,369.2,188.3,367.9z"/>
		</g>
		<g>
			<path class="st6" d="M194.2,374.5c-0.8,0.5-1.7,0.9-2.5,1.1c-0.9,0.2-1.8,0.4-2.7,0.4c0.8-0.5,1.6-0.9,2.5-1.1
				C192.4,374.7,193.3,374.5,194.2,374.5z"/>
		</g>
		<g>
			<path class="st6" d="M183.6,373.5c1,0.2,1.9,0.5,2.8,0.9c0.9,0.4,1.7,0.9,2.5,1.6c-1-0.2-1.9-0.5-2.8-0.9
				C185.2,374.7,184.4,374.2,183.6,373.5z"/>
		</g>
	</g>
	<g class="st7">
		<g>
			<path class="st6" d="M323.6,326.2c0.4,1.7,0.6,3.5,0.7,5.2c0.1,1.8,0.2,3.5,0,5.3c-0.4-1.7-0.6-3.5-0.7-5.2
				C323.4,329.7,323.4,327.9,323.6,326.2z"/>
		</g>
		<g>
			<path class="st6" d="M320.1,326.9c1,1.5,1.7,3.1,2.4,4.7c0.7,1.6,1.3,3.3,1.8,5c-1-1.5-1.7-3.1-2.4-4.7
				C321.2,330.3,320.5,328.7,320.1,326.9z"/>
		</g>
		<g>
			<path class="st6" d="M326.1,328.8c0,1.4-0.2,2.7-0.5,4c-0.3,1.3-0.7,2.6-1.2,3.9c0-1.4,0.2-2.7,0.5-4
				C325.1,331.3,325.5,330,326.1,328.8z"/>
		</g>
		<g>
			<path class="st6" d="M328.8,328.2c-0.3,1.4-0.9,2.7-1.5,3.9c-0.6,1.2-1.3,2.5-2.1,3.6c0.3-1.4,0.9-2.7,1.5-3.9
				C327.2,330.6,327.9,329.3,328.8,328.2z"/>
		</g>
		<g>
			<path class="st6" d="M318.1,328.4c1.3,1.2,2.4,2.5,3.4,3.9s2,2.8,2.8,4.4c-1.3-1.2-2.4-2.5-3.4-3.9
				C319.9,331.4,318.9,330,318.1,328.4z"/>
		</g>
		<g>
			<path class="st6" d="M317.9,331.4c1.3,0.6,2.4,1.5,3.5,2.3c1.1,0.9,2.1,1.8,3,2.9c-1.3-0.6-2.4-1.5-3.5-2.3
				C319.8,333.4,318.7,332.5,317.9,331.4z"/>
		</g>
		<g>
			<path class="st6" d="M330.2,331.4c-0.8,1.1-1.7,2-2.7,2.9s-2,1.7-3.2,2.3c0.8-1.1,1.7-2,2.7-2.9C328,332.9,329,332.1,330.2,331.4
				z"/>
		</g>
		<g>
			<path class="st6" d="M325.2,325.2c0.1,1.9,0.1,3.8-0.1,5.7c-0.2,1.9-0.4,3.8-0.8,5.7c-0.1-1.9-0.1-3.8,0.1-5.7
				C324.5,329,324.7,327.1,325.2,325.2z"/>
		</g>
		<g>
			<path class="st6" d="M317,334.5c1.3,0.1,2.5,0.4,3.8,0.7c1.2,0.4,2.4,0.8,3.5,1.4c-1.3-0.1-2.5-0.4-3.8-0.7
				C319.3,335.6,318.1,335.2,317,334.5z"/>
		</g>
		<g>
			<path class="st6" d="M331.7,333.1c-1.1,0.9-2.3,1.5-3.5,2.1c-1.2,0.6-2.5,1.1-3.9,1.4c1.1-0.9,2.3-1.5,3.5-2.1
				C329.1,334,330.3,333.4,331.7,333.1z"/>
		</g>
	</g>
	<g class="st7">
		<g>
			<path class="st6" d="M141.3,364.2c0.4,1.7,0.6,3.5,0.7,5.2c0.1,1.8,0.2,3.5,0,5.3c-0.4-1.7-0.6-3.5-0.7-5.2
				C141.2,367.7,141.1,365.9,141.3,364.2z"/>
		</g>
		<g>
			<path class="st6" d="M137.8,364.9c1,1.5,1.7,3.1,2.4,4.7c0.7,1.6,1.3,3.3,1.8,5c-1-1.5-1.7-3.1-2.4-4.7
				C138.9,368.3,138.2,366.6,137.8,364.9z"/>
		</g>
		<g>
			<path class="st6" d="M143.8,366.8c0,1.4-0.2,2.7-0.5,4c-0.3,1.3-0.7,2.6-1.2,3.9c0-1.4,0.2-2.7,0.5-4
				C142.8,369.3,143.2,368,143.8,366.8z"/>
		</g>
		<g>
			<path class="st6" d="M146.5,366.2c-0.3,1.4-0.9,2.7-1.5,3.9c-0.6,1.2-1.3,2.5-2.1,3.6c0.3-1.4,0.9-2.7,1.5-3.9
				C145,368.6,145.6,367.3,146.5,366.2z"/>
		</g>
		<g>
			<path class="st6" d="M135.8,366.4c1.3,1.2,2.4,2.5,3.4,3.9s2,2.8,2.8,4.4c-1.3-1.2-2.4-2.5-3.4-3.9S136.6,368,135.8,366.4z"/>
		</g>
		<g>
			<path class="st6" d="M135.6,369.4c1.3,0.6,2.4,1.5,3.5,2.3c1.1,0.9,2.1,1.8,3,2.9c-1.3-0.6-2.4-1.5-3.5-2.3
				C137.5,371.4,136.5,370.5,135.6,369.4z"/>
		</g>
		<g>
			<path class="st6" d="M147.9,369.4c-0.8,1.1-1.7,2-2.7,2.9s-2,1.7-3.2,2.3c0.8-1.1,1.7-2,2.7-2.9
				C145.7,370.9,146.7,370.1,147.9,369.4z"/>
		</g>
		<g>
			<path class="st6" d="M142.9,363.2c0.1,1.9,0.1,3.8-0.1,5.7c-0.2,1.9-0.4,3.8-0.8,5.7c-0.1-1.9-0.1-3.8,0.1-5.7
				C142.2,367,142.5,365.1,142.9,363.2z"/>
		</g>
		<g>
			<path class="st6" d="M134.7,372.5c1.3,0.1,2.5,0.4,3.8,0.7c1.2,0.4,2.4,0.8,3.5,1.4c-1.3-0.1-2.5-0.4-3.8-0.7
				C137,373.6,135.8,373.2,134.7,372.5z"/>
		</g>
		<g>
			<path class="st6" d="M149.4,371.1c-1.1,0.9-2.3,1.5-3.5,2.1s-2.5,1.1-3.9,1.4c1.1-0.9,2.3-1.5,3.5-2.1
				C146.8,372,148.1,371.4,149.4,371.1z"/>
		</g>
	</g>
</g>
<path class="st1" d="M175.4,299.3L175.4,299.3L175.4,299.3C175.4,299.3,175.4,299.3,175.4,299.3z"/>
<path class="st8" d="M114.8,43.1c0.9,0.4,2,0.1,2.8-0.6s1.3-1.5,1.7-2.4c0.8,1.7,2.5,2.9,4.4,3.1c1.8,0.2,3.8-0.5,5-2
	c0.2,1,1.2,1.7,2.2,1.9c1,0.2,2,0,3-0.1"/>
<path class="st8" d="M159.6,115c0.9,0.4,2,0.1,2.8-0.6c0.8-0.6,1.3-1.5,1.7-2.4c0.8,1.7,2.5,2.9,4.4,3.1c1.8,0.2,3.8-0.5,5-2
	c0.2,1,1.2,1.7,2.2,1.9c1,0.2,2,0,3-0.1"/>
<path class="st8" d="M268.1,221.9c0.9,0.4,2,0.1,2.8-0.6c0.8-0.6,1.3-1.5,1.7-2.4c0.8,1.7,2.5,2.9,4.4,3.1s3.8-0.5,5-2
	c0.2,1,1.2,1.7,2.2,1.9c1,0.2,2,0,3-0.1"/>
<path class="st8" d="M378.5,329.1c0.9,0.4,2,0.1,2.8-0.6c0.8-0.6,1.3-1.5,1.7-2.4c0.8,1.7,2.5,2.9,4.4,3.1c1.8,0.2,3.8-0.5,5-2
	c0.2,1,1.2,1.7,2.2,1.9c1,0.2,2,0,3-0.1"/>
<path class="st8" d="M105,304.1c0.9,0.4,2,0.1,2.8-0.6c0.8-0.6,1.3-1.5,1.7-2.4c0.8,1.7,2.5,2.9,4.4,3.1c1.8,0.2,3.8-0.5,5-2
	c0.2,1,1.2,1.7,2.2,1.9s2,0,3-0.1"/>
<path class="st8" d="M195.7,240.6c0.9,0.4,2,0.1,2.8-0.6c0.8-0.6,1.3-1.5,1.7-2.4c0.8,1.7,2.5,2.9,4.4,3.1c1.8,0.2,3.8-0.5,5-2
	c0.2,1,1.2,1.7,2.2,1.9c1,0.2,2,0,3-0.1"/>
<path class="st8" d="M199.6,67c-1.3,0.5-2.9,0.1-4-0.8c-1.1-0.9-1.9-2.2-2.5-3.4c-1.2,2.4-3.7,4.2-6.4,4.5c-2.7,0.3-5.5-0.8-7.2-2.9
	c-0.3,1.4-1.7,2.5-3.2,2.8c-1.4,0.3-3,0.1-4.4-0.2"/>
<path class="st8" d="M364.6,273.1c-1.3,0.5-2.9,0.1-4-0.8c-1.1-0.9-1.9-2.2-2.5-3.4c-1.2,2.4-3.7,4.2-6.4,4.5
	c-2.7,0.3-5.5-0.8-7.2-2.9c-0.3,1.4-1.7,2.5-3.2,2.8c-1.4,0.3-3,0.1-4.4-0.2"/>
<path class="st8" d="M48.6,330.8c-1.3,0.5-2.9,0.1-4-0.8c-1.1-0.9-1.9-2.2-2.5-3.4c-1.2,2.4-3.7,4.2-6.4,4.5
	c-2.7,0.3-5.5-0.8-7.2-2.9c-0.3,1.4-1.7,2.5-3.2,2.8c-1.4,0.3-3,0.1-4.4-0.2"/>
<path class="st8" d="M321.4,103.9c-1.3,0.5-2.9,0.1-4-0.8c-1.1-0.9-1.9-2.2-2.5-3.4c-1.2,2.4-3.7,4.2-6.4,4.5
	c-2.7,0.3-5.5-0.8-7.2-2.9c-0.3,1.4-1.7,2.5-3.2,2.8c-1.4,0.3-3,0.1-4.4-0.2"/>
<path class="st8" d="M244.9,146.1c-1.3,0.5-2.9,0.1-4-0.8s-1.9-2.2-2.5-3.4c-1.2,2.4-3.7,4.2-6.4,4.5c-2.7,0.3-5.5-0.8-7.2-2.9
	c-0.3,1.4-1.7,2.5-3.2,2.8c-1.4,0.3-3,0.1-4.4-0.2"/>
<line class="st9" x1="186.3" y1="289.2" x2="194.4" y2="318.1"/>
<line class="st4" x1="185.9" y1="290.3" x2="184" y2="293.7"/>
<line class="st4" x1="190.1" y1="306.7" x2="188.2" y2="310.1"/>
<line class="st4" x1="191.3" y1="310.7" x2="189.3" y2="314.1"/>
<line class="st4" x1="192.4" y1="314.7" x2="190.5" y2="318.1"/>
<line class="st4" x1="188.9" y1="302.7" x2="186.9" y2="306.2"/>
<line class="st4" x1="187.9" y1="298.5" x2="185.9" y2="302"/>
<line class="st4" x1="186.9" y1="294.3" x2="185" y2="297.7"/>
</svg>
