<?xml version="1.0" encoding="utf-8"?>
<!-- Generator: Adobe Illustrator 24.0.0, SVG Export Plug-In . SVG Version: 6.00 Build 0)  -->
<svg version="1.1" id="Capa_1" xmlns="http://www.w3.org/2000/svg" xmlns:xlink="http://www.w3.org/1999/xlink" x="0px" y="0px"
	 viewBox="0 0 281.6 400" style="enable-background:new 0 0 281.6 400;" xml:space="preserve">
<style type="text/css">
	.st0{fill:#513037;}
	.st1{fill:#904755;}
	.st2{fill:#FFFFFF;stroke:#904755;stroke-miterlimit:10;}
	.st3{fill:#B85E6F;}
	.st4{fill:#E76F51;}
	.st5{opacity:0.8;}
	.st6{fill:#E7C268;}
</style>
<g>
	<path class="st0" d="M11.2,17.1l-1.5,1.5C9.8,18.4,10.2,17,11.2,17.1z"/>
	<path class="st0" d="M86,134.5c-0.6,0.4-1.3,0.5-1.6,0H86z"/>
	<path class="st0" d="M278,379.6l-10.5,10.6H21.9c-2.9-0.1-3.7-0.1-8,0c-2.3,0-5.3,0-7.7-2.3c-1.7-1.6-1.9-5.7-1.9-5.7L9.7,18.6l0,0
		l1.5-1.5l9-9l-0.3,19c5.6,7.3,10.8,14.6,18.1,23.9c6.6,8.4,15.9,14,21.2,23.2c1.2,2,2.4,4.2,3.7,6.3l5.4-6.6l29.2,48.1l-9.8,12.6
		h-3.2c-8.5-11-12.8-25.4-21.6-35.9c-7.3-8.5-18.9-6.3-23.6-1.4c-5.9,6.1-10.5,11.3-11.5,19.8c-2.7,23.2,7.4,28.8,26.5,36.3
		c13.3,5.2,26.2,5.1,37.1,16.1c4.7,4.7,7.8,9.9,12.2,14.3c5.7,5.8,5.9,7.9,8.7,15.8c4,11.2,6,22.2,9.6,33.4
		c3.5,10.9,11.5,19.6,17.1,29.5c6.3,11.1,16.8,8.5,25.6,17.9c2.6,2.7,4.4,0.2,3.6,4.2c-0.6,3-3,12.8-5.5,15.2
		c-9.6,9.3-4.2,17.2-4.9,29.1c4.6-6.6,8.6-2.6,13.4-8.2c2.9-3.4,4.6-18.2,8.6-22.2c2.4-2.5,15.1,4.5,10-3.5
		c9.3,6.8,14.9,9.1,15.1,18.1c-16,8.6,23.2,40,28.8,45.3c7.4,6.9,5.5,13.4,14.1,18.3c1.8,1,4.5,1.9,7.4,2.8H278z"/>
	<path class="st1" d="M16.7,377.3c2.4,2.3,5.4,2.3,7.7,2.3c4.3,0,5.2,0,8,0H278l0-1.7c0.6-6.9-14-8.5-19.6-11.6
		c-8.6-4.9-6.8-11.4-14.1-18.3c-5.6-5.3-44.8-36.7-28.8-45.3c-0.2-9-20.9-23.5-30.2-30.2c5.1,8,7.5,13.2,5.1,15.6
		c-4,4-13,3.2-15.9,6.5c-4.8,5.6-1.5,17.2-6.1,23.8c0.7-11.9-4.7-19.8,4.9-29.1c2.4-2.3,8.9-2.7,9.5-5.7c0.8-4.1-5-10.9-7.6-13.7
		c-8.7-9.4-19.3-6.8-25.6-17.9c-5.6-9.9-13.6-18.6-17.1-29.5c-3.6-11.2-5.6-22.3-9.6-33.4c-2.8-7.9-3-10-8.7-15.8
		c-4.4-4.5-7.5-9.6-12.2-14.3c-11-11-23.9-10.9-37.1-16.1c-19.1-7.5-29.1-13.2-26.5-36.3c1-8.5,5.5-13.7,11.5-19.7
		c4.8-4.9,16.3-7.1,23.6,1.4C82.1,98.5,86.4,113,94.9,124c0.5,0.9,3-0.3,2.5-2c-2.6-9.2-9.6-24-13.5-31.9
		c-4.1-9.2-9.6-18.4-14.3-26.5c-5.3-9.2-14.5-14.8-21.2-23.2c-10.2-13-16.2-22-25.2-32.7C21,4.9,20.2,8,20.2,8l-5.4,363.6
		C14.8,371.6,15.1,375.7,16.7,377.3z"/>
	<path class="st2" d="M153.6,283.9c0.3-0.1,0.5-0.2,0.8-0.3c1.7-0.7,3.4-1.6,5.3-1.9c1.4-0.3,2.9,0,4.3-0.3c2.2,2,0.4,5.5-2.1,6.4
		c-2.7,0.9-6.6-1-8.6-2.7C154,285,152.2,284.3,153.6,283.9z"/>
	<circle class="st1" cx="103.8" cy="330.9" r="1.3"/>
	<g>
		<g>
			<g>
				<path class="st3" d="M97.5,361.4c-0.9-1.8-2-3.2-3.3-4.2c-0.6-0.5-1.3-0.8-2-1c-0.7-0.2-1.5-0.3-2.3-0.3c-0.8,0-1.6,0.1-2.3,0.3
					c-0.7,0.2-1.4,0.5-2,1c-1.3,0.9-2.4,2.4-3.3,4.2c-0.3-2,0.2-4.1,1.6-5.8c1.4-1.8,3.8-2.6,6-2.6c2.1,0,4.6,0.8,6,2.6
					C97.3,357.3,97.9,359.5,97.5,361.4z"/>
			</g>
			<g>
				<path class="st3" d="M102.6,361.4c-0.7-0.6-1.2-1-1.7-1.1c-0.4-0.1-0.6,0-0.9-0.1c-0.3,0-0.5-0.1-0.9,0.1
					c-0.4,0.2-1,0.5-1.7,1.1c-0.5-0.8-0.6-1.7-0.2-2.6c0.2-0.5,0.6-0.9,1.1-1.2c0.5-0.3,1.1-0.4,1.6-0.4c0.5,0,1.1,0.1,1.6,0.4
					c0.5,0.3,0.9,0.7,1.1,1.2C103.2,359.7,103.2,360.6,102.6,361.4z"/>
			</g>
		</g>
		<g>
			<g>
				<path class="st3" d="M174.1,375c-0.9-1.8-2-3.2-3.3-4.2c-0.6-0.5-1.3-0.8-2-1c-0.7-0.2-1.5-0.3-2.3-0.3c-0.8,0-1.6,0.1-2.3,0.3
					c-0.7,0.2-1.4,0.5-2,1c-1.3,0.9-2.4,2.4-3.3,4.2c-0.3-2,0.2-4.1,1.6-5.8c1.4-1.8,3.8-2.6,6-2.6c2.1,0,4.6,0.8,6,2.6
					C173.9,370.9,174.4,373.1,174.1,375z"/>
			</g>
			<g>
				<path class="st3" d="M179.1,375c-0.7-0.6-1.2-1-1.7-1.1c-0.4-0.1-0.6,0-0.9-0.1c-0.3,0-0.5-0.1-0.9,0.1c-0.4,0.2-1,0.5-1.7,1.1
					c-0.5-0.8-0.6-1.7-0.2-2.6c0.2-0.5,0.6-0.9,1.1-1.2c0.5-0.3,1.1-0.4,1.6-0.4c0.5,0,1.1,0.1,1.6,0.4c0.5,0.3,0.9,0.7,1.1,1.2
					C179.7,373.3,179.7,374.3,179.1,375z"/>
			</g>
		</g>
		<g>
			<g>
				<path class="st3" d="M45,344.1c-0.9-1.8-2-3.2-3.3-4.2c-0.6-0.5-1.3-0.8-2-1c-0.7-0.2-1.5-0.3-2.3-0.3c-0.8,0-1.6,0.1-2.3,0.3
					c-0.7,0.2-1.4,0.5-2,1c-1.3,0.9-2.4,2.4-3.3,4.2c-0.3-2,0.2-4.1,1.6-5.8c1.4-1.8,3.8-2.6,6-2.6c2.1,0,4.6,0.8,6,2.6
					C44.8,340,45.3,342.1,45,344.1z"/>
			</g>
			<g>
				<path class="st3" d="M50,344.1c-0.7-0.6-1.2-1-1.7-1.1c-0.4-0.1-0.6,0-0.9-0.1c-0.3,0-0.5-0.1-0.9,0.1c-0.4,0.2-1,0.5-1.7,1.1
					c-0.5-0.8-0.6-1.7-0.2-2.6c0.2-0.5,0.6-0.9,1.1-1.2c0.5-0.3,1.1-0.4,1.6-0.4c0.5,0,1.1,0.1,1.6,0.4c0.5,0.3,0.9,0.7,1.1,1.2
					C50.6,342.4,50.6,343.3,50,344.1z"/>
			</g>
		</g>
		<g>
			<g>
				<path class="st3" d="M62.9,294c-0.9-1.8-2-3.2-3.3-4.2c-0.6-0.5-1.3-0.8-2-1c-0.7-0.2-1.5-0.3-2.3-0.3c-0.8,0-1.6,0.1-2.3,0.3
					c-0.7,0.2-1.4,0.5-2,1c-1.3,0.9-2.4,2.4-3.3,4.2c-0.3-2,0.2-4.1,1.6-5.8c1.4-1.8,3.8-2.6,6-2.6c2.1,0,4.6,0.8,6,2.6
					C62.7,289.9,63.2,292.1,62.9,294z"/>
			</g>
			<g>
				<path class="st3" d="M68,294c-0.7-0.6-1.2-1-1.7-1.1c-0.4-0.1-0.6,0-0.9-0.1c-0.3,0-0.5-0.1-0.9,0.1c-0.4,0.2-1,0.5-1.7,1.1
					c-0.5-0.8-0.6-1.7-0.2-2.6c0.2-0.5,0.6-0.9,1.1-1.2c0.5-0.3,1.1-0.4,1.6-0.4c0.5,0,1.1,0.1,1.6,0.4c0.5,0.3,0.9,0.7,1.1,1.2
					C68.6,292.3,68.5,293.3,68,294z"/>
			</g>
		</g>
		<g>
			<g>
				<path class="st3" d="M205,350.5c-0.9-1.8-2-3.2-3.3-4.2c-0.6-0.5-1.3-0.8-2-1c-0.7-0.2-1.5-0.3-2.3-0.3c-0.8,0-1.6,0.1-2.3,0.3
					c-0.7,0.2-1.4,0.5-2,1c-1.3,0.9-2.4,2.4-3.3,4.2c-0.3-2,0.2-4.1,1.6-5.8c1.4-1.8,3.8-2.6,6-2.6c2.1,0,4.6,0.8,6,2.6
					C204.8,346.3,205.3,348.5,205,350.5z"/>
			</g>
			<g>
				<path class="st3" d="M210.1,350.5c-0.7-0.6-1.2-1-1.7-1.1c-0.4-0.1-0.6,0-0.9-0.1c-0.3,0-0.5-0.1-0.9,0.1
					c-0.4,0.2-1,0.5-1.7,1.1c-0.5-0.8-0.6-1.7-0.2-2.6c0.2-0.5,0.6-0.9,1.1-1.2c0.5-0.3,1.1-0.4,1.6-0.4c0.5,0,1.1,0.1,1.6,0.4
					c0.5,0.3,0.9,0.7,1.1,1.2C210.6,348.8,210.6,349.7,210.1,350.5z"/>
			</g>
		</g>
		<g>
			<g>
				<path class="st3" d="M87.7,324.7c-0.3-2.4,0.4-4.9,2.2-7c1.7-2.1,4.6-3.1,7.1-3.1c2.6,0,5.4,1,7.1,3c1.7,2,2.4,4.6,2.2,7
					c-1-2.2-2.2-4.1-3.8-5.3c-0.4-0.3-0.8-0.5-1.2-0.8c-0.5-0.2-0.9-0.4-1.3-0.5c-0.9-0.3-1.9-0.4-2.9-0.4c-1,0-2,0.1-2.9,0.4
					c-0.5,0.1-0.9,0.3-1.3,0.5c-0.4,0.3-0.9,0.5-1.2,0.8C89.9,320.6,88.6,322.5,87.7,324.7z"/>
			</g>
			<g>
				<path class="st3" d="M81.4,324.7c-0.5-0.9-0.5-2,0-3c0.3-0.5,0.7-1,1.3-1.3c0.6-0.3,1.2-0.4,1.8-0.5c0.6,0,1.2,0.1,1.8,0.5
					c0.6,0.3,1,0.8,1.3,1.3c0.5,1,0.5,2.1,0,3c-0.7-0.7-1.3-1.3-1.8-1.5c-0.5-0.3-0.8-0.2-1.3-0.3c-0.5,0-0.8,0-1.3,0.3
					C82.7,323.4,82.2,323.9,81.4,324.7z"/>
			</g>
		</g>
		<g>
			<g>
				<path class="st3" d="M108,228.9c-0.9-1.8-2-3.2-3.3-4.2c-0.6-0.5-1.3-0.8-2-1c-0.7-0.2-1.5-0.3-2.3-0.3c-0.8,0-1.6,0.1-2.3,0.3
					c-0.7,0.2-1.4,0.5-2,1c-1.3,0.9-2.4,2.4-3.3,4.2c-0.3-2,0.2-4.1,1.6-5.8c1.4-1.8,3.8-2.6,6-2.6c2.1,0,4.6,0.8,6,2.6
					C107.8,224.7,108.3,226.9,108,228.9z"/>
			</g>
			<g>
				<path class="st3" d="M113,228.9c-0.7-0.6-1.2-1-1.7-1.1c-0.4-0.1-0.6,0-0.9-0.1c-0.3,0-0.5-0.1-0.9,0.1c-0.4,0.2-1,0.5-1.7,1.1
					c-0.5-0.8-0.6-1.7-0.2-2.6c0.2-0.5,0.6-0.9,1.1-1.2c0.5-0.3,1.1-0.4,1.6-0.4c0.5,0,1.1,0.1,1.6,0.4c0.5,0.3,0.9,0.7,1.1,1.2
					C113.6,227.2,113.6,228.1,113,228.9z"/>
			</g>
		</g>
		<g>
			<g>
				<path class="st3" d="M130.8,268.5c-0.9-1.8-2-3.2-3.3-4.2c-0.6-0.5-1.3-0.8-2-1c-0.7-0.2-1.5-0.3-2.3-0.3
					c-0.8,0-1.6,0.1-2.3,0.3c-0.7,0.2-1.4,0.5-2,1c-1.3,0.9-2.4,2.4-3.3,4.2c-0.3-2,0.2-4.1,1.6-5.8c1.4-1.8,3.8-2.6,6-2.6
					c2.1,0,4.6,0.8,6,2.6C130.6,264.4,131.2,266.5,130.8,268.5z"/>
			</g>
			<g>
				<path class="st3" d="M135.9,268.5c-0.7-0.6-1.2-1-1.7-1.1c-0.4-0.1-0.6,0-0.9-0.1c-0.3,0-0.5-0.1-0.9,0.1
					c-0.4,0.2-1,0.5-1.7,1.1c-0.5-0.8-0.6-1.7-0.2-2.6c0.2-0.5,0.6-0.9,1.1-1.2c0.5-0.3,1.1-0.4,1.6-0.4c0.5,0,1.1,0.1,1.6,0.4
					c0.5,0.3,0.9,0.7,1.1,1.2C136.5,266.8,136.4,267.7,135.9,268.5z"/>
			</g>
		</g>
		<g>
			<g>
				<path class="st3" d="M51.9,164c-0.9-1.8-2-3.2-3.3-4.2c-0.6-0.5-1.3-0.8-2-1c-0.7-0.2-1.5-0.3-2.3-0.3c-0.8,0-1.6,0.1-2.3,0.3
					c-0.7,0.2-1.4,0.5-2,1c-1.3,0.9-2.4,2.4-3.3,4.2c-0.3-2,0.2-4.1,1.6-5.8c1.4-1.8,3.8-2.6,6-2.6c2.1,0,4.6,0.8,6,2.6
					C51.7,159.8,52.2,162,51.9,164z"/>
			</g>
			<g>
				<path class="st3" d="M57,164c-0.7-0.6-1.2-1-1.7-1.1c-0.4-0.1-0.6,0-0.9-0.1c-0.3,0-0.5-0.1-0.9,0.1c-0.4,0.2-1,0.5-1.7,1.1
					c-0.5-0.8-0.6-1.7-0.2-2.6c0.2-0.5,0.6-0.9,1.1-1.2c0.5-0.3,1.1-0.4,1.6-0.4c0.5,0,1.1,0.1,1.6,0.4c0.5,0.3,0.9,0.7,1.1,1.2
					C57.6,162.3,57.5,163.2,57,164z"/>
			</g>
		</g>
		<g>
			<g>
				<path class="st3" d="M41.6,80.8c-0.9-1.8-2-3.2-3.3-4.2c-0.6-0.5-1.3-0.8-2-1c-0.7-0.2-1.5-0.3-2.3-0.3c-0.8,0-1.6,0.1-2.3,0.3
					c-0.7,0.2-1.4,0.5-2,1c-1.3,0.9-2.4,2.4-3.3,4.2c-0.3-2,0.2-4.1,1.6-5.8c1.4-1.8,3.8-2.6,6-2.6c2.1,0,4.6,0.8,6,2.6
					C41.4,76.7,41.9,78.9,41.6,80.8z"/>
			</g>
			<g>
				<path class="st3" d="M46.6,80.8c-0.7-0.6-1.2-1-1.7-1.1c-0.4-0.1-0.6,0-0.9-0.1c-0.3,0-0.5-0.1-0.9,0.1c-0.4,0.2-1,0.5-1.7,1.1
					c-0.5-0.8-0.6-1.7-0.2-2.6c0.2-0.5,0.6-0.9,1.1-1.2c0.5-0.3,1.1-0.4,1.6-0.4c0.5,0,1.1,0.1,1.6,0.4c0.5,0.3,0.9,0.7,1.1,1.2
					C47.2,79.1,47.2,80.1,46.6,80.8z"/>
			</g>
		</g>
		<g>
			<g>
				<path class="st3" d="M70.3,194.7c-0.3-2.4,0.4-4.9,2.2-7c1.7-2.1,4.6-3.1,7.1-3.1c2.6,0,5.4,1,7.1,3c1.7,2,2.4,4.6,2.2,7
					c-1-2.2-2.2-4.1-3.8-5.3c-0.4-0.3-0.8-0.5-1.2-0.8c-0.5-0.2-0.9-0.4-1.3-0.5c-0.9-0.3-1.9-0.4-2.9-0.4c-1,0-2,0.1-2.9,0.4
					c-0.5,0.1-0.9,0.3-1.3,0.5c-0.4,0.3-0.9,0.5-1.2,0.8C72.5,190.7,71.2,192.6,70.3,194.7z"/>
			</g>
			<g>
				<path class="st3" d="M64,194.7c-0.5-0.9-0.5-2,0-3c0.3-0.5,0.7-1,1.3-1.3c0.6-0.3,1.2-0.4,1.8-0.5c0.6,0,1.2,0.1,1.8,0.5
					c0.6,0.3,1,0.8,1.3,1.3c0.5,1,0.5,2.1,0,3c-0.7-0.7-1.3-1.3-1.8-1.5c-0.5-0.3-0.8-0.2-1.3-0.3c-0.5,0-0.8,0-1.3,0.3
					C65.3,193.5,64.8,194,64,194.7z"/>
			</g>
		</g>
	</g>
	<g>
		<circle class="st4" cx="97.3" cy="366.8" r="1.3"/>
		<circle class="st4" cx="38" cy="365.5" r="1.3"/>
		<circle class="st4" cx="56.5" cy="373.7" r="1.3"/>
		<circle class="st4" cx="127.8" cy="365.5" r="1.3"/>
		<circle class="st4" cx="146.3" cy="365.5" r="1.3"/>
		<circle class="st4" cx="174.1" cy="364.3" r="1.3"/>
		<circle class="st4" cx="44.7" cy="349.5" r="1.3"/>
		<circle class="st4" cx="31.8" cy="45.2" r="1.3"/>
		<circle class="st4" cx="30.5" cy="98.7" r="1.3"/>
		<circle class="st4" cx="50.7" cy="65.7" r="1.3"/>
		<circle class="st4" cx="34.7" cy="275.3" r="1.3"/>
		<circle class="st4" cx="53.2" cy="275.3" r="1.3"/>
		<circle class="st4" cx="80.9" cy="274.1" r="1.3"/>
		<circle class="st4" cx="228.4" cy="364.9" r="1.3"/>
		<circle class="st4" cx="246.9" cy="373" r="1.3"/>
		<circle class="st4" cx="104.2" cy="280.4" r="1.3"/>
		<circle class="st4" cx="122.7" cy="288.6" r="1.3"/>
		<circle class="st4" cx="160.5" cy="350.5" r="1.3"/>
		<circle class="st4" cx="228.4" cy="349.8" r="1.3"/>
		<circle class="st4" cx="213.3" cy="342.2" r="1.3"/>
		<circle class="st4" cx="79.3" cy="317.4" r="1.3"/>
		<circle class="st4" cx="21.8" cy="301.4" r="1.3"/>
		<circle class="st4" cx="121.5" cy="309.9" r="1.3"/>
		<circle class="st4" cx="134.3" cy="307.4" r="1.3"/>
		<circle class="st4" cx="133" cy="335.8" r="1.3"/>
		<circle class="st4" cx="49.4" cy="316.6" r="1.3"/>
		<circle class="st4" cx="96.1" cy="234.5" r="1.3"/>
		<circle class="st4" cx="36.8" cy="233.3" r="1.3"/>
		<circle class="st4" cx="55.3" cy="241.4" r="1.3"/>
		<circle class="st4" cx="203.8" cy="366.8" r="1.3"/>
		<circle class="st4" cx="126.6" cy="233.3" r="1.3"/>
		<circle class="st4" cx="56.6" cy="217.3" r="1.3"/>
		<circle class="st4" cx="130.8" cy="257.7" r="1.3"/>
		<circle class="st4" cx="39.4" cy="206.2" r="1.3"/>
		<circle class="st4" cx="75.3" cy="163.3" r="1.3"/>
		<circle class="st4" cx="60.2" cy="155.7" r="1.3"/>
		<circle class="st4" cx="33.1" cy="136.1" r="1.3"/>
		<circle class="st4" cx="61.9" cy="187.5" r="1.3"/>
		<circle class="st4" cx="86.4" cy="200.9" r="1.3"/>
		<circle class="st4" cx="36.4" cy="213.7" r="1.3"/>
		<circle class="st4" cx="104.1" cy="180" r="1.3"/>
		<circle class="st4" cx="102.8" cy="169.9" r="1.3"/>
		<circle class="st4" cx="200.4" cy="307.1" r="1.3"/>
		<circle class="st4" cx="32" cy="186.7" r="1.3"/>
		<circle class="st4" cx="115.5" cy="207.6" r="1.3"/>
	</g>
	<g>
		<circle class="st0" cx="112.5" cy="364.3" r="0.6"/>
		<circle class="st0" cx="168.5" cy="358.9" r="0.6"/>
		<circle class="st0" cx="45.5" cy="375" r="0.6"/>
		<circle class="st0" cx="46.1" cy="368.1" r="0.6"/>
		<circle class="st0" cx="75.5" cy="358.3" r="0.6"/>
		<circle class="st0" cx="80.6" cy="372.3" r="0.6"/>
		<circle class="st0" cx="175.1" cy="350.5" r="0.6"/>
		<circle class="st0" cx="147.6" cy="354.5" r="0.6"/>
		<circle class="st0" cx="194.7" cy="355.8" r="0.6"/>
		<circle class="st0" cx="230.5" cy="341" r="0.6"/>
		<circle class="st0" cx="207.5" cy="337.3" r="0.6"/>
		<circle class="st0" cx="216.3" cy="351.1" r="0.6"/>
		<g>
			<circle class="st0" cx="19.4" cy="274.1" r="0.6"/>
			<circle class="st0" cx="75.4" cy="268.7" r="0.6"/>
			<circle class="st0" cx="39.6" cy="67.1" r="0.6"/>
			<circle class="st0" cx="26.4" cy="62" r="0.6"/>
			<circle class="st0" cx="34" cy="92.7" r="0.6"/>
			<circle class="st0" cx="40.2" cy="60.1" r="0.6"/>
			<circle class="st0" cx="66.3" cy="71.7" r="0.6"/>
			<circle class="st0" cx="26.4" cy="29.5" r="0.6"/>
			<circle class="st0" cx="235.8" cy="374.4" r="0.6"/>
			<circle class="st0" cx="236.5" cy="367.4" r="0.6"/>
			<circle class="st0" cx="111.6" cy="289.9" r="0.6"/>
			<circle class="st0" cx="112.2" cy="283" r="0.6"/>
			<circle class="st0" cx="23" cy="341" r="0.6"/>
			<circle class="st0" cx="28" cy="355" r="0.6"/>
			<circle class="st0" cx="60.6" cy="319.7" r="0.6"/>
			<circle class="st0" cx="34.5" cy="309.5" r="0.6"/>
			<circle class="st0" cx="23.1" cy="294.5" r="0.6"/>
			<circle class="st0" cx="128" cy="313.4" r="0.6"/>
			<circle class="st0" cx="114.1" cy="315" r="0.6"/>
			<circle class="st0" cx="109.7" cy="335.5" r="0.6"/>
			<circle class="st0" cx="170.5" cy="330.9" r="0.6"/>
			<circle class="st0" cx="86.2" cy="335.8" r="0.6"/>
			<circle class="st0" cx="78.1" cy="314" r="0.6"/>
			<circle class="st0" cx="143.8" cy="308" r="0.6"/>
			<circle class="st0" cx="144.5" cy="330" r="0.6"/>
			<circle class="st0" cx="111.3" cy="232" r="0.6"/>
			<circle class="st0" cx="125.3" cy="252.4" r="0.6"/>
			<circle class="st0" cx="44.3" cy="242.8" r="0.6"/>
			<circle class="st0" cx="44.9" cy="235.8" r="0.6"/>
			<circle class="st0" cx="74.3" cy="226" r="0.6"/>
			<circle class="st0" cx="79.4" cy="240.1" r="0.6"/>
			<circle class="st0" cx="22" cy="164" r="0.6"/>
			<circle class="st0" cx="30.7" cy="152.1" r="0.6"/>
			<circle class="st0" cx="26.5" cy="210.2" r="0.6"/>
			<circle class="st0" cx="41.6" cy="169.3" r="0.6"/>
			<circle class="st0" cx="77.4" cy="154.5" r="0.6"/>
			<circle class="st0" cx="38.3" cy="144.4" r="0.6"/>
			<circle class="st0" cx="54.4" cy="150.8" r="0.6"/>
			<circle class="st0" cx="27.3" cy="131.2" r="0.6"/>
			<circle class="st0" cx="63.2" cy="164.6" r="0.6"/>
			<circle class="st0" cx="43.2" cy="189.8" r="0.6"/>
			<circle class="st0" cx="37.7" cy="206.9" r="0.6"/>
			<circle class="st0" cx="110.6" cy="183.4" r="0.6"/>
			<circle class="st0" cx="111.9" cy="197.7" r="0.6"/>
			<circle class="st0" cx="106" cy="210.2" r="0.6"/>
			<circle class="st0" cx="96.7" cy="185.1" r="0.6"/>
			<circle class="st0" cx="92.3" cy="205.6" r="0.6"/>
			<circle class="st0" cx="121.5" cy="212.2" r="0.6"/>
			<circle class="st0" cx="203.1" cy="329.4" r="0.6"/>
			<circle class="st0" cx="68.8" cy="205.9" r="0.6"/>
			<circle class="st0" cx="60.7" cy="184.1" r="0.6"/>
			<circle class="st0" cx="176.4" cy="306.5" r="0.6"/>
			<circle class="st0" cx="190.4" cy="303.9" r="0.6"/>
		</g>
	</g>
	<g class="st5">
		<g>
			<g>
				<path class="st6" d="M68.8,245.4c0.4,1.8,0.6,3.7,0.8,5.5c0.1,1.8,0.2,3.7,0,5.5c-0.4-1.8-0.6-3.7-0.8-5.5
					C68.7,249.1,68.7,247.3,68.8,245.4z"/>
			</g>
			<g>
				<path class="st6" d="M65.2,246.2c1,1.6,1.8,3.3,2.6,5c0.7,1.7,1.4,3.4,1.9,5.3c-1-1.6-1.8-3.3-2.6-5
					C66.3,249.7,65.7,248,65.2,246.2z"/>
			</g>
			<g>
				<path class="st6" d="M71.4,248.2c0,1.4-0.3,2.8-0.6,4.2c-0.3,1.4-0.7,2.7-1.3,4.1c0-1.4,0.3-2.8,0.6-4.2
					C70.5,250.8,70.9,249.5,71.4,248.2z"/>
			</g>
			<g>
				<path class="st6" d="M74.3,247.6c-0.4,1.4-0.9,2.8-1.6,4.1c-0.6,1.3-1.3,2.6-2.2,3.8c0.4-1.4,0.9-2.8,1.6-4.1
					C72.7,250,73.4,248.7,74.3,247.6z"/>
			</g>
			<g>
				<path class="st6" d="M63.1,247.8c1.3,1.3,2.5,2.7,3.5,4.1c1.1,1.5,2.1,2.9,2.9,4.6c-1.3-1.3-2.5-2.7-3.5-4.1
					C65,250.9,64,249.4,63.1,247.8z"/>
			</g>
			<g>
				<path class="st6" d="M62.8,250.9c1.3,0.7,2.5,1.6,3.6,2.5c1.1,0.9,2.2,1.9,3.1,3.1c-1.3-0.7-2.5-1.6-3.6-2.5
					C64.9,253,63.8,252.1,62.8,250.9z"/>
			</g>
			<g>
				<path class="st6" d="M75.8,250.9c-0.8,1.1-1.8,2.1-2.8,3c-1,0.9-2.1,1.8-3.3,2.5c0.8-1.1,1.8-2.1,2.8-3
					C73.5,252.5,74.6,251.6,75.8,250.9z"/>
			</g>
			<g>
				<path class="st6" d="M70.5,244.4c0.1,2,0.1,4-0.1,6c-0.2,2-0.4,4-0.8,6c-0.1-2-0.1-4,0.1-6C69.9,248.4,70.1,246.4,70.5,244.4z"
					/>
			</g>
			<g>
				<path class="st6" d="M61.9,254.2c1.4,0.1,2.7,0.4,3.9,0.8c1.3,0.4,2.5,0.8,3.7,1.5c-1.4-0.1-2.7-0.4-3.9-0.8
					C64.4,255.3,63.1,254.8,61.9,254.2z"/>
			</g>
			<g>
				<path class="st6" d="M77.4,252.7c-1.2,0.9-2.4,1.6-3.7,2.2c-1.3,0.6-2.6,1.2-4.1,1.5c1.2-0.9,2.4-1.6,3.7-2.2
					C74.6,253.6,76,253,77.4,252.7z"/>
			</g>
		</g>
		<g>
			<g>
				<path class="st6" d="M133.5,344.4c0.4,1.8,0.6,3.7,0.8,5.5c0.1,1.8,0.2,3.7,0,5.5c-0.4-1.8-0.6-3.7-0.8-5.5
					C133.4,348.2,133.3,346.3,133.5,344.4z"/>
			</g>
			<g>
				<path class="st6" d="M129.8,345.2c1,1.6,1.8,3.3,2.6,5c0.7,1.7,1.4,3.4,1.9,5.3c-1-1.6-1.8-3.3-2.6-5
					C130.9,348.8,130.3,347.1,129.8,345.2z"/>
			</g>
			<g>
				<path class="st6" d="M136.1,347.2c0,1.4-0.3,2.8-0.6,4.2c-0.3,1.4-0.7,2.7-1.3,4.1c0-1.4,0.3-2.8,0.6-4.2
					C135.1,349.9,135.5,348.5,136.1,347.2z"/>
			</g>
			<g>
				<path class="st6" d="M138.9,346.6c-0.4,1.4-0.9,2.8-1.6,4.1c-0.6,1.3-1.3,2.6-2.2,3.8c0.4-1.4,0.9-2.8,1.6-4.1
					C137.3,349.1,138,347.8,138.9,346.6z"/>
			</g>
			<g>
				<path class="st6" d="M127.7,346.8c1.3,1.3,2.5,2.7,3.5,4.1c1.1,1.5,2.1,2.9,2.9,4.6c-1.3-1.3-2.5-2.7-3.5-4.1
					C129.6,349.9,128.6,348.4,127.7,346.8z"/>
			</g>
			<g>
				<path class="st6" d="M127.5,350c1.3,0.7,2.5,1.6,3.6,2.5c1.1,0.9,2.2,1.9,3.1,3.1c-1.3-0.7-2.5-1.6-3.6-2.5
					C129.5,352.1,128.4,351.1,127.5,350z"/>
			</g>
			<g>
				<path class="st6" d="M140.4,350c-0.8,1.1-1.8,2.1-2.8,3c-1,0.9-2.1,1.8-3.3,2.5c0.8-1.1,1.8-2.1,2.8-3
					C138.1,351.5,139.2,350.7,140.4,350z"/>
			</g>
			<g>
				<path class="st6" d="M135.1,343.5c0.1,2,0.1,4-0.1,6c-0.2,2-0.4,4-0.8,6c-0.1-2-0.1-4,0.1-6
					C134.5,347.5,134.7,345.5,135.1,343.5z"/>
			</g>
			<g>
				<path class="st6" d="M126.6,353.2c1.4,0.1,2.7,0.4,3.9,0.8c1.3,0.4,2.5,0.8,3.7,1.5c-1.4-0.1-2.7-0.4-3.9-0.8
					C129,354.3,127.7,353.9,126.6,353.2z"/>
			</g>
			<g>
				<path class="st6" d="M142,351.7c-1.2,0.9-2.4,1.6-3.7,2.2c-1.3,0.6-2.6,1.2-4.1,1.5c1.2-0.9,2.4-1.6,3.7-2.2
					C139.3,352.7,140.6,352.1,142,351.7z"/>
			</g>
		</g>
		<g>
			<g>
				<path class="st6" d="M67.3,338.5c0.4,1.8,0.6,3.7,0.8,5.5c0.1,1.8,0.2,3.7,0,5.5c-0.4-1.8-0.6-3.7-0.8-5.5
					C67.2,342.2,67.2,340.3,67.3,338.5z"/>
			</g>
			<g>
				<path class="st6" d="M63.7,339.2c1,1.6,1.8,3.3,2.6,5c0.7,1.7,1.4,3.4,1.9,5.3c-1-1.6-1.8-3.3-2.6-5
					C64.8,342.8,64.2,341.1,63.7,339.2z"/>
			</g>
			<g>
				<path class="st6" d="M70,341.2c0,1.4-0.3,2.8-0.6,4.2c-0.3,1.4-0.7,2.7-1.3,4.1c0-1.4,0.3-2.8,0.6-4.2
					C69,343.9,69.4,342.5,70,341.2z"/>
			</g>
			<g>
				<path class="st6" d="M72.8,340.6c-0.4,1.4-0.9,2.8-1.6,4.1c-0.6,1.3-1.3,2.6-2.2,3.8c0.4-1.4,0.9-2.8,1.6-4.1
					C71.2,343.1,71.9,341.8,72.8,340.6z"/>
			</g>
			<g>
				<path class="st6" d="M61.6,340.8c1.3,1.3,2.5,2.7,3.5,4.1c1.1,1.5,2.1,2.9,2.9,4.6c-1.3-1.3-2.5-2.7-3.5-4.1
					C63.5,343.9,62.5,342.4,61.6,340.8z"/>
			</g>
			<g>
				<path class="st6" d="M61.3,344c1.3,0.7,2.5,1.6,3.6,2.5c1.1,0.9,2.2,1.9,3.1,3.1c-1.3-0.7-2.5-1.6-3.6-2.5
					C63.4,346.1,62.3,345.1,61.3,344z"/>
			</g>
			<g>
				<path class="st6" d="M74.3,344c-0.8,1.1-1.8,2.1-2.8,3c-1,0.9-2.1,1.8-3.3,2.5c0.8-1.1,1.8-2.1,2.8-3
					C72,345.5,73.1,344.7,74.3,344z"/>
			</g>
			<g>
				<path class="st6" d="M69,337.5c0.1,2,0.1,4-0.1,6c-0.2,2-0.4,4-0.8,6c-0.1-2-0.1-4,0.1-6C68.4,341.5,68.6,339.5,69,337.5z"/>
			</g>
			<g>
				<path class="st6" d="M60.4,347.2c1.4,0.1,2.7,0.4,3.9,0.8c1.3,0.4,2.5,0.8,3.7,1.5c-1.4-0.1-2.7-0.4-3.9-0.8
					C62.9,348.3,61.6,347.9,60.4,347.2z"/>
			</g>
			<g>
				<path class="st6" d="M75.9,345.8c-1.2,0.9-2.4,1.6-3.7,2.2c-1.3,0.6-2.6,1.2-4.1,1.5c1.2-0.9,2.4-1.6,3.7-2.2
					C73.1,346.7,74.5,346.1,75.9,345.8z"/>
			</g>
		</g>
		<g>
			<g>
				<path class="st6" d="M50.6,197.5c0.4,1.3,0.5,2.7,0.7,4.1c0.1,1.4,0.1,2.7-0.1,4.1c-0.4-1.3-0.5-2.7-0.7-4.1
					C50.4,200.2,50.4,198.9,50.6,197.5z"/>
			</g>
			<g>
				<path class="st6" d="M47.9,198.1c0.8,1.1,1.4,2.4,2,3.6c0.5,1.3,1,2.6,1.3,3.9c-0.8-1.1-1.4-2.4-2-3.6
					C48.6,200.8,48.1,199.5,47.9,198.1z"/>
			</g>
			<g>
				<path class="st6" d="M52.5,199.5c0.1,1.1-0.1,2.1-0.3,3.1c-0.2,1-0.5,2-1.1,3c-0.1-1.1,0.1-2.1,0.3-3.1
					C51.7,201.5,52,200.5,52.5,199.5z"/>
			</g>
			<g>
				<path class="st6" d="M54.6,199.1c-0.2,1.1-0.6,2.1-1.1,3.1c-0.5,1-1,1.9-1.7,2.8c0.2-1.1,0.6-2.1,1.1-3.1
					C53.4,200.9,53.9,199.9,54.6,199.1z"/>
			</g>
			<g>
				<path class="st6" d="M46.3,199.2c1,0.9,1.9,1.9,2.7,3c0.8,1.1,1.5,2.2,2.1,3.4c-1-0.9-1.9-1.9-2.7-3
					C47.6,201.6,46.9,200.5,46.3,199.2z"/>
			</g>
			<g>
				<path class="st6" d="M46.1,201.6c1,0.5,1.9,1.1,2.7,1.8c0.8,0.7,1.6,1.4,2.3,2.3c-1-0.5-1.9-1.1-2.7-1.8
					C47.6,203.2,46.8,202.5,46.1,201.6z"/>
			</g>
			<g>
				<path class="st6" d="M55.7,201.6c-0.6,0.9-1.3,1.6-2,2.3c-0.8,0.7-1.6,1.3-2.5,1.8c0.6-0.9,1.3-1.6,2-2.3
					C53.9,202.7,54.7,202,55.7,201.6z"/>
			</g>
			<g>
				<path class="st6" d="M51.8,196.8c0.2,1.5,0.1,3,0,4.5c-0.1,1.5-0.3,3-0.7,4.4c-0.2-1.5-0.1-3,0-4.5
					C51.2,199.7,51.4,198.2,51.8,196.8z"/>
			</g>
			<g>
				<path class="st6" d="M45.5,204c1,0,2,0.2,2.9,0.5c0.9,0.3,1.9,0.6,2.7,1.2c-1,0-2-0.2-2.9-0.5C47.2,204.9,46.3,204.6,45.5,204z"
					/>
			</g>
			<g>
				<path class="st6" d="M56.9,202.9c-0.8,0.7-1.8,1.3-2.7,1.7c-1,0.5-2,0.9-3,1c0.8-0.7,1.8-1.3,2.7-1.7
					C54.8,203.5,55.8,203.1,56.9,202.9z"/>
			</g>
		</g>
		<g>
			<g>
				<path class="st6" d="M26.7,283.6c0.4,1.3,0.5,2.7,0.7,4.1c0.1,1.4,0.1,2.7-0.1,4.1c-0.4-1.3-0.5-2.7-0.7-4.1
					C26.6,286.3,26.5,284.9,26.7,283.6z"/>
			</g>
			<g>
				<path class="st6" d="M24,284.1c0.8,1.1,1.4,2.4,2,3.6c0.5,1.3,1,2.6,1.3,3.9c-0.8-1.1-1.4-2.4-2-3.6
					C24.8,286.8,24.3,285.5,24,284.1z"/>
			</g>
			<g>
				<path class="st6" d="M28.7,285.6c0.1,1.1-0.1,2.1-0.3,3.1c-0.2,1-0.5,2-1.1,3c-0.1-1.1,0.1-2.1,0.3-3.1
					C27.8,287.6,28.1,286.6,28.7,285.6z"/>
			</g>
			<g>
				<path class="st6" d="M30.8,285.2c-0.2,1.1-0.6,2.1-1.1,3.1c-0.5,1-1,1.9-1.7,2.8c0.2-1.1,0.6-2.1,1.1-3.1
					C29.5,287,30,286,30.8,285.2z"/>
			</g>
			<g>
				<path class="st6" d="M22.5,285.3c1,0.9,1.9,1.9,2.7,3c0.8,1.1,1.5,2.2,2.1,3.4c-1-0.9-1.9-1.9-2.7-3
					C23.8,287.7,23.1,286.6,22.5,285.3z"/>
			</g>
			<g>
				<path class="st6" d="M22.3,287.6c1,0.5,1.9,1.1,2.7,1.8c0.8,0.7,1.6,1.4,2.3,2.3c-1-0.5-1.9-1.1-2.7-1.8
					C23.7,289.3,22.9,288.6,22.3,287.6z"/>
			</g>
			<g>
				<path class="st6" d="M31.9,287.6c-0.6,0.9-1.3,1.6-2,2.3c-0.8,0.7-1.6,1.3-2.5,1.8c0.6-0.9,1.3-1.6,2-2.3
					C30.1,288.7,30.9,288.1,31.9,287.6z"/>
			</g>
			<g>
				<path class="st6" d="M28,282.9c0.2,1.5,0.1,3,0,4.5c-0.1,1.5-0.3,3-0.7,4.4c-0.2-1.5-0.1-3,0-4.5
					C27.4,285.8,27.6,284.3,28,282.9z"/>
			</g>
			<g>
				<path class="st6" d="M21.6,290.1c1,0,2,0.2,2.9,0.5c0.9,0.3,1.9,0.6,2.7,1.2c-1,0-2-0.2-2.9-0.5C23.4,291,22.5,290.6,21.6,290.1
					z"/>
			</g>
			<g>
				<path class="st6" d="M33,289c-0.8,0.7-1.8,1.3-2.7,1.7c-1,0.5-2,0.9-3,1c0.8-0.7,1.8-1.3,2.7-1.7C31,289.6,32,289.2,33,289z"/>
			</g>
		</g>
		<g>
			<g>
				<path class="st6" d="M41.9,45.6c0.4,1.3,0.5,2.7,0.7,4.1c0.1,1.4,0.1,2.7-0.1,4.1c-0.4-1.3-0.5-2.7-0.7-4.1
					C41.8,48.4,41.7,47,41.9,45.6z"/>
			</g>
			<g>
				<path class="st6" d="M39.2,46.2c0.8,1.1,1.4,2.4,2,3.6c0.5,1.3,1,2.6,1.3,3.9c-0.8-1.1-1.4-2.4-2-3.6
					C40,48.9,39.5,47.6,39.2,46.2z"/>
			</g>
			<g>
				<path class="st6" d="M43.9,47.7c0.1,1.1-0.1,2.1-0.3,3.1c-0.2,1-0.5,2-1.1,3c-0.1-1.1,0.1-2.1,0.3-3.1
					C43.1,49.6,43.3,48.6,43.9,47.7z"/>
			</g>
			<g>
				<path class="st6" d="M46,47.2c-0.2,1.1-0.6,2.1-1.1,3.1c-0.5,1-1,1.9-1.7,2.8c0.2-1.1,0.6-2.1,1.1-3.1
					C44.7,49,45.2,48.1,46,47.2z"/>
			</g>
			<g>
				<path class="st6" d="M37.7,47.4c1,0.9,1.9,1.9,2.7,3c0.8,1.1,1.5,2.2,2.1,3.4c-1-0.9-1.9-1.9-2.7-3C39,49.7,38.3,48.6,37.7,47.4
					z"/>
			</g>
			<g>
				<path class="st6" d="M37.5,49.7c1,0.5,1.9,1.1,2.7,1.8c0.8,0.7,1.6,1.4,2.3,2.3c-1-0.5-1.9-1.1-2.7-1.8
					C38.9,51.4,38.1,50.6,37.5,49.7z"/>
			</g>
			<g>
				<path class="st6" d="M47.1,49.7c-0.6,0.9-1.3,1.6-2,2.3c-0.8,0.7-1.6,1.3-2.5,1.8c0.6-0.9,1.3-1.6,2-2.3
					C45.3,50.8,46.1,50.2,47.1,49.7z"/>
			</g>
			<g>
				<path class="st6" d="M43.2,44.9c0.2,1.5,0.1,3,0,4.5c-0.1,1.5-0.3,3-0.7,4.4c-0.2-1.5-0.1-3,0-4.5
					C42.6,47.9,42.8,46.4,43.2,44.9z"/>
			</g>
			<g>
				<path class="st6" d="M36.8,52.1c1,0,2,0.2,2.9,0.5c0.9,0.3,1.9,0.6,2.7,1.2c-1,0-2-0.2-2.9-0.5C38.6,53,37.7,52.7,36.8,52.1z"/>
			</g>
			<g>
				<path class="st6" d="M48.3,51c-0.8,0.7-1.8,1.3-2.7,1.7c-1,0.5-2,0.9-3,1c0.8-0.7,1.8-1.3,2.7-1.7C46.2,51.6,47.2,51.2,48.3,51z
					"/>
			</g>
		</g>
		<g>
			<g>
				<path class="st6" d="M157,316.7c0.4,1.3,0.5,2.7,0.7,4.1c0.1,1.4,0.1,2.7-0.1,4.1c-0.4-1.3-0.5-2.7-0.7-4.1
					C156.8,319.4,156.8,318.1,157,316.7z"/>
			</g>
			<g>
				<path class="st6" d="M154.3,317.3c0.8,1.1,1.4,2.4,2,3.6c0.5,1.3,1,2.6,1.3,3.9c-0.8-1.1-1.4-2.4-2-3.6
					C155,319.9,154.5,318.7,154.3,317.3z"/>
			</g>
			<g>
				<path class="st6" d="M158.9,318.7c0.1,1.1-0.1,2.1-0.3,3.1c-0.2,1-0.5,2-1.1,3c-0.1-1.1,0.1-2.1,0.3-3.1
					C158.1,320.7,158.4,319.7,158.9,318.7z"/>
			</g>
			<g>
				<path class="st6" d="M161,318.3c-0.2,1.1-0.6,2.1-1.1,3.1c-0.5,1-1,1.9-1.7,2.8c0.2-1.1,0.6-2.1,1.1-3.1
					C159.8,320.1,160.3,319.1,161,318.3z"/>
			</g>
			<g>
				<path class="st6" d="M152.7,318.4c1,0.9,1.9,1.9,2.7,3c0.8,1.1,1.5,2.2,2.1,3.4c-1-0.9-1.9-1.9-2.7-3
					C154,320.8,153.3,319.7,152.7,318.4z"/>
			</g>
			<g>
				<path class="st6" d="M152.5,320.8c1,0.5,1.9,1.1,2.7,1.8c0.8,0.7,1.6,1.4,2.3,2.3c-1-0.5-1.9-1.1-2.7-1.8
					C154,322.4,153.2,321.7,152.5,320.8z"/>
			</g>
			<g>
				<path class="st6" d="M162.1,320.8c-0.6,0.9-1.3,1.6-2,2.3c-0.8,0.7-1.6,1.3-2.5,1.8c0.6-0.9,1.3-1.6,2-2.3
					C160.3,321.9,161.1,321.2,162.1,320.8z"/>
			</g>
			<g>
				<path class="st6" d="M158.2,316c0.2,1.5,0.1,3,0,4.5c-0.1,1.5-0.3,3-0.7,4.4c-0.2-1.5-0.1-3,0-4.5
					C157.6,318.9,157.8,317.4,158.2,316z"/>
			</g>
			<g>
				<path class="st6" d="M151.9,323.2c1,0,2,0.2,2.9,0.5c0.9,0.3,1.9,0.6,2.7,1.2c-1,0-2-0.2-2.9-0.5
					C153.6,324.1,152.7,323.7,151.9,323.2z"/>
			</g>
			<g>
				<path class="st6" d="M163.3,322.1c-0.8,0.7-1.8,1.3-2.7,1.7c-1,0.5-2,0.9-3,1c0.8-0.7,1.8-1.3,2.7-1.7
					C161.2,322.7,162.2,322.3,163.3,322.1z"/>
			</g>
		</g>
		<g>
			<g>
				<path class="st6" d="M147.6,265.9c0.4,1.3,0.5,2.7,0.7,4.1c0.1,1.4,0.1,2.7-0.1,4.1c-0.4-1.3-0.5-2.7-0.7-4.1
					C147.5,268.7,147.4,267.3,147.6,265.9z"/>
			</g>
			<g>
				<path class="st6" d="M144.9,266.5c0.8,1.1,1.4,2.4,2,3.6c0.5,1.3,1,2.6,1.3,3.9c-0.8-1.1-1.4-2.4-2-3.6
					C145.7,269.2,145.2,267.9,144.9,266.5z"/>
			</g>
			<g>
				<path class="st6" d="M149.6,268c0.1,1.1-0.1,2.1-0.3,3.1c-0.2,1-0.5,2-1.1,3c-0.1-1.1,0.1-2.1,0.3-3.1
					C148.7,269.9,149,268.9,149.6,268z"/>
			</g>
			<g>
				<path class="st6" d="M151.7,267.5c-0.2,1.1-0.6,2.1-1.1,3.1c-0.5,1-1,1.9-1.7,2.8c0.2-1.1,0.6-2.1,1.1-3.1
					C150.4,269.3,150.9,268.4,151.7,267.5z"/>
			</g>
			<g>
				<path class="st6" d="M143.4,267.7c1,0.9,1.9,1.9,2.7,3c0.8,1.1,1.5,2.2,2.1,3.4c-1-0.9-1.9-1.9-2.7-3
					C144.7,270,144,268.9,143.4,267.7z"/>
			</g>
			<g>
				<path class="st6" d="M143.2,270c1,0.5,1.9,1.1,2.7,1.8c0.8,0.7,1.6,1.4,2.3,2.3c-1-0.5-1.9-1.1-2.7-1.8
					C144.6,271.7,143.8,270.9,143.2,270z"/>
			</g>
			<g>
				<path class="st6" d="M152.8,270c-0.6,0.9-1.3,1.6-2,2.3c-0.8,0.7-1.6,1.3-2.5,1.8c0.6-0.9,1.3-1.6,2-2.3
					C151,271.1,151.8,270.5,152.8,270z"/>
			</g>
			<g>
				<path class="st6" d="M148.9,265.2c0.2,1.5,0.1,3,0,4.5c-0.1,1.5-0.3,3-0.7,4.4c-0.2-1.5-0.1-3,0-4.5
					C148.3,268.2,148.5,266.7,148.9,265.2z"/>
			</g>
			<g>
				<path class="st6" d="M142.5,272.4c1,0,2,0.2,2.9,0.5c0.9,0.3,1.9,0.6,2.7,1.2c-1,0-2-0.2-2.9-0.5
					C144.3,273.3,143.4,273,142.5,272.4z"/>
			</g>
			<g>
				<path class="st6" d="M154,271.3c-0.8,0.7-1.8,1.3-2.7,1.7c-1,0.5-2,0.9-3,1c0.8-0.7,1.8-1.3,2.7-1.7
					C151.9,271.9,152.9,271.5,154,271.3z"/>
			</g>
		</g>
		<g>
			<g>
				<path class="st6" d="M241.6,354.2c0.4,1.3,0.5,2.7,0.7,4.1c0.1,1.4,0.1,2.7-0.1,4.1c-0.4-1.3-0.5-2.7-0.7-4.1
					C241.4,357,241.4,355.6,241.6,354.2z"/>
			</g>
			<g>
				<path class="st6" d="M238.9,354.8c0.8,1.1,1.4,2.4,2,3.6c0.5,1.3,1,2.6,1.3,3.9c-0.8-1.1-1.4-2.4-2-3.6
					C239.6,357.5,239.2,356.2,238.9,354.8z"/>
			</g>
			<g>
				<path class="st6" d="M243.5,356.2c0.1,1.1-0.1,2.1-0.3,3.1c-0.2,1-0.5,2-1.1,3c-0.1-1.1,0.1-2.1,0.3-3.1
					C242.7,358.2,243,357.2,243.5,356.2z"/>
			</g>
			<g>
				<path class="st6" d="M245.6,355.8c-0.2,1.1-0.6,2.1-1.1,3.1c-0.5,1-1,1.9-1.7,2.8c0.2-1.1,0.6-2.1,1.1-3.1
					C244.4,357.6,244.9,356.7,245.6,355.8z"/>
			</g>
			<g>
				<path class="st6" d="M237.4,356c1,0.9,1.9,1.9,2.7,3c0.8,1.1,1.5,2.2,2.1,3.4c-1-0.9-1.9-1.9-2.7-3
					C238.7,358.3,237.9,357.2,237.4,356z"/>
			</g>
			<g>
				<path class="st6" d="M237.2,358.3c1,0.5,1.9,1.1,2.7,1.8c0.8,0.7,1.6,1.4,2.3,2.3c-1-0.5-1.9-1.1-2.7-1.8
					C238.6,359.9,237.8,359.2,237.2,358.3z"/>
			</g>
			<g>
				<path class="st6" d="M246.7,358.3c-0.6,0.9-1.3,1.6-2,2.3c-0.8,0.7-1.6,1.3-2.5,1.8c0.6-0.9,1.3-1.6,2-2.3
					C245,359.4,245.8,358.7,246.7,358.3z"/>
			</g>
			<g>
				<path class="st6" d="M242.8,353.5c0.2,1.5,0.1,3,0,4.5c-0.1,1.5-0.3,3-0.7,4.4c-0.2-1.5-0.1-3,0-4.5
					C242.2,356.4,242.4,355,242.8,353.5z"/>
			</g>
			<g>
				<path class="st6" d="M236.5,360.7c1,0,2,0.2,2.9,0.5c0.9,0.3,1.9,0.6,2.7,1.2c-1,0-2-0.2-2.9-0.5
					C238.3,361.6,237.3,361.3,236.5,360.7z"/>
			</g>
			<g>
				<path class="st6" d="M247.9,359.6c-0.8,0.7-1.8,1.3-2.7,1.7c-1,0.5-2,0.9-3,1c0.8-0.7,1.8-1.3,2.7-1.7
					C245.8,360.2,246.8,359.8,247.9,359.6z"/>
			</g>
		</g>
		<g>
			<g>
				<path class="st6" d="M85.2,166.2c0.2,1.9,0.1,3.8,0,5.7c-0.1,1.9-0.3,3.8-0.8,5.6c-0.2-1.9-0.1-3.8,0-5.7
					C84.6,170,84.8,168.1,85.2,166.2z"/>
			</g>
			<g>
				<path class="st6" d="M89,167c-0.5,1.9-1.2,3.7-1.9,5.4c-0.8,1.8-1.6,3.5-2.6,5.1c0.5-1.9,1.2-3.7,1.9-5.4
					C87.1,170.4,88,168.7,89,167z"/>
			</g>
			<g>
				<path class="st6" d="M82.6,169c0.6,1.4,1,2.8,1.3,4.2c0.3,1.4,0.6,2.9,0.6,4.3c-0.6-1.4-1-2.8-1.3-4.2
					C82.8,172,82.6,170.5,82.6,169z"/>
			</g>
			<g>
				<path class="st6" d="M79.6,168.4c0.9,1.2,1.6,2.5,2.3,3.9c0.6,1.4,1.2,2.7,1.6,4.2c-0.9-1.2-1.6-2.5-2.3-3.9
					C80.6,171.3,80,169.9,79.6,168.4z"/>
			</g>
			<g>
				<path class="st6" d="M91.1,168.6c-0.9,1.7-1.9,3.2-3,4.7c-1.1,1.5-2.3,2.9-3.6,4.2c0.9-1.7,1.9-3.2,3-4.7
					C88.6,171.4,89.8,169.9,91.1,168.6z"/>
			</g>
			<g>
				<path class="st6" d="M91.4,171.9c-1,1.2-2.1,2.2-3.2,3.1c-1.2,0.9-2.4,1.8-3.7,2.5c1-1.2,2.1-2.2,3.2-3.1
					C88.9,173.5,90.1,172.6,91.4,171.9z"/>
			</g>
			<g>
				<path class="st6" d="M78.1,171.9c1.3,0.7,2.4,1.6,3.4,2.6c1.1,1,2.1,1.9,2.9,3.1c-1.3-0.7-2.4-1.6-3.4-2.6
					C80,174,79,173,78.1,171.9z"/>
			</g>
			<g>
				<path class="st6" d="M83.5,165.2c0.5,2,0.7,4.1,0.8,6.1c0.1,2.1,0.2,4.1,0.1,6.2c-0.5-2-0.7-4.1-0.8-6.1
					C83.5,169.4,83.4,167.3,83.5,165.2z"/>
			</g>
			<g>
				<path class="st6" d="M92.3,175.2c-1.2,0.7-2.5,1.1-3.8,1.5c-1.3,0.4-2.6,0.7-4,0.8c1.2-0.7,2.5-1.1,3.8-1.5
					C89.6,175.6,90.9,175.3,92.3,175.2z"/>
			</g>
			<g>
				<path class="st6" d="M76.5,173.7c1.5,0.4,2.8,1,4.2,1.6c1.3,0.7,2.6,1.4,3.8,2.3c-1.5-0.4-2.8-1-4.2-1.6
					C79,175.3,77.7,174.6,76.5,173.7z"/>
			</g>
		</g>
		<g>
			<g>
				<path class="st6" d="M94.3,288.9c0.2,1.9,0.1,3.8,0,5.7c-0.1,1.9-0.3,3.8-0.8,5.6c-0.2-1.9-0.1-3.8,0-5.7
					C93.7,292.6,93.9,290.7,94.3,288.9z"/>
			</g>
			<g>
				<path class="st6" d="M98,289.7c-0.5,1.9-1.2,3.7-1.9,5.4c-0.8,1.8-1.6,3.5-2.6,5.1c0.5-1.9,1.2-3.7,1.9-5.4
					C96.2,293,97,291.3,98,289.7z"/>
			</g>
			<g>
				<path class="st6" d="M91.6,291.7c0.6,1.4,1,2.8,1.3,4.2c0.3,1.4,0.6,2.9,0.6,4.3c-0.6-1.4-1-2.8-1.3-4.2
					C91.9,294.6,91.6,293.2,91.6,291.7z"/>
			</g>
			<g>
				<path class="st6" d="M88.7,291.1c0.9,1.2,1.6,2.5,2.3,3.9c0.6,1.4,1.2,2.7,1.6,4.2c-0.9-1.2-1.6-2.5-2.3-3.9
					C89.6,293.9,89.1,292.6,88.7,291.1z"/>
			</g>
			<g>
				<path class="st6" d="M100.2,291.3c-0.9,1.7-1.9,3.2-3,4.7c-1.1,1.5-2.3,2.9-3.6,4.2c0.9-1.7,1.9-3.2,3-4.7
					C97.7,294,98.8,292.6,100.2,291.3z"/>
			</g>
			<g>
				<path class="st6" d="M100.4,294.5c-1,1.2-2.1,2.2-3.2,3.1c-1.2,0.9-2.4,1.8-3.7,2.5c1-1.2,2.1-2.2,3.2-3.1
					C97.9,296.1,99.1,295.2,100.4,294.5z"/>
			</g>
			<g>
				<path class="st6" d="M87.2,294.5c1.3,0.7,2.4,1.6,3.4,2.6c1.1,1,2.1,1.9,2.9,3.1c-1.3-0.7-2.4-1.6-3.4-2.6
					C89,296.7,88,295.7,87.2,294.5z"/>
			</g>
			<g>
				<path class="st6" d="M92.6,287.9c0.5,2,0.7,4.1,0.8,6.1c0.1,2.1,0.2,4.1,0.1,6.2c-0.5-2-0.7-4.1-0.8-6.1
					C92.5,292,92.4,290,92.6,287.9z"/>
			</g>
			<g>
				<path class="st6" d="M101.4,297.9c-1.2,0.7-2.5,1.1-3.8,1.5c-1.3,0.4-2.6,0.7-4,0.8c1.2-0.7,2.5-1.1,3.8-1.5
					C98.7,298.3,100,298,101.4,297.9z"/>
			</g>
			<g>
				<path class="st6" d="M85.5,296.3c1.5,0.4,2.8,1,4.2,1.6c1.3,0.7,2.6,1.4,3.8,2.3c-1.5-0.4-2.8-1-4.2-1.6
					C88,298,86.7,297.3,85.5,296.3z"/>
			</g>
		</g>
	</g>
	<g class="st5">
		<g>
			<path class="st6" d="M184.2,323.6c0.2,1.7,0.1,3.4,0,5.1c-0.1,1.7-0.3,3.4-0.7,5.1c-0.2-1.7-0.1-3.4,0-5.1
				C183.6,327,183.8,325.3,184.2,323.6z"/>
		</g>
		<g>
			<path class="st6" d="M187.6,324.3c-0.4,1.7-1,3.3-1.7,4.9c-0.7,1.6-1.4,3.1-2.4,4.6c0.4-1.7,1-3.3,1.7-4.9
				C185.9,327.3,186.6,325.8,187.6,324.3z"/>
		</g>
		<g>
			<path class="st6" d="M181.8,326.1c0.6,1.2,0.9,2.5,1.2,3.8c0.3,1.3,0.5,2.6,0.5,3.9c-0.6-1.2-0.9-2.5-1.2-3.8
				C182,328.8,181.7,327.5,181.8,326.1z"/>
		</g>
		<g>
			<path class="st6" d="M179.1,325.6c0.9,1.1,1.5,2.3,2.1,3.5c0.6,1.2,1.1,2.5,1.4,3.8c-0.9-1.1-1.5-2.3-2.1-3.5
				C179.9,328.2,179.4,326.9,179.1,325.6z"/>
		</g>
		<g>
			<path class="st6" d="M189.5,325.8c-0.8,1.5-1.7,2.9-2.7,4.2c-1,1.3-2.1,2.6-3.3,3.8c0.8-1.5,1.7-2.9,2.7-4.2
				C187.2,328.2,188.3,326.9,189.5,325.8z"/>
		</g>
		<g>
			<path class="st6" d="M189.7,328.7c-0.9,1.1-1.9,2-2.9,2.9c-1.1,0.8-2.1,1.6-3.4,2.3c0.9-1.1,1.9-2,2.9-2.9
				C187.4,330.1,188.5,329.3,189.7,328.7z"/>
		</g>
		<g>
			<path class="st6" d="M177.7,328.7c1.2,0.6,2.2,1.4,3.1,2.3c1,0.9,1.9,1.8,2.6,2.8c-1.2-0.6-2.2-1.4-3.1-2.3
				C179.4,330.7,178.5,329.8,177.7,328.7z"/>
		</g>
		<g>
			<path class="st6" d="M182.6,322.7c0.4,1.8,0.6,3.7,0.8,5.5c0.1,1.9,0.2,3.7,0.1,5.6c-0.4-1.8-0.6-3.7-0.8-5.5
				C182.5,326.4,182.5,324.6,182.6,322.7z"/>
		</g>
		<g>
			<path class="st6" d="M190.6,331.7c-1.1,0.6-2.3,1-3.4,1.4c-1.2,0.3-2.4,0.6-3.7,0.7c1.1-0.6,2.3-1,3.4-1.4
				C188.1,332.1,189.3,331.8,190.6,331.7z"/>
		</g>
		<g>
			<path class="st6" d="M176.2,330.3c1.3,0.3,2.6,0.8,3.8,1.4c1.2,0.6,2.4,1.2,3.5,2.1c-1.3-0.3-2.6-0.8-3.8-1.4
				C178.5,331.8,177.3,331.2,176.2,330.3z"/>
		</g>
	</g>
	<g class="st5">
		<g>
			<path class="st6" d="M52.7,356.9c0.2,1.7,0.1,3.4,0,5.1c-0.1,1.7-0.3,3.4-0.7,5.1c-0.2-1.7-0.1-3.4,0-5.1
				C52.1,360.2,52.3,358.5,52.7,356.9z"/>
		</g>
		<g>
			<path class="st6" d="M56.1,357.6c-0.4,1.7-1,3.3-1.7,4.9c-0.7,1.6-1.4,3.1-2.4,4.6c0.4-1.7,1-3.3,1.7-4.9
				C54.4,360.6,55.1,359.1,56.1,357.6z"/>
		</g>
		<g>
			<path class="st6" d="M50.3,359.4c0.6,1.2,0.9,2.5,1.2,3.8c0.3,1.3,0.5,2.6,0.5,3.9c-0.6-1.2-0.9-2.5-1.2-3.8
				C50.5,362.1,50.3,360.8,50.3,359.4z"/>
		</g>
		<g>
			<path class="st6" d="M47.6,358.9c0.9,1.1,1.5,2.3,2.1,3.5c0.6,1.2,1.1,2.5,1.4,3.8c-0.9-1.1-1.5-2.3-2.1-3.5
				C48.5,361.5,47.9,360.2,47.6,358.9z"/>
		</g>
		<g>
			<path class="st6" d="M58,359.1c-0.8,1.5-1.7,2.9-2.7,4.2c-1,1.3-2.1,2.6-3.3,3.8c0.8-1.5,1.7-2.9,2.7-4.2
				C55.7,361.5,56.8,360.2,58,359.1z"/>
		</g>
		<g>
			<path class="st6" d="M58.3,362c-0.9,1.1-1.9,2-2.9,2.9c-1.1,0.8-2.1,1.6-3.4,2.3c0.9-1.1,1.9-2,2.9-2.9
				C55.9,363.4,57,362.6,58.3,362z"/>
		</g>
		<g>
			<path class="st6" d="M46.3,362c1.2,0.6,2.2,1.4,3.1,2.3c1,0.9,1.9,1.8,2.6,2.8c-1.2-0.6-2.2-1.4-3.1-2.3
				C47.9,364,47,363.1,46.3,362z"/>
		</g>
		<g>
			<path class="st6" d="M51.1,356c0.4,1.8,0.6,3.7,0.8,5.5c0.1,1.9,0.2,3.7,0.1,5.6c-0.4-1.8-0.6-3.7-0.8-5.5
				C51.1,359.7,51,357.8,51.1,356z"/>
		</g>
		<g>
			<path class="st6" d="M59.1,365c-1.1,0.6-2.3,1-3.4,1.4c-1.2,0.3-2.4,0.6-3.7,0.7c1.1-0.6,2.3-1,3.4-1.4
				C56.6,365.4,57.8,365.1,59.1,365z"/>
		</g>
		<g>
			<path class="st6" d="M44.8,363.6c1.3,0.3,2.6,0.8,3.8,1.4c1.2,0.6,2.4,1.2,3.5,2.1c-1.3-0.3-2.6-0.8-3.8-1.4
				C47,365.1,45.8,364.5,44.8,363.6z"/>
		</g>
	</g>
	<g class="st5">
		<g>
			<path class="st6" d="M217.7,364c0.2,1.7,0.1,3.4,0,5.1c-0.1,1.7-0.3,3.4-0.7,5.1c-0.2-1.7-0.1-3.4,0-5.1
				C217.1,367.4,217.3,365.7,217.7,364z"/>
		</g>
		<g>
			<path class="st6" d="M221.1,364.8c-0.4,1.7-1,3.3-1.7,4.9c-0.7,1.6-1.4,3.1-2.4,4.6c0.4-1.7,1-3.3,1.7-4.9
				C219.4,367.8,220.1,366.2,221.1,364.8z"/>
		</g>
		<g>
			<path class="st6" d="M215.3,366.6c0.6,1.2,0.9,2.5,1.2,3.8c0.3,1.3,0.5,2.6,0.5,3.9c-0.6-1.2-0.9-2.5-1.2-3.8
				C215.5,369.2,215.3,367.9,215.3,366.6z"/>
		</g>
		<g>
			<path class="st6" d="M212.6,366c0.9,1.1,1.5,2.3,2.1,3.5c0.6,1.2,1.1,2.5,1.4,3.8c-0.9-1.1-1.5-2.3-2.1-3.5
				C213.4,368.6,212.9,367.4,212.6,366z"/>
		</g>
		<g>
			<path class="st6" d="M223,366.2c-0.8,1.5-1.7,2.9-2.7,4.2c-1,1.3-2.1,2.6-3.3,3.8c0.8-1.5,1.7-2.9,2.7-4.2
				C220.7,368.7,221.8,367.4,223,366.2z"/>
		</g>
		<g>
			<path class="st6" d="M223.2,369.2c-0.9,1.1-1.9,2-2.9,2.9c-1.1,0.8-2.1,1.6-3.4,2.3c0.9-1.1,1.9-2,2.9-2.9
				C220.9,370.6,222,369.8,223.2,369.2z"/>
		</g>
		<g>
			<path class="st6" d="M211.2,369.2c1.2,0.6,2.2,1.4,3.1,2.3c1,0.9,1.9,1.8,2.6,2.8c-1.2-0.6-2.2-1.4-3.1-2.3
				C212.9,371.1,212,370.2,211.2,369.2z"/>
		</g>
		<g>
			<path class="st6" d="M216.1,363.2c0.4,1.8,0.6,3.7,0.8,5.5c0.1,1.9,0.2,3.7,0.1,5.6c-0.4-1.8-0.6-3.7-0.8-5.5
				C216,366.9,216,365,216.1,363.2z"/>
		</g>
		<g>
			<path class="st6" d="M224.1,372.2c-1.1,0.6-2.3,1-3.4,1.4c-1.2,0.3-2.4,0.6-3.7,0.7c1.1-0.6,2.3-1,3.4-1.4
				C221.6,372.5,222.8,372.2,224.1,372.2z"/>
		</g>
		<g>
			<path class="st6" d="M209.7,370.8c1.3,0.3,2.6,0.8,3.8,1.4c1.2,0.6,2.4,1.2,3.5,2.1c-1.3-0.3-2.6-0.8-3.8-1.4
				C212,372.3,210.8,371.6,209.7,370.8z"/>
		</g>
	</g>
	<g class="st5">
		<g>
			<path class="st6" d="M111.2,300.1c0.2,1.3,0.2,2.6,0.1,3.8c-0.1,1.3-0.3,2.5-0.6,3.8c-0.2-1.3-0.2-2.6-0.1-3.8
				C110.7,302.6,110.8,301.4,111.2,300.1z"/>
		</g>
		<g>
			<path class="st6" d="M113.7,300.7c-0.2,1.3-0.7,2.5-1.2,3.7c-0.5,1.2-1.1,2.3-1.9,3.4c0.2-1.3,0.7-2.5,1.2-3.7
				C112.4,302.9,112.9,301.7,113.7,300.7z"/>
		</g>
		<g>
			<path class="st6" d="M109.4,302c0.5,0.9,0.8,1.8,1,2.8c0.2,0.9,0.3,1.9,0.3,2.9c-0.5-0.9-0.8-1.8-1-2.8
				C109.5,304,109.3,303,109.4,302z"/>
		</g>
		<g>
			<path class="st6" d="M107.5,301.6c0.7,0.8,1.2,1.6,1.6,2.5c0.4,0.9,0.8,1.8,1,2.9c-0.7-0.8-1.2-1.6-1.6-2.5
				C108,303.6,107.6,302.6,107.5,301.6z"/>
		</g>
		<g>
			<path class="st6" d="M115.1,301.8c-0.5,1.2-1.2,2.2-1.9,3.2c-0.8,1-1.5,1.9-2.5,2.8c0.5-1.2,1.2-2.2,1.9-3.2
				C113.4,303.5,114.2,302.6,115.1,301.8z"/>
		</g>
		<g>
			<path class="st6" d="M115.3,303.9c-0.6,0.9-1.3,1.5-2.1,2.2c-0.8,0.6-1.6,1.2-2.6,1.6c0.6-0.9,1.3-1.5,2.1-2.2
				C113.6,304.9,114.4,304.3,115.3,303.9z"/>
		</g>
		<g>
			<path class="st6" d="M106.4,303.9c0.9,0.4,1.7,1,2.4,1.6c0.7,0.6,1.4,1.3,1.9,2.2c-0.9-0.4-1.7-1-2.4-1.6
				C107.6,305.5,107,304.8,106.4,303.9z"/>
		</g>
		<g>
			<path class="st6" d="M110.1,299.5c0.4,1.3,0.6,2.7,0.7,4.1c0.1,1.4,0.1,2.7-0.1,4.1c-0.4-1.3-0.6-2.7-0.7-4.1
				C109.9,302.2,109.9,300.9,110.1,299.5z"/>
		</g>
		<g>
			<path class="st6" d="M116,306.2c-0.8,0.5-1.7,0.9-2.5,1.1c-0.9,0.2-1.8,0.4-2.7,0.4c0.8-0.5,1.6-0.9,2.5-1.1
				C114.1,306.3,115,306.1,116,306.2z"/>
		</g>
		<g>
			<path class="st6" d="M105.3,305.1c1,0.2,1.9,0.5,2.8,0.9c0.9,0.4,1.7,0.9,2.5,1.6c-1-0.2-1.9-0.5-2.8-0.9
				C107,306.3,106.1,305.8,105.3,305.1z"/>
		</g>
	</g>
	<g class="st5">
		<g>
			<path class="st6" d="M116,342.3c0.2,1.3,0.2,2.6,0.1,3.8c-0.1,1.3-0.3,2.5-0.6,3.8c-0.2-1.3-0.2-2.6-0.1-3.8
				C115.5,344.8,115.7,343.6,116,342.3z"/>
		</g>
		<g>
			<path class="st6" d="M118.5,342.9c-0.2,1.3-0.7,2.5-1.2,3.7c-0.5,1.2-1.1,2.3-1.9,3.4c0.2-1.3,0.7-2.5,1.2-3.7
				C117.2,345.1,117.8,343.9,118.5,342.9z"/>
		</g>
		<g>
			<path class="st6" d="M114.3,344.2c0.5,0.9,0.8,1.8,1,2.8c0.2,0.9,0.3,1.9,0.3,2.9c-0.5-0.9-0.8-1.8-1-2.8
				C114.3,346.2,114.2,345.2,114.3,344.2z"/>
		</g>
		<g>
			<path class="st6" d="M112.3,343.8c0.7,0.8,1.2,1.6,1.6,2.5c0.4,0.9,0.8,1.8,1,2.9c-0.7-0.8-1.2-1.6-1.6-2.5
				C112.8,345.8,112.5,344.9,112.3,343.8z"/>
		</g>
		<g>
			<path class="st6" d="M120,344c-0.5,1.2-1.2,2.2-1.9,3.2c-0.8,1-1.5,1.9-2.5,2.8c0.5-1.2,1.2-2.2,1.9-3.2
				C118.2,345.7,119,344.8,120,344z"/>
		</g>
		<g>
			<path class="st6" d="M120.2,346.1c-0.6,0.9-1.3,1.5-2.1,2.2c-0.8,0.6-1.6,1.2-2.6,1.6c0.6-0.9,1.3-1.5,2.1-2.2
				C118.4,347.1,119.2,346.5,120.2,346.1z"/>
		</g>
		<g>
			<path class="st6" d="M111.3,346.1c0.9,0.4,1.7,1,2.4,1.6c0.7,0.6,1.4,1.3,1.9,2.2c-0.9-0.4-1.7-1-2.4-1.6
				C112.4,347.7,111.8,347,111.3,346.1z"/>
		</g>
		<g>
			<path class="st6" d="M114.9,341.7c0.4,1.3,0.6,2.7,0.7,4.1c0.1,1.4,0.1,2.7-0.1,4.1c-0.4-1.3-0.6-2.7-0.7-4.1
				C114.7,344.5,114.7,343.1,114.9,341.7z"/>
		</g>
		<g>
			<path class="st6" d="M120.8,348.4c-0.8,0.5-1.7,0.9-2.5,1.1c-0.9,0.2-1.8,0.4-2.7,0.4c0.8-0.5,1.6-0.9,2.5-1.1
				C118.9,348.5,119.8,348.3,120.8,348.4z"/>
		</g>
		<g>
			<path class="st6" d="M110.2,347.3c1,0.2,1.9,0.5,2.8,0.9c0.9,0.4,1.7,0.9,2.5,1.6c-1-0.2-1.9-0.5-2.8-0.9
				C111.8,348.5,110.9,348,110.2,347.3z"/>
		</g>
	</g>
	<g class="st5">
		<g>
			<path class="st6" d="M37.9,188.3c0.2,1.3,0.2,2.6,0.1,3.8c-0.1,1.3-0.3,2.5-0.6,3.8c-0.2-1.3-0.2-2.6-0.1-3.8
				C37.4,190.8,37.5,189.5,37.9,188.3z"/>
		</g>
		<g>
			<path class="st6" d="M40.4,188.8c-0.2,1.3-0.7,2.5-1.2,3.7c-0.5,1.2-1.1,2.3-1.9,3.4c0.2-1.3,0.7-2.5,1.2-3.7
				C39.1,191,39.6,189.9,40.4,188.8z"/>
		</g>
		<g>
			<path class="st6" d="M36.1,190.2c0.5,0.9,0.8,1.8,1,2.8c0.2,0.9,0.3,1.9,0.3,2.9c-0.5-0.9-0.8-1.8-1-2.8
				C36.2,192.1,36,191.2,36.1,190.2z"/>
		</g>
		<g>
			<path class="st6" d="M34.2,189.8c0.7,0.8,1.2,1.6,1.6,2.5c0.4,0.9,0.8,1.8,1,2.9c-0.7-0.8-1.2-1.6-1.6-2.5
				C34.7,191.7,34.3,190.8,34.2,189.8z"/>
		</g>
		<g>
			<path class="st6" d="M41.8,189.9c-0.5,1.2-1.2,2.2-1.9,3.2c-0.8,1-1.5,1.9-2.5,2.8c0.5-1.2,1.2-2.2,1.9-3.2
				C40.1,191.7,40.9,190.7,41.8,189.9z"/>
		</g>
		<g>
			<path class="st6" d="M42,192.1c-0.6,0.9-1.3,1.5-2.1,2.2c-0.8,0.6-1.6,1.2-2.6,1.6c0.6-0.9,1.3-1.5,2.1-2.2
				C40.3,193,41.1,192.5,42,192.1z"/>
		</g>
		<g>
			<path class="st6" d="M33.1,192.1c0.9,0.4,1.7,1,2.4,1.6c0.7,0.6,1.4,1.3,1.9,2.2c-0.9-0.4-1.7-1-2.4-1.6
				C34.3,193.6,33.7,192.9,33.1,192.1z"/>
		</g>
		<g>
			<path class="st6" d="M36.8,187.6c0.4,1.3,0.6,2.7,0.7,4.1c0.1,1.4,0.1,2.7-0.1,4.1c-0.4-1.3-0.6-2.7-0.7-4.1
				C36.6,190.4,36.6,189,36.8,187.6z"/>
		</g>
		<g>
			<path class="st6" d="M42.7,194.3c-0.8,0.5-1.7,0.9-2.5,1.1c-0.9,0.2-1.8,0.4-2.7,0.4c0.8-0.5,1.6-0.9,2.5-1.1
				C40.8,194.5,41.7,194.3,42.7,194.3z"/>
		</g>
		<g>
			<path class="st6" d="M32,193.3c1,0.2,1.9,0.5,2.8,0.9c0.9,0.4,1.7,0.9,2.5,1.6c-1-0.2-1.9-0.5-2.8-0.9
				C33.7,194.5,32.8,194,32,193.3z"/>
		</g>
	</g>
	<g class="st5">
		<g>
			<path class="st6" d="M29,113.4c0.2,1.3,0.2,2.6,0.1,3.8c-0.1,1.3-0.3,2.5-0.6,3.8c-0.2-1.3-0.2-2.6-0.1-3.8
				C28.4,115.9,28.6,114.6,29,113.4z"/>
		</g>
		<g>
			<path class="st6" d="M31.5,113.9c-0.2,1.3-0.7,2.5-1.2,3.7c-0.5,1.2-1.1,2.3-1.9,3.4c0.2-1.3,0.7-2.5,1.2-3.7
				C30.1,116.1,30.7,115,31.5,113.9z"/>
		</g>
		<g>
			<path class="st6" d="M27.2,115.3c0.5,0.9,0.8,1.8,1,2.8c0.2,0.9,0.3,1.9,0.3,2.9c-0.5-0.9-0.8-1.8-1-2.8
				C27.2,117.2,27.1,116.3,27.2,115.3z"/>
		</g>
		<g>
			<path class="st6" d="M25.2,114.8c0.7,0.8,1.2,1.6,1.6,2.5c0.4,0.9,0.8,1.8,1,2.9c-0.7-0.8-1.2-1.6-1.6-2.5
				C25.8,116.8,25.4,115.9,25.2,114.8z"/>
		</g>
		<g>
			<path class="st6" d="M32.9,115c-0.5,1.2-1.2,2.2-1.9,3.2c-0.8,1-1.5,1.9-2.5,2.8c0.5-1.2,1.2-2.2,1.9-3.2
				C31.1,116.7,31.9,115.8,32.9,115z"/>
		</g>
		<g>
			<path class="st6" d="M33.1,117.1c-0.6,0.9-1.3,1.5-2.1,2.2c-0.8,0.6-1.6,1.2-2.6,1.6c0.6-0.9,1.3-1.5,2.1-2.2
				C31.3,118.1,32.1,117.5,33.1,117.1z"/>
		</g>
		<g>
			<path class="st6" d="M24.2,117.1c0.9,0.4,1.7,1,2.4,1.6c0.7,0.6,1.4,1.3,1.9,2.2c-0.9-0.4-1.7-1-2.4-1.6
				C25.4,118.7,24.7,118,24.2,117.1z"/>
		</g>
		<g>
			<path class="st6" d="M27.8,112.7c0.4,1.3,0.6,2.7,0.7,4.1c0.1,1.4,0.1,2.7-0.1,4.1c-0.4-1.3-0.6-2.7-0.7-4.1
				C27.7,115.5,27.6,114.1,27.8,112.7z"/>
		</g>
		<g>
			<path class="st6" d="M33.7,119.4c-0.8,0.5-1.7,0.9-2.5,1.1c-0.9,0.2-1.8,0.4-2.7,0.4c0.8-0.5,1.6-0.9,2.5-1.1
				C31.9,119.6,32.7,119.4,33.7,119.4z"/>
		</g>
		<g>
			<path class="st6" d="M23.1,118.4c1,0.2,1.9,0.5,2.8,0.9c0.9,0.4,1.7,0.9,2.5,1.6c-1-0.2-1.9-0.5-2.8-0.9
				C24.7,119.5,23.9,119.1,23.1,118.4z"/>
		</g>
	</g>
	<g class="st5">
		<g>
			<path class="st6" d="M85.6,253.3c0.2,1.3,0.2,2.6,0.1,3.8c-0.1,1.3-0.3,2.5-0.6,3.8c-0.2-1.3-0.2-2.6-0.1-3.8
				C85.1,255.8,85.3,254.6,85.6,253.3z"/>
		</g>
		<g>
			<path class="st6" d="M88.2,253.9c-0.2,1.3-0.7,2.5-1.2,3.7c-0.5,1.2-1.1,2.3-1.9,3.4c0.2-1.3,0.7-2.5,1.2-3.7
				C86.8,256.1,87.4,254.9,88.2,253.9z"/>
		</g>
		<g>
			<path class="st6" d="M83.9,255.2c0.5,0.9,0.8,1.8,1,2.8c0.2,0.9,0.3,1.9,0.3,2.9c-0.5-0.9-0.8-1.8-1-2.8
				C83.9,257.2,83.8,256.2,83.9,255.2z"/>
		</g>
		<g>
			<path class="st6" d="M81.9,254.8c0.7,0.8,1.2,1.6,1.6,2.5c0.4,0.9,0.8,1.8,1,2.9c-0.7-0.8-1.2-1.6-1.6-2.5
				C82.4,256.8,82.1,255.8,81.9,254.8z"/>
		</g>
		<g>
			<path class="st6" d="M89.6,254.9c-0.5,1.2-1.2,2.2-1.9,3.2c-0.8,1-1.5,1.9-2.5,2.8c0.5-1.2,1.2-2.2,1.9-3.2
				C87.8,256.7,88.6,255.8,89.6,254.9z"/>
		</g>
		<g>
			<path class="st6" d="M89.8,257.1c-0.6,0.9-1.3,1.5-2.1,2.2c-0.8,0.6-1.6,1.2-2.6,1.6c0.6-0.9,1.3-1.5,2.1-2.2
				C88,258.1,88.8,257.5,89.8,257.1z"/>
		</g>
		<g>
			<path class="st6" d="M80.9,257.1c0.9,0.4,1.7,1,2.4,1.6c0.7,0.6,1.4,1.3,1.9,2.2c-0.9-0.4-1.7-1-2.4-1.6
				C82.1,258.6,81.4,258,80.9,257.1z"/>
		</g>
		<g>
			<path class="st6" d="M84.5,252.7c0.4,1.3,0.6,2.7,0.7,4.1c0.1,1.4,0.1,2.7-0.1,4.1c-0.4-1.3-0.6-2.7-0.7-4.1
				C84.3,255.4,84.3,254.1,84.5,252.7z"/>
		</g>
		<g>
			<path class="st6" d="M90.4,259.3c-0.8,0.5-1.7,0.9-2.5,1.1c-0.9,0.2-1.8,0.4-2.7,0.4c0.8-0.5,1.6-0.9,2.5-1.1
				C88.5,259.5,89.4,259.3,90.4,259.3z"/>
		</g>
		<g>
			<path class="st6" d="M79.8,258.3c1,0.2,1.9,0.5,2.8,0.9c0.9,0.4,1.7,0.9,2.5,1.6c-1-0.2-1.9-0.5-2.8-0.9
				C81.4,259.5,80.5,259,79.8,258.3z"/>
		</g>
	</g>
	<g class="st5">
		<g>
			<path class="st6" d="M111.8,243c0.2,1.3,0.2,2.6,0.1,3.8c-0.1,1.3-0.3,2.5-0.6,3.8c-0.2-1.3-0.2-2.6-0.1-3.8
				C111.3,245.5,111.5,244.3,111.8,243z"/>
		</g>
		<g>
			<path class="st6" d="M114.4,243.6c-0.2,1.3-0.7,2.5-1.2,3.7c-0.5,1.2-1.1,2.3-1.9,3.4c0.2-1.3,0.7-2.5,1.2-3.7
				C113,245.8,113.6,244.6,114.4,243.6z"/>
		</g>
		<g>
			<path class="st6" d="M110.1,244.9c0.5,0.9,0.8,1.8,1,2.8c0.2,0.9,0.3,1.9,0.3,2.9c-0.5-0.9-0.8-1.8-1-2.8
				C110.1,246.9,110,246,110.1,244.9z"/>
		</g>
		<g>
			<path class="st6" d="M108.1,244.5c0.7,0.8,1.2,1.6,1.6,2.5c0.4,0.9,0.8,1.8,1,2.9c-0.7-0.8-1.2-1.6-1.6-2.5
				C108.6,246.5,108.3,245.6,108.1,244.5z"/>
		</g>
		<g>
			<path class="st6" d="M115.8,244.7c-0.5,1.2-1.2,2.2-1.9,3.2c-0.8,1-1.5,1.9-2.5,2.8c0.5-1.2,1.2-2.2,1.9-3.2
				C114,246.4,114.8,245.5,115.8,244.7z"/>
		</g>
		<g>
			<path class="st6" d="M116,246.8c-0.6,0.9-1.3,1.5-2.1,2.2c-0.8,0.6-1.6,1.2-2.6,1.6c0.6-0.9,1.3-1.5,2.1-2.2
				C114.2,247.8,115,247.2,116,246.8z"/>
		</g>
		<g>
			<path class="st6" d="M107.1,246.8c0.9,0.4,1.7,1,2.4,1.6c0.7,0.6,1.4,1.3,1.9,2.2c-0.9-0.4-1.7-1-2.4-1.6
				C108.3,248.4,107.6,247.7,107.1,246.8z"/>
		</g>
		<g>
			<path class="st6" d="M110.7,242.4c0.4,1.3,0.6,2.7,0.7,4.1c0.1,1.4,0.1,2.7-0.1,4.1c-0.4-1.3-0.6-2.7-0.7-4.1
				C110.5,245.2,110.5,243.8,110.7,242.4z"/>
		</g>
		<g>
			<path class="st6" d="M116.6,249.1c-0.8,0.5-1.7,0.9-2.5,1.1c-0.9,0.2-1.8,0.4-2.7,0.4c0.8-0.5,1.6-0.9,2.5-1.1
				C114.7,249.2,115.6,249,116.6,249.1z"/>
		</g>
		<g>
			<path class="st6" d="M106,248.1c1,0.2,1.9,0.5,2.8,0.9c0.9,0.4,1.7,0.9,2.5,1.6c-1-0.2-1.9-0.5-2.8-0.9
				C107.6,249.2,106.7,248.7,106,248.1z"/>
		</g>
	</g>
	<g class="st5">
		<g>
			<path class="st6" d="M60.6,309.9c0.2,1.3,0.2,2.6,0.1,3.8c-0.1,1.3-0.3,2.5-0.6,3.8c-0.2-1.3-0.2-2.6-0.1-3.8
				C60.1,312.4,60.2,311.1,60.6,309.9z"/>
		</g>
		<g>
			<path class="st6" d="M63.1,310.4c-0.2,1.3-0.7,2.5-1.2,3.7c-0.5,1.2-1.1,2.3-1.9,3.4c0.2-1.3,0.7-2.5,1.2-3.7
				C61.8,312.6,62.3,311.5,63.1,310.4z"/>
		</g>
		<g>
			<path class="st6" d="M58.8,311.8c0.5,0.9,0.8,1.8,1,2.8c0.2,0.9,0.3,1.9,0.3,2.9c-0.5-0.9-0.8-1.8-1-2.8
				C58.9,313.8,58.7,312.8,58.8,311.8z"/>
		</g>
		<g>
			<path class="st6" d="M56.8,311.4c0.7,0.8,1.2,1.6,1.6,2.5c0.4,0.9,0.8,1.8,1,2.9c-0.7-0.8-1.2-1.6-1.6-2.5
				C57.4,313.4,57,312.4,56.8,311.4z"/>
		</g>
		<g>
			<path class="st6" d="M64.5,311.5c-0.5,1.2-1.2,2.2-1.9,3.2c-0.8,1-1.5,1.9-2.5,2.8c0.5-1.2,1.2-2.2,1.9-3.2
				C62.7,313.3,63.5,312.3,64.5,311.5z"/>
		</g>
		<g>
			<path class="st6" d="M64.7,313.7c-0.6,0.9-1.3,1.5-2.1,2.2c-0.8,0.6-1.6,1.2-2.6,1.6c0.6-0.9,1.3-1.5,2.1-2.2
				C62.9,314.7,63.7,314.1,64.7,313.7z"/>
		</g>
		<g>
			<path class="st6" d="M55.8,313.7c0.9,0.4,1.7,1,2.4,1.6c0.7,0.6,1.4,1.3,1.9,2.2c-0.9-0.4-1.7-1-2.4-1.6
				C57,315.2,56.3,314.5,55.8,313.7z"/>
		</g>
		<g>
			<path class="st6" d="M59.4,309.3c0.4,1.3,0.6,2.7,0.7,4.1c0.1,1.4,0.1,2.7-0.1,4.1c-0.4-1.3-0.6-2.7-0.7-4.1
				C59.3,312,59.2,310.6,59.4,309.3z"/>
		</g>
		<g>
			<path class="st6" d="M65.3,315.9c-0.8,0.5-1.7,0.9-2.5,1.1c-0.9,0.2-1.8,0.4-2.7,0.4c0.8-0.5,1.6-0.9,2.5-1.1
				C63.5,316.1,64.4,315.9,65.3,315.9z"/>
		</g>
		<g>
			<path class="st6" d="M54.7,314.9c1,0.2,1.9,0.5,2.8,0.9c0.9,0.4,1.7,0.9,2.5,1.6c-1-0.2-1.9-0.5-2.8-0.9
				C56.3,316.1,55.5,315.6,54.7,314.9z"/>
		</g>
	</g>
	<g class="st5">
		<g>
			<path class="st6" d="M186.1,296c0.2,1.3,0.2,2.6,0.1,3.8c-0.1,1.3-0.3,2.5-0.6,3.8c-0.2-1.3-0.2-2.6-0.1-3.8
				C185.5,298.5,185.7,297.2,186.1,296z"/>
		</g>
		<g>
			<path class="st6" d="M188.6,296.5c-0.2,1.3-0.7,2.5-1.2,3.7c-0.5,1.2-1.1,2.3-1.9,3.4c0.2-1.3,0.7-2.5,1.2-3.7
				C187.2,298.7,187.8,297.6,188.6,296.5z"/>
		</g>
		<g>
			<path class="st6" d="M184.3,297.9c0.5,0.9,0.8,1.8,1,2.8c0.2,0.9,0.3,1.9,0.3,2.9c-0.5-0.9-0.8-1.8-1-2.8
				C184.4,299.9,184.2,298.9,184.3,297.9z"/>
		</g>
		<g>
			<path class="st6" d="M182.3,297.5c0.7,0.8,1.2,1.6,1.6,2.5c0.4,0.9,0.8,1.8,1,2.9c-0.7-0.8-1.2-1.6-1.6-2.5
				C182.9,299.5,182.5,298.5,182.3,297.5z"/>
		</g>
		<g>
			<path class="st6" d="M190,297.6c-0.5,1.2-1.2,2.2-1.9,3.2c-0.8,1-1.5,1.9-2.5,2.8c0.5-1.2,1.2-2.2,1.9-3.2
				C188.2,299.4,189,298.4,190,297.6z"/>
		</g>
		<g>
			<path class="st6" d="M190.2,299.8c-0.6,0.9-1.3,1.5-2.1,2.2c-0.8,0.6-1.6,1.2-2.6,1.6c0.6-0.9,1.3-1.5,2.1-2.2
				C188.4,300.8,189.2,300.2,190.2,299.8z"/>
		</g>
		<g>
			<path class="st6" d="M181.3,299.8c0.9,0.4,1.7,1,2.4,1.6c0.7,0.6,1.4,1.3,1.9,2.2c-0.9-0.4-1.7-1-2.4-1.6
				C182.5,301.3,181.8,300.6,181.3,299.8z"/>
		</g>
		<g>
			<path class="st6" d="M184.9,295.4c0.4,1.3,0.6,2.7,0.7,4.1c0.1,1.4,0.1,2.7-0.1,4.1c-0.4-1.3-0.6-2.7-0.7-4.1
				C184.8,298.1,184.7,296.7,184.9,295.4z"/>
		</g>
		<g>
			<path class="st6" d="M190.8,302c-0.8,0.5-1.7,0.9-2.5,1.1c-0.9,0.2-1.8,0.4-2.7,0.4c0.8-0.5,1.6-0.9,2.5-1.1
				C189,302.2,189.9,302,190.8,302z"/>
		</g>
		<g>
			<path class="st6" d="M180.2,301c1,0.2,1.9,0.5,2.8,0.9c0.9,0.4,1.7,0.9,2.5,1.6c-1-0.2-1.9-0.5-2.8-0.9
				C181.8,302.2,181,301.7,180.2,301z"/>
		</g>
	</g>
	<g class="st5">
		<g>
			<path class="st6" d="M83.8,211.8c0.4,1.7,0.6,3.5,0.7,5.2c0.1,1.8,0.2,3.5,0,5.3c-0.4-1.7-0.6-3.5-0.7-5.2
				C83.6,215.3,83.6,213.5,83.8,211.8z"/>
		</g>
		<g>
			<path class="st6" d="M80.3,212.5c1,1.5,1.7,3.1,2.4,4.7c0.7,1.6,1.3,3.3,1.8,5c-1-1.5-1.7-3.1-2.4-4.7
				C81.4,215.9,80.7,214.3,80.3,212.5z"/>
		</g>
		<g>
			<path class="st6" d="M86.3,214.4c0,1.4-0.2,2.7-0.5,4c-0.3,1.3-0.7,2.6-1.2,3.9c0-1.4,0.2-2.7,0.5-4
				C85.3,216.9,85.7,215.6,86.3,214.4z"/>
		</g>
		<g>
			<path class="st6" d="M89,213.8c-0.3,1.4-0.9,2.7-1.5,3.9c-0.6,1.2-1.3,2.5-2.1,3.6c0.3-1.4,0.9-2.7,1.5-3.9
				C87.4,216.2,88.1,214.9,89,213.8z"/>
		</g>
		<g>
			<path class="st6" d="M78.3,214c1.3,1.2,2.4,2.5,3.4,3.9c1,1.4,2,2.8,2.8,4.4c-1.3-1.2-2.4-2.5-3.4-3.9
				C80.1,217,79.1,215.6,78.3,214z"/>
		</g>
		<g>
			<path class="st6" d="M78.1,217c1.3,0.6,2.4,1.5,3.5,2.3c1.1,0.9,2.1,1.8,3,2.9c-1.3-0.6-2.4-1.5-3.5-2.3
				C80,219,78.9,218.1,78.1,217z"/>
		</g>
		<g>
			<path class="st6" d="M90.4,217c-0.8,1.1-1.7,2-2.7,2.9c-1,0.9-2,1.7-3.2,2.3c0.8-1.1,1.7-2,2.7-2.9
				C88.2,218.5,89.2,217.7,90.4,217z"/>
		</g>
		<g>
			<path class="st6" d="M85.4,210.8c0.1,1.9,0.1,3.8-0.1,5.7c-0.2,1.9-0.4,3.8-0.8,5.7c-0.1-1.9-0.1-3.8,0.1-5.7
				C84.7,214.6,84.9,212.7,85.4,210.8z"/>
		</g>
		<g>
			<path class="st6" d="M77.2,220.1c1.3,0.1,2.5,0.4,3.8,0.7c1.2,0.4,2.4,0.8,3.5,1.4c-1.3-0.1-2.5-0.4-3.8-0.7
				C79.5,221.2,78.3,220.8,77.2,220.1z"/>
		</g>
		<g>
			<path class="st6" d="M91.9,218.7c-1.1,0.9-2.3,1.5-3.5,2.1c-1.2,0.6-2.5,1.1-3.9,1.4c1.1-0.9,2.3-1.5,3.5-2.1
				C89.3,219.6,90.5,219,91.9,218.7z"/>
		</g>
	</g>
	<g class="st5">
		<g>
			<path class="st6" d="M31.3,248.7c0.4,1.7,0.6,3.5,0.7,5.2c0.1,1.8,0.2,3.5,0,5.3c-0.4-1.7-0.6-3.5-0.7-5.2
				C31.2,252.2,31.1,250.4,31.3,248.7z"/>
		</g>
		<g>
			<path class="st6" d="M27.8,249.4c1,1.5,1.7,3.1,2.4,4.7c0.7,1.6,1.3,3.3,1.8,5c-1-1.5-1.7-3.1-2.4-4.7
				C28.9,252.8,28.2,251.1,27.8,249.4z"/>
		</g>
		<g>
			<path class="st6" d="M33.8,251.3c0,1.4-0.2,2.7-0.5,4c-0.3,1.3-0.7,2.6-1.2,3.9c0-1.4,0.2-2.7,0.5-4
				C32.8,253.8,33.2,252.5,33.8,251.3z"/>
		</g>
		<g>
			<path class="st6" d="M36.5,250.7c-0.3,1.4-0.9,2.7-1.5,3.9c-0.6,1.2-1.3,2.5-2.1,3.6c0.3-1.4,0.9-2.7,1.5-3.9
				C35,253.1,35.6,251.8,36.5,250.7z"/>
		</g>
		<g>
			<path class="st6" d="M25.8,250.9c1.3,1.2,2.4,2.5,3.4,3.9c1,1.4,2,2.8,2.8,4.4c-1.3-1.2-2.4-2.5-3.4-3.9
				C27.6,253.9,26.6,252.5,25.8,250.9z"/>
		</g>
		<g>
			<path class="st6" d="M25.6,253.9c1.3,0.6,2.4,1.5,3.5,2.3c1.1,0.9,2.1,1.8,3,2.9c-1.3-0.6-2.4-1.5-3.5-2.3
				C27.5,255.9,26.5,255,25.6,253.9z"/>
		</g>
		<g>
			<path class="st6" d="M37.9,253.9c-0.8,1.1-1.7,2-2.7,2.9c-1,0.9-2,1.7-3.2,2.3c0.8-1.1,1.7-2,2.7-2.9
				C35.7,255.4,36.7,254.6,37.9,253.9z"/>
		</g>
		<g>
			<path class="st6" d="M32.9,247.7c0.1,1.9,0.1,3.8-0.1,5.7c-0.2,1.9-0.4,3.8-0.8,5.7c-0.1-1.9-0.1-3.8,0.1-5.7
				C32.2,251.5,32.5,249.6,32.9,247.7z"/>
		</g>
		<g>
			<path class="st6" d="M24.7,257c1.3,0.1,2.5,0.4,3.8,0.7c1.2,0.4,2.4,0.8,3.5,1.4c-1.3-0.1-2.5-0.4-3.8-0.7
				C27,258.1,25.8,257.7,24.7,257z"/>
		</g>
		<g>
			<path class="st6" d="M39.4,255.6c-1.1,0.9-2.3,1.5-3.5,2.1c-1.2,0.6-2.5,1.1-3.9,1.4c1.1-0.9,2.3-1.5,3.5-2.1
				C36.8,256.5,38.1,255.9,39.4,255.6z"/>
		</g>
	</g>
	<g>
		<polygon class="st1" points="21.4,14.3 13.1,21.4 20.7,13.6 		"/>
	</g>
	<g>
		<polygon class="st1" points="21.4,16.7 13.1,23.9 20.7,16 		"/>
	</g>
	<g>
		<polygon class="st1" points="21.4,19.5 13.1,26.7 20.7,18.8 		"/>
	</g>
	<g>
		<polygon class="st1" points="21.4,22.4 13.1,29.5 20.7,21.6 		"/>
	</g>
	<g>
		<polygon class="st1" points="21.4,35.6 13.1,42.7 20.7,34.8 		"/>
	</g>
	<g>
		<polygon class="st1" points="21.4,38 13.1,45.1 20.7,37.2 		"/>
	</g>
	<g>
		<polygon class="st1" points="21.4,40.8 13.1,47.9 20.7,40 		"/>
	</g>
	<g>
		<polygon class="st1" points="20.4,76.4 12.1,83.6 19.7,75.7 		"/>
	</g>
	<g>
		<polygon class="st1" points="20.4,78.9 12.1,86 19.7,78.1 		"/>
	</g>
	<g>
		<polygon class="st1" points="20.4,81.7 12.1,88.8 19.7,80.9 		"/>
	</g>
	<g>
		<polygon class="st1" points="20.4,84.5 12.1,91.6 19.7,83.8 		"/>
	</g>
	<g>
		<polygon class="st1" points="89.6,112 83.8,121.3 88.7,111.5 		"/>
	</g>
	<g>
		<polygon class="st1" points="90.5,114.6 84.7,124 89.6,114.1 		"/>
	</g>
	<g>
		<polygon class="st1" points="91.3,117.3 85.6,126.7 90.5,116.8 		"/>
	</g>
	<g>
		<polygon class="st1" points="55,74.8 51.8,85.3 54,74.5 		"/>
	</g>
	<g>
		<polygon class="st1" points="55.3,78.8 52.1,89.3 54.3,78.6 		"/>
	</g>
	<g>
		<polygon class="st1" points="57.8,79.1 54.6,89.7 56.8,78.9 		"/>
	</g>
	<g>
		<polygon class="st1" points="60.3,78.5 57.1,89.1 59.4,78.3 		"/>
	</g>
	<g>
		<polygon class="st1" points="19.5,165.9 11.1,173 18.8,165.1 		"/>
	</g>
	<g>
		<polygon class="st1" points="19.5,168.3 11.1,175.4 18.8,167.6 		"/>
	</g>
	<g>
		<polygon class="st1" points="19.5,171.1 11.1,178.2 18.8,170.4 		"/>
	</g>
	<g>
		<polygon class="st1" points="19.5,173.9 11.1,181.1 18.8,173.2 		"/>
	</g>
	<g>
		<polygon class="st1" points="19.5,182.5 11.1,189.6 18.8,181.8 		"/>
	</g>
	<g>
		<polygon class="st1" points="19.5,185.3 11.1,192.4 18.8,184.6 		"/>
	</g>
	<g>
		<polygon class="st1" points="19.5,188.1 11.1,195.3 18.8,187.4 		"/>
	</g>
	<g>
		<polygon class="st1" points="17.5,280.5 9.1,287.7 16.8,279.8 		"/>
	</g>
	<g>
		<polygon class="st1" points="17.5,283 9.1,290.1 16.8,282.2 		"/>
	</g>
	<g>
		<polygon class="st1" points="17.5,285.7 9.1,292.9 16.8,285 		"/>
	</g>
	<g>
		<polygon class="st1" points="17.5,288.6 9.1,295.7 16.8,287.9 		"/>
	</g>
	<g>
		<polygon class="st1" points="151.5,380 145.8,385 150.8,379.2 		"/>
	</g>
	<g>
		<polygon class="st1" points="155.2,380 149.5,385 154.5,379.2 		"/>
	</g>
	<g>
		<polygon class="st1" points="158.5,380 152.8,385 157.8,379.2 		"/>
	</g>
	<g>
		<polygon class="st1" points="206.4,380 200.1,385.6 205.7,379.2 		"/>
	</g>
	<g>
		<polygon class="st1" points="209.5,380 203.8,385 208.8,379.2 		"/>
	</g>
	<g>
		<polygon class="st1" points="213.2,380 207.5,385 212.5,379.2 		"/>
	</g>
	<g>
		<polygon class="st1" points="216.5,380 210.8,385 215.8,379.2 		"/>
	</g>
	<g>
		<polygon class="st1" points="263.1,380 256.8,385.6 262.4,379.2 		"/>
	</g>
	<g>
		<polygon class="st1" points="266.2,380 260.4,385 265.5,379.2 		"/>
	</g>
	<g>
		<polygon class="st1" points="269.9,380 264.1,385 269.2,379.2 		"/>
	</g>
	<g>
		<polygon class="st1" points="273.2,380 267.5,385 272.5,379.2 		"/>
	</g>
</g>
</svg>
